%TF.GenerationSoftware,KiCad,Pcbnew,(5.99.0-7233-g6a28d6af27)*%
%TF.CreationDate,2021-07-20T18:44:52+02:00*%
%TF.ProjectId,lna,6c6e612e-6b69-4636-9164-5f7063625858,rev?*%
%TF.SameCoordinates,Original*%
%TF.FileFunction,Paste,Top*%
%TF.FilePolarity,Positive*%
%FSLAX46Y46*%
G04 Gerber Fmt 4.6, Leading zero omitted, Abs format (unit mm)*
G04 Created by KiCad (PCBNEW (5.99.0-7233-g6a28d6af27)) date 2021-07-20 18:44:52*
%MOMM*%
%LPD*%
G01*
G04 APERTURE LIST*
G04 Aperture macros list*
%AMRoundRect*
0 Rectangle with rounded corners*
0 $1 Rounding radius*
0 $2 $3 $4 $5 $6 $7 $8 $9 X,Y pos of 4 corners*
0 Add a 4 corners polygon primitive as box body*
4,1,4,$2,$3,$4,$5,$6,$7,$8,$9,$2,$3,0*
0 Add four circle primitives for the rounded corners*
1,1,$1+$1,$2,$3,0*
1,1,$1+$1,$4,$5,0*
1,1,$1+$1,$6,$7,0*
1,1,$1+$1,$8,$9,0*
0 Add four rect primitives between the rounded corners*
20,1,$1+$1,$2,$3,$4,$5,0*
20,1,$1+$1,$4,$5,$6,$7,0*
20,1,$1+$1,$6,$7,$8,$9,0*
20,1,$1+$1,$8,$9,$2,$3,0*%
G04 Aperture macros list end*
%ADD10RoundRect,0.218750X0.256250X-0.218750X0.256250X0.218750X-0.256250X0.218750X-0.256250X-0.218750X0*%
%ADD11RoundRect,0.250000X-0.450000X-0.425000X0.450000X-0.425000X0.450000X0.425000X-0.450000X0.425000X0*%
%ADD12R,0.900000X1.300000*%
%ADD13RoundRect,0.243750X0.243750X0.456250X-0.243750X0.456250X-0.243750X-0.456250X0.243750X-0.456250X0*%
%ADD14R,5.080000X1.500000*%
%ADD15RoundRect,0.218750X-0.218750X-0.256250X0.218750X-0.256250X0.218750X0.256250X-0.218750X0.256250X0*%
%ADD16RoundRect,0.243750X-0.243750X-0.456250X0.243750X-0.456250X0.243750X0.456250X-0.243750X0.456250X0*%
%ADD17R,1.306056X1.058220*%
%ADD18RoundRect,0.218750X0.218750X0.256250X-0.218750X0.256250X-0.218750X-0.256250X0.218750X-0.256250X0*%
%ADD19RoundRect,0.243750X-0.456250X0.243750X-0.456250X-0.243750X0.456250X-0.243750X0.456250X0.243750X0*%
G04 APERTURE END LIST*
D10*
%TO.C,C1*%
X132600000Y-93387500D03*
X132600000Y-91812500D03*
%TD*%
D11*
%TO.C,C6*%
X154450000Y-86800000D03*
X157150000Y-86800000D03*
%TD*%
D12*
%TO.C,U1*%
X143500000Y-94950000D03*
G36*
X145866500Y-91000000D02*
G01*
X145866500Y-94125000D01*
X145450000Y-94125000D01*
X145449999Y-95600000D01*
X144550000Y-95600000D01*
X144550001Y-94125000D01*
X144133500Y-94125000D01*
X144133501Y-91000000D01*
X145866500Y-91000000D01*
G37*
X146500000Y-94950000D03*
%TD*%
D13*
%TO.C,L2*%
X139437500Y-95000000D03*
X137562500Y-95000000D03*
%TD*%
D14*
%TO.C,J3*%
X162000000Y-95000000D03*
X162000000Y-99250000D03*
X162000000Y-90750000D03*
%TD*%
D15*
%TO.C,C2*%
X133750000Y-95000000D03*
X135325000Y-95000000D03*
%TD*%
%TO.C,C7*%
X152212500Y-95000000D03*
X153787500Y-95000000D03*
%TD*%
%TO.C,R1*%
X145012500Y-100200000D03*
X146587500Y-100200000D03*
%TD*%
D16*
%TO.C,L4*%
X141262500Y-100200000D03*
X143137500Y-100200000D03*
%TD*%
D17*
%TO.C,FB1*%
X149223918Y-87800000D03*
X150776082Y-87800000D03*
%TD*%
D18*
%TO.C,C4*%
X155462500Y-90800000D03*
X153887500Y-90800000D03*
%TD*%
D19*
%TO.C,L3*%
X141400000Y-96262500D03*
X141400000Y-98137500D03*
%TD*%
D16*
%TO.C,L5*%
X150262500Y-92200000D03*
X152137500Y-92200000D03*
%TD*%
D15*
%TO.C,C3*%
X148400000Y-100200000D03*
X149975000Y-100200000D03*
%TD*%
D14*
%TO.C,J1*%
X128000000Y-95000000D03*
X128000000Y-90750000D03*
X128000000Y-99250000D03*
%TD*%
D19*
%TO.C,L1*%
X132600000Y-96662500D03*
X132600000Y-98537500D03*
%TD*%
D15*
%TO.C,C5*%
X153887500Y-89000000D03*
X155462500Y-89000000D03*
%TD*%
M02*
