%TF.GenerationSoftware,KiCad,Pcbnew,(5.99.0-7233-g6a28d6af27)*%
%TF.CreationDate,2021-07-20T18:44:52+02:00*%
%TF.ProjectId,lna,6c6e612e-6b69-4636-9164-5f7063625858,rev?*%
%TF.SameCoordinates,Original*%
%TF.FileFunction,Legend,Top*%
%TF.FilePolarity,Positive*%
%FSLAX46Y46*%
G04 Gerber Fmt 4.6, Leading zero omitted, Abs format (unit mm)*
G04 Created by KiCad (PCBNEW (5.99.0-7233-g6a28d6af27)) date 2021-07-20 18:44:52*
%MOMM*%
%LPD*%
G01*
G04 APERTURE LIST*
%ADD10C,0.250000*%
%ADD11C,0.150000*%
%ADD12C,0.120000*%
G04 APERTURE END LIST*
D10*
X145879523Y-88702380D02*
X145403333Y-88702380D01*
X145355714Y-89178571D01*
X145403333Y-89130952D01*
X145498571Y-89083333D01*
X145736666Y-89083333D01*
X145831904Y-89130952D01*
X145879523Y-89178571D01*
X145927142Y-89273809D01*
X145927142Y-89511904D01*
X145879523Y-89607142D01*
X145831904Y-89654761D01*
X145736666Y-89702380D01*
X145498571Y-89702380D01*
X145403333Y-89654761D01*
X145355714Y-89607142D01*
X146212857Y-88702380D02*
X146546190Y-89702380D01*
X146879523Y-88702380D01*
X143761904Y-88750000D02*
X143666666Y-88702380D01*
X143523809Y-88702380D01*
X143380952Y-88750000D01*
X143285714Y-88845238D01*
X143238095Y-88940476D01*
X143190476Y-89130952D01*
X143190476Y-89273809D01*
X143238095Y-89464285D01*
X143285714Y-89559523D01*
X143380952Y-89654761D01*
X143523809Y-89702380D01*
X143619047Y-89702380D01*
X143761904Y-89654761D01*
X143809523Y-89607142D01*
X143809523Y-89273809D01*
X143619047Y-89273809D01*
X160800000Y-88092857D02*
X161028571Y-88092857D01*
X161142857Y-88150000D01*
X161257142Y-88264285D01*
X161314285Y-88492857D01*
X161314285Y-88892857D01*
X161257142Y-89121428D01*
X161142857Y-89235714D01*
X161028571Y-89292857D01*
X160800000Y-89292857D01*
X160685714Y-89235714D01*
X160571428Y-89121428D01*
X160514285Y-88892857D01*
X160514285Y-88492857D01*
X160571428Y-88264285D01*
X160685714Y-88150000D01*
X160800000Y-88092857D01*
X161828571Y-88092857D02*
X161828571Y-89064285D01*
X161885714Y-89178571D01*
X161942857Y-89235714D01*
X162057142Y-89292857D01*
X162285714Y-89292857D01*
X162400000Y-89235714D01*
X162457142Y-89178571D01*
X162514285Y-89064285D01*
X162514285Y-88092857D01*
X162914285Y-88092857D02*
X163600000Y-88092857D01*
X163257142Y-89292857D02*
X163257142Y-88092857D01*
X127371428Y-89042857D02*
X127371428Y-87842857D01*
X127942857Y-89042857D02*
X127942857Y-87842857D01*
X128628571Y-89042857D01*
X128628571Y-87842857D01*
D11*
%TO.C,C1*%
X131125000Y-92767857D02*
X131089285Y-92803571D01*
X130982142Y-92839285D01*
X130910714Y-92839285D01*
X130803571Y-92803571D01*
X130732142Y-92732142D01*
X130696428Y-92660714D01*
X130660714Y-92517857D01*
X130660714Y-92410714D01*
X130696428Y-92267857D01*
X130732142Y-92196428D01*
X130803571Y-92125000D01*
X130910714Y-92089285D01*
X130982142Y-92089285D01*
X131089285Y-92125000D01*
X131125000Y-92160714D01*
X131839285Y-92839285D02*
X131410714Y-92839285D01*
X131625000Y-92839285D02*
X131625000Y-92089285D01*
X131553571Y-92196428D01*
X131482142Y-92267857D01*
X131410714Y-92303571D01*
%TO.C,C6*%
X158475000Y-87067857D02*
X158439285Y-87103571D01*
X158332142Y-87139285D01*
X158260714Y-87139285D01*
X158153571Y-87103571D01*
X158082142Y-87032142D01*
X158046428Y-86960714D01*
X158010714Y-86817857D01*
X158010714Y-86710714D01*
X158046428Y-86567857D01*
X158082142Y-86496428D01*
X158153571Y-86425000D01*
X158260714Y-86389285D01*
X158332142Y-86389285D01*
X158439285Y-86425000D01*
X158475000Y-86460714D01*
X159117857Y-86389285D02*
X158975000Y-86389285D01*
X158903571Y-86425000D01*
X158867857Y-86460714D01*
X158796428Y-86567857D01*
X158760714Y-86710714D01*
X158760714Y-86996428D01*
X158796428Y-87067857D01*
X158832142Y-87103571D01*
X158903571Y-87139285D01*
X159046428Y-87139285D01*
X159117857Y-87103571D01*
X159153571Y-87067857D01*
X159189285Y-86996428D01*
X159189285Y-86817857D01*
X159153571Y-86746428D01*
X159117857Y-86710714D01*
X159046428Y-86675000D01*
X158903571Y-86675000D01*
X158832142Y-86710714D01*
X158796428Y-86746428D01*
X158760714Y-86817857D01*
%TO.C,U1*%
X141178571Y-92589285D02*
X141178571Y-93196428D01*
X141214285Y-93267857D01*
X141250000Y-93303571D01*
X141321428Y-93339285D01*
X141464285Y-93339285D01*
X141535714Y-93303571D01*
X141571428Y-93267857D01*
X141607142Y-93196428D01*
X141607142Y-92589285D01*
X142357142Y-93339285D02*
X141928571Y-93339285D01*
X142142857Y-93339285D02*
X142142857Y-92589285D01*
X142071428Y-92696428D01*
X142000000Y-92767857D01*
X141928571Y-92803571D01*
%TO.C,L2*%
X138375000Y-93839285D02*
X138017857Y-93839285D01*
X138017857Y-93089285D01*
X138589285Y-93160714D02*
X138625000Y-93125000D01*
X138696428Y-93089285D01*
X138875000Y-93089285D01*
X138946428Y-93125000D01*
X138982142Y-93160714D01*
X139017857Y-93232142D01*
X139017857Y-93303571D01*
X138982142Y-93410714D01*
X138553571Y-93839285D01*
X139017857Y-93839285D01*
%TO.C,J3*%
X161750000Y-96839285D02*
X161750000Y-97375000D01*
X161714285Y-97482142D01*
X161642857Y-97553571D01*
X161535714Y-97589285D01*
X161464285Y-97589285D01*
X162035714Y-96839285D02*
X162500000Y-96839285D01*
X162250000Y-97125000D01*
X162357142Y-97125000D01*
X162428571Y-97160714D01*
X162464285Y-97196428D01*
X162500000Y-97267857D01*
X162500000Y-97446428D01*
X162464285Y-97517857D01*
X162428571Y-97553571D01*
X162357142Y-97589285D01*
X162142857Y-97589285D01*
X162071428Y-97553571D01*
X162035714Y-97517857D01*
%TO.C,C2*%
X134412500Y-93837857D02*
X134376785Y-93873571D01*
X134269642Y-93909285D01*
X134198214Y-93909285D01*
X134091071Y-93873571D01*
X134019642Y-93802142D01*
X133983928Y-93730714D01*
X133948214Y-93587857D01*
X133948214Y-93480714D01*
X133983928Y-93337857D01*
X134019642Y-93266428D01*
X134091071Y-93195000D01*
X134198214Y-93159285D01*
X134269642Y-93159285D01*
X134376785Y-93195000D01*
X134412500Y-93230714D01*
X134698214Y-93230714D02*
X134733928Y-93195000D01*
X134805357Y-93159285D01*
X134983928Y-93159285D01*
X135055357Y-93195000D01*
X135091071Y-93230714D01*
X135126785Y-93302142D01*
X135126785Y-93373571D01*
X135091071Y-93480714D01*
X134662500Y-93909285D01*
X135126785Y-93909285D01*
%TO.C,C7*%
X152875000Y-96467857D02*
X152839285Y-96503571D01*
X152732142Y-96539285D01*
X152660714Y-96539285D01*
X152553571Y-96503571D01*
X152482142Y-96432142D01*
X152446428Y-96360714D01*
X152410714Y-96217857D01*
X152410714Y-96110714D01*
X152446428Y-95967857D01*
X152482142Y-95896428D01*
X152553571Y-95825000D01*
X152660714Y-95789285D01*
X152732142Y-95789285D01*
X152839285Y-95825000D01*
X152875000Y-95860714D01*
X153125000Y-95789285D02*
X153625000Y-95789285D01*
X153303571Y-96539285D01*
%TO.C,R1*%
X145675000Y-99109285D02*
X145425000Y-98752142D01*
X145246428Y-99109285D02*
X145246428Y-98359285D01*
X145532142Y-98359285D01*
X145603571Y-98395000D01*
X145639285Y-98430714D01*
X145675000Y-98502142D01*
X145675000Y-98609285D01*
X145639285Y-98680714D01*
X145603571Y-98716428D01*
X145532142Y-98752142D01*
X145246428Y-98752142D01*
X146389285Y-99109285D02*
X145960714Y-99109285D01*
X146175000Y-99109285D02*
X146175000Y-98359285D01*
X146103571Y-98466428D01*
X146032142Y-98537857D01*
X145960714Y-98573571D01*
%TO.C,L4*%
X139475000Y-100539285D02*
X139117857Y-100539285D01*
X139117857Y-99789285D01*
X140046428Y-100039285D02*
X140046428Y-100539285D01*
X139867857Y-99753571D02*
X139689285Y-100289285D01*
X140153571Y-100289285D01*
%TO.C,FB1*%
X149526071Y-86146428D02*
X149276071Y-86146428D01*
X149276071Y-86539285D02*
X149276071Y-85789285D01*
X149633214Y-85789285D01*
X150168928Y-86146428D02*
X150276071Y-86182142D01*
X150311785Y-86217857D01*
X150347500Y-86289285D01*
X150347500Y-86396428D01*
X150311785Y-86467857D01*
X150276071Y-86503571D01*
X150204642Y-86539285D01*
X149918928Y-86539285D01*
X149918928Y-85789285D01*
X150168928Y-85789285D01*
X150240357Y-85825000D01*
X150276071Y-85860714D01*
X150311785Y-85932142D01*
X150311785Y-86003571D01*
X150276071Y-86075000D01*
X150240357Y-86110714D01*
X150168928Y-86146428D01*
X149918928Y-86146428D01*
X151061785Y-86539285D02*
X150633214Y-86539285D01*
X150847500Y-86539285D02*
X150847500Y-85789285D01*
X150776071Y-85896428D01*
X150704642Y-85967857D01*
X150633214Y-86003571D01*
%TO.C,C4*%
X156950000Y-91067857D02*
X156914285Y-91103571D01*
X156807142Y-91139285D01*
X156735714Y-91139285D01*
X156628571Y-91103571D01*
X156557142Y-91032142D01*
X156521428Y-90960714D01*
X156485714Y-90817857D01*
X156485714Y-90710714D01*
X156521428Y-90567857D01*
X156557142Y-90496428D01*
X156628571Y-90425000D01*
X156735714Y-90389285D01*
X156807142Y-90389285D01*
X156914285Y-90425000D01*
X156950000Y-90460714D01*
X157592857Y-90639285D02*
X157592857Y-91139285D01*
X157414285Y-90353571D02*
X157235714Y-90889285D01*
X157700000Y-90889285D01*
%TO.C,L3*%
X142925000Y-97539285D02*
X142567857Y-97539285D01*
X142567857Y-96789285D01*
X143103571Y-96789285D02*
X143567857Y-96789285D01*
X143317857Y-97075000D01*
X143425000Y-97075000D01*
X143496428Y-97110714D01*
X143532142Y-97146428D01*
X143567857Y-97217857D01*
X143567857Y-97396428D01*
X143532142Y-97467857D01*
X143496428Y-97503571D01*
X143425000Y-97539285D01*
X143210714Y-97539285D01*
X143139285Y-97503571D01*
X143103571Y-97467857D01*
%TO.C,L5*%
X148812500Y-92539285D02*
X148455357Y-92539285D01*
X148455357Y-91789285D01*
X149419642Y-91789285D02*
X149062500Y-91789285D01*
X149026785Y-92146428D01*
X149062500Y-92110714D01*
X149133928Y-92075000D01*
X149312500Y-92075000D01*
X149383928Y-92110714D01*
X149419642Y-92146428D01*
X149455357Y-92217857D01*
X149455357Y-92396428D01*
X149419642Y-92467857D01*
X149383928Y-92503571D01*
X149312500Y-92539285D01*
X149133928Y-92539285D01*
X149062500Y-92503571D01*
X149026785Y-92467857D01*
%TO.C,C3*%
X149062500Y-99037857D02*
X149026785Y-99073571D01*
X148919642Y-99109285D01*
X148848214Y-99109285D01*
X148741071Y-99073571D01*
X148669642Y-99002142D01*
X148633928Y-98930714D01*
X148598214Y-98787857D01*
X148598214Y-98680714D01*
X148633928Y-98537857D01*
X148669642Y-98466428D01*
X148741071Y-98395000D01*
X148848214Y-98359285D01*
X148919642Y-98359285D01*
X149026785Y-98395000D01*
X149062500Y-98430714D01*
X149312500Y-98359285D02*
X149776785Y-98359285D01*
X149526785Y-98645000D01*
X149633928Y-98645000D01*
X149705357Y-98680714D01*
X149741071Y-98716428D01*
X149776785Y-98787857D01*
X149776785Y-98966428D01*
X149741071Y-99037857D01*
X149705357Y-99073571D01*
X149633928Y-99109285D01*
X149419642Y-99109285D01*
X149348214Y-99073571D01*
X149312500Y-99037857D01*
%TO.C,J1*%
X127750000Y-96839285D02*
X127750000Y-97375000D01*
X127714285Y-97482142D01*
X127642857Y-97553571D01*
X127535714Y-97589285D01*
X127464285Y-97589285D01*
X128500000Y-97589285D02*
X128071428Y-97589285D01*
X128285714Y-97589285D02*
X128285714Y-96839285D01*
X128214285Y-96946428D01*
X128142857Y-97017857D01*
X128071428Y-97053571D01*
%TO.C,L1*%
X130875000Y-97839285D02*
X130517857Y-97839285D01*
X130517857Y-97089285D01*
X131517857Y-97839285D02*
X131089285Y-97839285D01*
X131303571Y-97839285D02*
X131303571Y-97089285D01*
X131232142Y-97196428D01*
X131160714Y-97267857D01*
X131089285Y-97303571D01*
%TO.C,C5*%
X156950000Y-89267857D02*
X156914285Y-89303571D01*
X156807142Y-89339285D01*
X156735714Y-89339285D01*
X156628571Y-89303571D01*
X156557142Y-89232142D01*
X156521428Y-89160714D01*
X156485714Y-89017857D01*
X156485714Y-88910714D01*
X156521428Y-88767857D01*
X156557142Y-88696428D01*
X156628571Y-88625000D01*
X156735714Y-88589285D01*
X156807142Y-88589285D01*
X156914285Y-88625000D01*
X156950000Y-88660714D01*
X157628571Y-88589285D02*
X157271428Y-88589285D01*
X157235714Y-88946428D01*
X157271428Y-88910714D01*
X157342857Y-88875000D01*
X157521428Y-88875000D01*
X157592857Y-88910714D01*
X157628571Y-88946428D01*
X157664285Y-89017857D01*
X157664285Y-89196428D01*
X157628571Y-89267857D01*
X157592857Y-89303571D01*
X157521428Y-89339285D01*
X157342857Y-89339285D01*
X157271428Y-89303571D01*
X157235714Y-89267857D01*
D12*
%TO.C,C1*%
X132090000Y-92762779D02*
X132090000Y-92437221D01*
X133110000Y-92762779D02*
X133110000Y-92437221D01*
%TO.C,C6*%
X153490000Y-85865000D02*
X153490000Y-87735000D01*
X157400000Y-85865000D02*
X153490000Y-85865000D01*
X153490000Y-87735000D02*
X157400000Y-87735000D01*
%TO.C,U1*%
X147360000Y-91640000D02*
X147360000Y-94360000D01*
X142870000Y-95500000D02*
X142870000Y-94360000D01*
X142640000Y-94360000D02*
X142870000Y-94360000D01*
X147360000Y-94360000D02*
X147130000Y-94360000D01*
X146050000Y-91640000D02*
X147360000Y-91640000D01*
X142640000Y-94360000D02*
X142640000Y-91640000D01*
X142640000Y-91640000D02*
X143950000Y-91640000D01*
%TO.C,L2*%
X138758578Y-95710000D02*
X138241422Y-95710000D01*
X138758578Y-94290000D02*
X138241422Y-94290000D01*
%TO.C,J3*%
X158290000Y-95250000D02*
X158790000Y-95000000D01*
X158790000Y-95000000D02*
X158290000Y-94750000D01*
X158290000Y-94750000D02*
X158290000Y-95250000D01*
%TO.C,C2*%
X134374721Y-94490000D02*
X134700279Y-94490000D01*
X134374721Y-95510000D02*
X134700279Y-95510000D01*
%TO.C,C7*%
X152837221Y-94490000D02*
X153162779Y-94490000D01*
X152837221Y-95510000D02*
X153162779Y-95510000D01*
%TO.C,R1*%
X145637221Y-99690000D02*
X145962779Y-99690000D01*
X145637221Y-100710000D02*
X145962779Y-100710000D01*
%TO.C,L4*%
X141941422Y-99490000D02*
X142458578Y-99490000D01*
X141941422Y-100910000D02*
X142458578Y-100910000D01*
D11*
%TO.C,FB1*%
X148570890Y-86870890D02*
X151429110Y-86870890D01*
X148570890Y-88729110D02*
X151429110Y-88729110D01*
D12*
%TO.C,J2*%
X142170000Y-88330000D02*
X142170000Y-87000000D01*
X143500000Y-88330000D02*
X142170000Y-88330000D01*
X144770000Y-85670000D02*
X147370000Y-85670000D01*
X147370000Y-88330000D02*
X147370000Y-85670000D01*
X144770000Y-88330000D02*
X147370000Y-88330000D01*
X144770000Y-88330000D02*
X144770000Y-85670000D01*
%TO.C,C4*%
X154837779Y-90290000D02*
X154512221Y-90290000D01*
X154837779Y-91310000D02*
X154512221Y-91310000D01*
%TO.C,L3*%
X142110000Y-96941422D02*
X142110000Y-97458578D01*
X140690000Y-96941422D02*
X140690000Y-97458578D01*
%TO.C,G\u002A\u002A\u002A*%
G36*
X126807116Y-102500983D02*
G01*
X126847380Y-102501693D01*
X126877661Y-102503003D01*
X126899711Y-102505016D01*
X126915282Y-102507836D01*
X126924370Y-102510794D01*
X126966205Y-102534934D01*
X126998841Y-102567319D01*
X127021804Y-102605900D01*
X127034617Y-102648627D01*
X127036806Y-102693453D01*
X127027896Y-102738328D01*
X127007412Y-102781204D01*
X126991931Y-102802144D01*
X126975209Y-102817579D01*
X126952451Y-102833400D01*
X126938942Y-102840936D01*
X126927108Y-102846633D01*
X126916171Y-102850927D01*
X126904054Y-102854016D01*
X126888681Y-102856098D01*
X126867977Y-102857372D01*
X126839864Y-102858035D01*
X126802266Y-102858287D01*
X126756949Y-102858326D01*
X126609853Y-102858326D01*
X126609853Y-102500770D01*
X126755117Y-102500770D01*
X126807116Y-102500983D01*
G37*
G36*
X130129761Y-102502198D02*
G01*
X130186970Y-102503643D01*
X130232836Y-102506038D01*
X130269505Y-102510019D01*
X130299122Y-102516225D01*
X130323835Y-102525294D01*
X130345789Y-102537866D01*
X130367130Y-102554577D01*
X130390005Y-102576067D01*
X130395067Y-102581109D01*
X130433911Y-102626205D01*
X130460901Y-102672687D01*
X130477583Y-102723524D01*
X130482078Y-102748185D01*
X130483851Y-102767820D01*
X130485341Y-102798870D01*
X130486546Y-102839260D01*
X130487464Y-102886914D01*
X130488092Y-102939758D01*
X130488430Y-102995716D01*
X130488473Y-103052714D01*
X130488221Y-103108676D01*
X130487671Y-103161527D01*
X130486821Y-103209192D01*
X130485669Y-103249597D01*
X130484213Y-103280666D01*
X130482644Y-103298902D01*
X130468574Y-103357401D01*
X130442652Y-103410189D01*
X130405734Y-103456086D01*
X130358675Y-103493916D01*
X130328634Y-103510928D01*
X130277263Y-103536334D01*
X130133518Y-103538501D01*
X129989774Y-103540667D01*
X129989774Y-102499591D01*
X130129761Y-102502198D01*
G37*
G36*
X126729601Y-103040529D02*
G01*
X126795963Y-103041381D01*
X126850790Y-103044196D01*
X126895960Y-103049455D01*
X126933349Y-103057638D01*
X126964833Y-103069226D01*
X126992290Y-103084699D01*
X127017597Y-103104538D01*
X127031678Y-103117883D01*
X127066634Y-103161599D01*
X127089968Y-103209799D01*
X127101993Y-103260677D01*
X127103026Y-103312427D01*
X127093380Y-103363245D01*
X127073371Y-103411325D01*
X127043313Y-103454862D01*
X127003521Y-103492050D01*
X126962007Y-103517454D01*
X126949477Y-103523463D01*
X126938181Y-103528064D01*
X126926105Y-103531474D01*
X126911234Y-103533909D01*
X126891553Y-103535586D01*
X126865047Y-103536723D01*
X126829702Y-103537535D01*
X126783503Y-103538240D01*
X126766706Y-103538469D01*
X126609853Y-103540605D01*
X126609853Y-103040478D01*
X126729601Y-103040529D01*
G37*
G36*
X140078100Y-102506841D02*
G01*
X140109550Y-102523547D01*
X140134196Y-102548630D01*
X140150115Y-102579830D01*
X140155388Y-102614889D01*
X140153600Y-102632282D01*
X140148752Y-102644361D01*
X140137930Y-102664873D01*
X140122796Y-102691131D01*
X140105013Y-102720445D01*
X140086244Y-102750125D01*
X140068151Y-102777483D01*
X140052398Y-102799828D01*
X140041621Y-102813401D01*
X140036499Y-102810038D01*
X140025824Y-102796963D01*
X140010965Y-102776044D01*
X139993288Y-102749151D01*
X139985345Y-102736511D01*
X139961399Y-102696842D01*
X139944599Y-102665881D01*
X139934195Y-102641393D01*
X139929436Y-102621144D01*
X139929572Y-102602902D01*
X139933852Y-102584433D01*
X139934036Y-102583852D01*
X139951281Y-102549424D01*
X139977245Y-102522831D01*
X140009438Y-102505994D01*
X140041766Y-102500770D01*
X140078100Y-102506841D01*
G37*
G36*
X131226042Y-102502008D02*
G01*
X131276054Y-102502728D01*
X131314583Y-102503495D01*
X131343637Y-102504521D01*
X131365223Y-102506016D01*
X131381350Y-102508194D01*
X131394026Y-102511266D01*
X131405260Y-102515445D01*
X131417059Y-102520941D01*
X131420257Y-102522510D01*
X131457709Y-102545944D01*
X131493534Y-102577278D01*
X131523458Y-102612384D01*
X131538359Y-102636512D01*
X131548348Y-102660675D01*
X131557547Y-102690560D01*
X131562427Y-102711952D01*
X131565418Y-102764341D01*
X131555845Y-102816645D01*
X131534491Y-102866807D01*
X131502139Y-102912771D01*
X131475879Y-102939163D01*
X131455687Y-102955804D01*
X131435983Y-102968881D01*
X131414750Y-102978860D01*
X131389975Y-102986207D01*
X131359643Y-102991388D01*
X131321739Y-102994869D01*
X131274247Y-102997116D01*
X131219296Y-102998515D01*
X131069189Y-103001464D01*
X131069189Y-102499873D01*
X131226042Y-102502008D01*
G37*
G36*
X138416384Y-102713546D02*
G01*
X138423065Y-102728623D01*
X138432899Y-102753733D01*
X138445393Y-102787471D01*
X138460054Y-102828434D01*
X138476392Y-102875214D01*
X138493912Y-102926409D01*
X138512123Y-102980613D01*
X138530532Y-103036421D01*
X138548647Y-103092429D01*
X138560533Y-103129867D01*
X138583364Y-103202390D01*
X138248359Y-103202390D01*
X138328769Y-102961208D01*
X138347009Y-102906558D01*
X138364020Y-102855712D01*
X138379303Y-102810147D01*
X138392362Y-102771338D01*
X138402701Y-102740760D01*
X138409823Y-102719889D01*
X138413232Y-102710200D01*
X138413348Y-102709907D01*
X138416384Y-102713546D01*
G37*
G36*
X132465886Y-102714185D02*
G01*
X132472439Y-102729815D01*
X132482219Y-102755340D01*
X132494717Y-102789304D01*
X132509422Y-102830252D01*
X132525826Y-102876729D01*
X132543417Y-102927278D01*
X132561687Y-102980444D01*
X132580124Y-103034772D01*
X132598219Y-103088805D01*
X132615461Y-103141088D01*
X132631342Y-103190165D01*
X132631476Y-103190584D01*
X132631878Y-103194255D01*
X132629429Y-103197077D01*
X132622609Y-103199162D01*
X132609899Y-103200619D01*
X132589780Y-103201560D01*
X132560733Y-103202095D01*
X132521239Y-103202335D01*
X132469779Y-103202390D01*
X132469511Y-103202390D01*
X132415674Y-103202242D01*
X132374052Y-103201755D01*
X132343374Y-103200863D01*
X132322365Y-103199500D01*
X132309751Y-103197600D01*
X132304260Y-103195099D01*
X132303771Y-103193847D01*
X132305817Y-103186219D01*
X132311572Y-103167532D01*
X132320465Y-103139523D01*
X132331925Y-103103930D01*
X132345379Y-103062489D01*
X132360256Y-103016938D01*
X132375984Y-102969013D01*
X132391991Y-102920451D01*
X132407706Y-102872989D01*
X132422556Y-102828365D01*
X132435970Y-102788314D01*
X132447377Y-102754574D01*
X132456204Y-102728882D01*
X132461880Y-102712975D01*
X132463072Y-102709907D01*
X132465886Y-102714185D01*
G37*
G36*
X128006901Y-102713218D02*
G01*
X128013724Y-102728253D01*
X128023801Y-102753869D01*
X128036727Y-102788922D01*
X128052103Y-102832268D01*
X128069527Y-102882763D01*
X128088595Y-102939262D01*
X128108908Y-103000623D01*
X128130062Y-103065701D01*
X128144129Y-103109628D01*
X128173657Y-103202390D01*
X127838744Y-103202390D01*
X127919154Y-102961208D01*
X127937395Y-102906558D01*
X127954405Y-102855712D01*
X127969688Y-102810147D01*
X127982747Y-102771338D01*
X127993086Y-102740760D01*
X128000207Y-102719889D01*
X128003616Y-102710200D01*
X128003732Y-102709907D01*
X128006901Y-102713218D01*
G37*
G36*
X146144438Y-102501042D02*
G01*
X146188692Y-102502114D01*
X146223783Y-102504370D01*
X146251874Y-102508194D01*
X146275127Y-102513970D01*
X146295705Y-102522084D01*
X146315768Y-102532918D01*
X146333584Y-102544254D01*
X146376214Y-102580027D01*
X146408367Y-102622599D01*
X146429917Y-102670117D01*
X146440740Y-102720728D01*
X146440711Y-102772578D01*
X146429707Y-102823815D01*
X146407602Y-102872585D01*
X146374272Y-102917035D01*
X146359602Y-102931532D01*
X146337682Y-102950507D01*
X146316940Y-102965369D01*
X146295282Y-102976659D01*
X146270610Y-102984917D01*
X146240828Y-102990683D01*
X146203841Y-102994498D01*
X146157550Y-102996902D01*
X146100053Y-102998431D01*
X146057079Y-102999054D01*
X146018689Y-102999165D01*
X145986923Y-102998792D01*
X145963818Y-102997968D01*
X145951413Y-102996723D01*
X145949946Y-102996166D01*
X145948788Y-102988458D01*
X145947723Y-102968797D01*
X145946782Y-102938726D01*
X145945997Y-102899785D01*
X145945398Y-102853514D01*
X145945018Y-102801454D01*
X145944887Y-102745887D01*
X145944887Y-102500770D01*
X146088861Y-102500770D01*
X146144438Y-102501042D01*
G37*
G36*
X125713364Y-102038124D02*
G01*
X125735803Y-101996250D01*
X125770108Y-101956929D01*
X125814711Y-101921444D01*
X125868045Y-101891082D01*
X125917484Y-101870807D01*
X125958831Y-101856494D01*
X136478444Y-101854794D01*
X136937397Y-101854721D01*
X137383050Y-101854652D01*
X137815595Y-101854588D01*
X138235223Y-101854528D01*
X138642127Y-101854473D01*
X139036498Y-101854423D01*
X139418530Y-101854378D01*
X139788413Y-101854338D01*
X140146340Y-101854303D01*
X140492504Y-101854274D01*
X140827096Y-101854251D01*
X141150308Y-101854233D01*
X141462332Y-101854222D01*
X141763361Y-101854216D01*
X142053586Y-101854217D01*
X142333200Y-101854224D01*
X142602395Y-101854238D01*
X142861362Y-101854259D01*
X143110294Y-101854286D01*
X143349384Y-101854320D01*
X143578822Y-101854362D01*
X143798802Y-101854411D01*
X144009515Y-101854467D01*
X144211153Y-101854531D01*
X144403909Y-101854603D01*
X144587974Y-101854683D01*
X144763541Y-101854771D01*
X144930802Y-101854867D01*
X145089948Y-101854971D01*
X145241173Y-101855084D01*
X145384667Y-101855206D01*
X145520623Y-101855336D01*
X145649234Y-101855476D01*
X145770691Y-101855625D01*
X145885186Y-101855783D01*
X145992911Y-101855950D01*
X146094059Y-101856127D01*
X146188822Y-101856314D01*
X146277391Y-101856510D01*
X146359959Y-101856717D01*
X146436718Y-101856934D01*
X146507860Y-101857161D01*
X146573577Y-101857399D01*
X146634061Y-101857648D01*
X146689505Y-101857907D01*
X146740100Y-101858177D01*
X146786038Y-101858458D01*
X146827511Y-101858751D01*
X146864712Y-101859055D01*
X146897833Y-101859371D01*
X146927066Y-101859698D01*
X146952602Y-101860037D01*
X146974635Y-101860388D01*
X146993355Y-101860752D01*
X147008956Y-101861128D01*
X147021628Y-101861516D01*
X147031566Y-101861917D01*
X147038959Y-101862330D01*
X147044001Y-101862757D01*
X147046598Y-101863133D01*
X147103909Y-101879784D01*
X147157402Y-101904518D01*
X147204998Y-101935818D01*
X147244616Y-101972165D01*
X147274176Y-102012042D01*
X147286729Y-102038374D01*
X147288722Y-102043824D01*
X147290519Y-102049437D01*
X147292129Y-102055908D01*
X147293564Y-102063927D01*
X147294833Y-102074186D01*
X147295947Y-102087377D01*
X147296915Y-102104192D01*
X147297749Y-102125322D01*
X147298457Y-102151459D01*
X147299050Y-102183294D01*
X147299539Y-102221521D01*
X147299933Y-102266829D01*
X147300243Y-102319912D01*
X147300478Y-102381460D01*
X147300650Y-102452166D01*
X147300768Y-102532722D01*
X147300842Y-102623818D01*
X147300882Y-102726147D01*
X147300899Y-102840400D01*
X147300903Y-102967270D01*
X147300903Y-103930490D01*
X147286635Y-103968622D01*
X147264886Y-104009125D01*
X147231819Y-104047416D01*
X147189594Y-104081912D01*
X147140373Y-104111032D01*
X147086315Y-104133193D01*
X147047915Y-104143476D01*
X147044722Y-104143909D01*
X147039207Y-104144330D01*
X147031176Y-104144738D01*
X147020439Y-104145133D01*
X147006805Y-104145517D01*
X146990081Y-104145888D01*
X146970077Y-104146248D01*
X146946601Y-104146595D01*
X146919461Y-104146932D01*
X146888467Y-104147257D01*
X146853427Y-104147570D01*
X146814150Y-104147873D01*
X146770444Y-104148165D01*
X146722117Y-104148446D01*
X146668979Y-104148716D01*
X146610838Y-104148976D01*
X146547502Y-104149226D01*
X146478780Y-104149466D01*
X146404482Y-104149696D01*
X146324414Y-104149917D01*
X146238387Y-104150127D01*
X146146208Y-104150329D01*
X146047687Y-104150521D01*
X145942631Y-104150704D01*
X145830850Y-104150879D01*
X145712151Y-104151044D01*
X145586345Y-104151202D01*
X145453238Y-104151350D01*
X145312641Y-104151491D01*
X145164361Y-104151624D01*
X145008207Y-104151748D01*
X144843987Y-104151866D01*
X144671511Y-104151975D01*
X144490587Y-104152077D01*
X144301023Y-104152172D01*
X144102628Y-104152260D01*
X143895211Y-104152342D01*
X143678580Y-104152416D01*
X143452544Y-104152484D01*
X143216912Y-104152546D01*
X142971492Y-104152601D01*
X142716092Y-104152651D01*
X142450522Y-104152694D01*
X142174589Y-104152732D01*
X141888103Y-104152765D01*
X141590873Y-104152792D01*
X141282706Y-104152814D01*
X140963411Y-104152831D01*
X140632798Y-104152843D01*
X140290673Y-104152851D01*
X139936847Y-104152854D01*
X139571128Y-104152852D01*
X139193324Y-104152847D01*
X138803245Y-104152837D01*
X138400697Y-104152824D01*
X137985491Y-104152807D01*
X137557435Y-104152786D01*
X137116337Y-104152763D01*
X136662006Y-104152736D01*
X136496626Y-104152725D01*
X136120068Y-104152700D01*
X135746721Y-104152671D01*
X135376815Y-104152639D01*
X135010578Y-104152603D01*
X134648240Y-104152565D01*
X134290031Y-104152523D01*
X133936179Y-104152478D01*
X133586915Y-104152431D01*
X133242466Y-104152381D01*
X132903063Y-104152328D01*
X132568935Y-104152272D01*
X132240311Y-104152214D01*
X131917420Y-104152153D01*
X131600492Y-104152090D01*
X131289756Y-104152025D01*
X130985441Y-104151957D01*
X130687777Y-104151887D01*
X130396993Y-104151815D01*
X130113317Y-104151741D01*
X129836981Y-104151665D01*
X129568211Y-104151586D01*
X129307239Y-104151507D01*
X129054293Y-104151425D01*
X128809603Y-104151342D01*
X128573398Y-104151257D01*
X128345906Y-104151170D01*
X128127359Y-104151083D01*
X127917984Y-104150993D01*
X127718011Y-104150903D01*
X127527669Y-104150811D01*
X127347188Y-104150718D01*
X127176797Y-104150624D01*
X127016725Y-104150529D01*
X126867201Y-104150434D01*
X126728456Y-104150337D01*
X126600717Y-104150239D01*
X126484215Y-104150141D01*
X126379178Y-104150042D01*
X126285837Y-104149943D01*
X126204419Y-104149843D01*
X126135156Y-104149743D01*
X126078274Y-104149643D01*
X126034006Y-104149542D01*
X126002578Y-104149441D01*
X125984221Y-104149340D01*
X125979070Y-104149255D01*
X125912141Y-104131878D01*
X125855718Y-104109307D01*
X125807430Y-104080383D01*
X125765736Y-104044771D01*
X125736256Y-104010903D01*
X125716950Y-103977471D01*
X125713364Y-103968622D01*
X125699097Y-103930490D01*
X125699097Y-103129409D01*
X126427693Y-103129409D01*
X126427699Y-103225899D01*
X126427769Y-103310523D01*
X126427953Y-103384095D01*
X126428300Y-103447426D01*
X126428859Y-103501330D01*
X126429679Y-103546621D01*
X126430811Y-103584112D01*
X126432303Y-103614616D01*
X126434204Y-103638945D01*
X126436564Y-103657914D01*
X126439433Y-103672335D01*
X126442859Y-103683022D01*
X126446892Y-103690787D01*
X126451582Y-103696445D01*
X126456977Y-103700808D01*
X126463127Y-103704689D01*
X126469461Y-103708512D01*
X126476109Y-103712361D01*
X126483363Y-103715403D01*
X126492747Y-103717713D01*
X126505787Y-103719363D01*
X126524006Y-103720427D01*
X126548931Y-103720977D01*
X126582086Y-103721087D01*
X126624995Y-103720831D01*
X126679185Y-103720281D01*
X126707676Y-103719958D01*
X126768590Y-103719190D01*
X126817772Y-103718365D01*
X126856981Y-103717371D01*
X126887977Y-103716095D01*
X126912521Y-103714425D01*
X126932372Y-103712249D01*
X126949291Y-103709455D01*
X126965037Y-103705931D01*
X126976948Y-103702792D01*
X127046521Y-103676853D01*
X127090566Y-103650644D01*
X127512896Y-103650644D01*
X127513453Y-103660261D01*
X127515260Y-103667924D01*
X127518102Y-103674408D01*
X127521765Y-103680488D01*
X127525835Y-103686633D01*
X127545714Y-103707299D01*
X127572625Y-103718058D01*
X127607760Y-103719641D01*
X127631530Y-103716733D01*
X127647449Y-103710418D01*
X127661118Y-103698357D01*
X127662579Y-103696743D01*
X127671220Y-103683735D01*
X127681883Y-103661445D01*
X127694945Y-103628935D01*
X127710784Y-103585265D01*
X127729470Y-103530420D01*
X127778094Y-103384541D01*
X128234602Y-103384541D01*
X128279939Y-103521155D01*
X128293950Y-103562922D01*
X128307125Y-103601357D01*
X128318681Y-103634240D01*
X128327835Y-103659353D01*
X128333805Y-103674478D01*
X128334798Y-103676619D01*
X128353390Y-103699566D01*
X128379890Y-103714748D01*
X128410559Y-103721212D01*
X128441658Y-103718004D01*
X128462266Y-103709137D01*
X128481506Y-103691473D01*
X128496913Y-103666846D01*
X128505061Y-103641188D01*
X128505577Y-103634145D01*
X128503487Y-103625765D01*
X128497407Y-103605479D01*
X128487630Y-103574179D01*
X128474443Y-103532757D01*
X128458136Y-103482104D01*
X128439000Y-103423111D01*
X128417323Y-103356670D01*
X128393395Y-103283672D01*
X128367506Y-103205008D01*
X128339946Y-103121570D01*
X128311004Y-103034249D01*
X128296420Y-102990358D01*
X128261533Y-102885471D01*
X128230612Y-102792626D01*
X128203367Y-102711062D01*
X128179505Y-102640018D01*
X128173792Y-102623158D01*
X128729122Y-102623158D01*
X128729127Y-102687713D01*
X128729226Y-102762677D01*
X128729404Y-102848875D01*
X128729648Y-102947131D01*
X128729861Y-103028130D01*
X128731580Y-103673550D01*
X128748446Y-103691696D01*
X128768372Y-103709241D01*
X128789989Y-103718385D01*
X128818802Y-103721402D01*
X128820451Y-103721431D01*
X128846328Y-103718098D01*
X128868171Y-103705380D01*
X128869514Y-103704265D01*
X128885344Y-103689083D01*
X128897360Y-103674385D01*
X128898704Y-103672220D01*
X128900497Y-103665606D01*
X128902104Y-103651885D01*
X128903543Y-103630338D01*
X128904833Y-103600241D01*
X128905993Y-103560875D01*
X128907039Y-103511517D01*
X128907992Y-103451447D01*
X128908869Y-103379943D01*
X128909689Y-103296284D01*
X128910358Y-103214616D01*
X128913731Y-102771462D01*
X129172565Y-103236774D01*
X129221839Y-103325244D01*
X129265043Y-103402555D01*
X129302578Y-103469392D01*
X129334842Y-103526438D01*
X129362235Y-103574374D01*
X129385156Y-103613885D01*
X129404006Y-103645653D01*
X129419183Y-103670362D01*
X129431088Y-103688694D01*
X129440119Y-103701333D01*
X129446676Y-103708962D01*
X129450517Y-103711973D01*
X129477436Y-103720381D01*
X129507215Y-103721322D01*
X129534301Y-103715037D01*
X129547113Y-103707771D01*
X129553377Y-103703027D01*
X129558911Y-103698705D01*
X129563761Y-103693983D01*
X129567970Y-103688044D01*
X129571585Y-103680068D01*
X129574651Y-103669236D01*
X129577212Y-103654729D01*
X129579314Y-103635728D01*
X129581001Y-103611413D01*
X129582320Y-103580967D01*
X129583314Y-103543569D01*
X129584030Y-103498401D01*
X129584512Y-103444644D01*
X129584805Y-103381478D01*
X129584954Y-103308084D01*
X129585006Y-103223644D01*
X129585004Y-103129900D01*
X129807617Y-103129900D01*
X129807627Y-103225559D01*
X129807693Y-103309375D01*
X129807853Y-103382170D01*
X129808147Y-103444770D01*
X129808616Y-103497998D01*
X129809298Y-103542680D01*
X129810233Y-103579638D01*
X129811460Y-103609697D01*
X129813020Y-103633682D01*
X129814951Y-103652417D01*
X129817294Y-103666725D01*
X129820087Y-103677432D01*
X129823371Y-103685361D01*
X129827185Y-103691337D01*
X129831569Y-103696184D01*
X129836561Y-103700726D01*
X129840387Y-103704118D01*
X129848018Y-103710132D01*
X129857157Y-103714879D01*
X129869352Y-103718488D01*
X129886150Y-103721085D01*
X129909098Y-103722798D01*
X129939743Y-103723754D01*
X129979631Y-103724082D01*
X130030310Y-103723907D01*
X130075984Y-103723527D01*
X130140564Y-103722641D01*
X130193123Y-103721276D01*
X130235124Y-103719356D01*
X130268035Y-103716801D01*
X130293320Y-103713536D01*
X130304165Y-103711483D01*
X130375386Y-103689363D01*
X130442159Y-103655299D01*
X130502938Y-103610524D01*
X130556177Y-103556273D01*
X130600331Y-103493777D01*
X130617842Y-103461218D01*
X130628273Y-103439315D01*
X130637047Y-103419116D01*
X130644296Y-103399256D01*
X130650155Y-103378364D01*
X130654758Y-103355074D01*
X130658240Y-103328017D01*
X130660735Y-103295826D01*
X130662376Y-103257133D01*
X130663299Y-103210569D01*
X130663637Y-103154767D01*
X130663594Y-103129386D01*
X130887029Y-103129386D01*
X130887036Y-103225906D01*
X130887106Y-103310558D01*
X130887291Y-103384154D01*
X130887638Y-103447506D01*
X130888198Y-103501428D01*
X130889020Y-103546732D01*
X130890153Y-103584229D01*
X130891646Y-103614733D01*
X130893549Y-103639055D01*
X130895910Y-103658008D01*
X130898780Y-103672404D01*
X130902207Y-103683056D01*
X130906241Y-103690776D01*
X130910932Y-103696376D01*
X130916327Y-103700669D01*
X130922478Y-103704467D01*
X130928797Y-103708193D01*
X130952256Y-103717815D01*
X130977741Y-103721807D01*
X130978114Y-103721808D01*
X131003538Y-103717935D01*
X131027122Y-103708380D01*
X131027431Y-103708193D01*
X131037858Y-103701388D01*
X131046388Y-103694019D01*
X131053212Y-103684738D01*
X131058521Y-103672196D01*
X131062503Y-103655044D01*
X131065349Y-103631934D01*
X131065472Y-103629958D01*
X131971219Y-103629958D01*
X131975834Y-103665162D01*
X131991000Y-103692691D01*
X132015414Y-103711316D01*
X132047774Y-103719804D01*
X132066426Y-103719869D01*
X132091166Y-103716433D01*
X132108432Y-103708896D01*
X132121483Y-103697653D01*
X132129187Y-103687663D01*
X132137646Y-103672115D01*
X132147475Y-103649490D01*
X132159290Y-103618272D01*
X132173705Y-103576943D01*
X132188970Y-103531187D01*
X132237284Y-103384366D01*
X132467211Y-103386140D01*
X132697139Y-103387915D01*
X132748383Y-103539620D01*
X132764772Y-103587870D01*
X132777698Y-103624980D01*
X132787906Y-103652629D01*
X132796144Y-103672497D01*
X132803156Y-103686263D01*
X132809689Y-103695606D01*
X132816489Y-103702206D01*
X132822551Y-103706592D01*
X132852468Y-103719464D01*
X132883413Y-103721000D01*
X132912741Y-103712562D01*
X132937806Y-103695515D01*
X132955963Y-103671221D01*
X132964564Y-103641044D01*
X132964913Y-103633240D01*
X132962817Y-103624622D01*
X132956764Y-103604289D01*
X132947111Y-103573312D01*
X132934212Y-103532763D01*
X132918424Y-103483710D01*
X132900102Y-103427226D01*
X132879600Y-103364381D01*
X132857276Y-103296245D01*
X132833484Y-103223889D01*
X132808579Y-103148384D01*
X132782917Y-103070801D01*
X132756854Y-102992210D01*
X132730745Y-102913681D01*
X132704945Y-102836286D01*
X132679810Y-102761096D01*
X132655696Y-102689180D01*
X132647205Y-102663947D01*
X133186993Y-102663947D01*
X133189385Y-102728412D01*
X133203514Y-102791767D01*
X133229379Y-102852466D01*
X133266981Y-102908967D01*
X133294705Y-102939742D01*
X133306896Y-102951609D01*
X133318782Y-102962232D01*
X133331759Y-102972425D01*
X133347220Y-102983002D01*
X133366559Y-102994779D01*
X133391171Y-103008570D01*
X133422450Y-103025190D01*
X133461790Y-103045454D01*
X133510585Y-103070176D01*
X133562941Y-103096513D01*
X133614588Y-103122627D01*
X133663083Y-103147484D01*
X133706938Y-103170295D01*
X133744660Y-103190270D01*
X133774760Y-103206621D01*
X133795747Y-103218558D01*
X133806120Y-103225282D01*
X133835499Y-103258416D01*
X133855037Y-103298558D01*
X133864223Y-103342965D01*
X133862543Y-103388894D01*
X133849484Y-103433604D01*
X133846343Y-103440381D01*
X133821692Y-103479362D01*
X133790380Y-103508364D01*
X133751729Y-103527602D01*
X133705060Y-103537289D01*
X133649694Y-103537640D01*
X133584953Y-103528869D01*
X133573414Y-103526580D01*
X133503401Y-103508872D01*
X133439935Y-103485237D01*
X133376693Y-103453236D01*
X133363421Y-103445562D01*
X133336722Y-103430532D01*
X133312337Y-103418038D01*
X133293901Y-103409886D01*
X133287858Y-103407960D01*
X133264581Y-103408531D01*
X133238477Y-103417399D01*
X133214785Y-103432049D01*
X133198742Y-103449962D01*
X133198141Y-103451079D01*
X133189357Y-103478428D01*
X133188008Y-103508327D01*
X133193920Y-103535416D01*
X133201290Y-103548618D01*
X133218937Y-103565434D01*
X133246849Y-103585306D01*
X133282526Y-103606923D01*
X133323467Y-103628972D01*
X133367172Y-103650140D01*
X133411139Y-103669117D01*
X133452868Y-103684588D01*
X133471524Y-103690429D01*
X133535619Y-103705875D01*
X133600808Y-103715788D01*
X133664279Y-103720065D01*
X133723224Y-103718601D01*
X133774834Y-103711292D01*
X133804570Y-103702832D01*
X133865044Y-103674004D01*
X133919898Y-103634511D01*
X133966713Y-103586402D01*
X134000010Y-103537363D01*
X134027028Y-103475397D01*
X134041768Y-103410377D01*
X134044490Y-103344175D01*
X134035456Y-103278662D01*
X134014926Y-103215711D01*
X133983162Y-103157194D01*
X133940423Y-103104983D01*
X133939671Y-103104229D01*
X133928003Y-103092909D01*
X133916246Y-103082580D01*
X133903019Y-103072441D01*
X133886943Y-103061689D01*
X133866638Y-103049523D01*
X133840722Y-103035140D01*
X133807818Y-103017737D01*
X133766543Y-102996513D01*
X133715519Y-102970666D01*
X133673427Y-102949476D01*
X133617564Y-102921113D01*
X133566119Y-102894450D01*
X133520441Y-102870222D01*
X133481881Y-102849162D01*
X133451787Y-102832004D01*
X133431510Y-102819481D01*
X133423754Y-102813753D01*
X133394726Y-102779133D01*
X133376582Y-102739246D01*
X133368991Y-102696324D01*
X133370920Y-102664228D01*
X134267167Y-102664228D01*
X134269939Y-102730386D01*
X134285034Y-102795014D01*
X134311941Y-102856328D01*
X134350154Y-102912545D01*
X134374359Y-102939207D01*
X134386476Y-102951078D01*
X134398167Y-102961652D01*
X134410799Y-102971728D01*
X134425742Y-102982106D01*
X134444363Y-102993585D01*
X134468029Y-103006965D01*
X134498109Y-103023045D01*
X134535971Y-103042623D01*
X134582983Y-103066501D01*
X134640512Y-103095476D01*
X134649618Y-103100052D01*
X134713763Y-103132404D01*
X134766930Y-103159642D01*
X134810261Y-103182591D01*
X134844895Y-103202073D01*
X134871971Y-103218913D01*
X134892629Y-103233932D01*
X134908010Y-103247955D01*
X134919253Y-103261804D01*
X134927497Y-103276303D01*
X134933884Y-103292276D01*
X134939157Y-103309182D01*
X134946030Y-103355276D01*
X134940940Y-103400877D01*
X134925059Y-103443643D01*
X134899560Y-103481233D01*
X134865612Y-103511307D01*
X134828606Y-103530082D01*
X134791909Y-103537786D01*
X134746367Y-103538838D01*
X134694549Y-103533787D01*
X134639019Y-103523183D01*
X134582345Y-103507575D01*
X134527093Y-103487511D01*
X134475830Y-103463540D01*
X134450928Y-103449299D01*
X134416318Y-103428934D01*
X134389684Y-103415958D01*
X134368340Y-103409492D01*
X134349598Y-103408659D01*
X134334830Y-103411417D01*
X134304058Y-103425816D01*
X134281809Y-103448537D01*
X134269199Y-103476868D01*
X134267345Y-103508099D01*
X134277362Y-103539517D01*
X134280113Y-103544333D01*
X134295780Y-103561847D01*
X134322148Y-103582166D01*
X134357025Y-103604115D01*
X134398220Y-103626521D01*
X134443540Y-103648210D01*
X134490795Y-103668007D01*
X134537791Y-103684739D01*
X134548516Y-103688086D01*
X134608487Y-103703488D01*
X134670295Y-103714380D01*
X134730687Y-103720474D01*
X134786409Y-103721481D01*
X134834209Y-103717112D01*
X134847144Y-103714568D01*
X134898056Y-103697651D01*
X134949470Y-103671248D01*
X134996364Y-103638183D01*
X135018219Y-103618372D01*
X135063263Y-103564200D01*
X135096351Y-103504842D01*
X135117320Y-103441671D01*
X135126006Y-103376058D01*
X135122246Y-103309375D01*
X135105877Y-103242992D01*
X135076736Y-103178281D01*
X135071677Y-103169516D01*
X135058819Y-103148832D01*
X135045659Y-103130432D01*
X135030945Y-103113448D01*
X135013425Y-103097011D01*
X134991845Y-103080252D01*
X134964953Y-103062304D01*
X134931497Y-103042297D01*
X134890223Y-103019364D01*
X134839879Y-102992634D01*
X134779212Y-102961241D01*
X134748899Y-102945713D01*
X134697082Y-102919051D01*
X134648395Y-102893673D01*
X134604312Y-102870372D01*
X134566308Y-102849942D01*
X134535858Y-102833175D01*
X134514438Y-102820866D01*
X134503521Y-102813806D01*
X134503299Y-102813624D01*
X134489219Y-102798090D01*
X134474164Y-102775948D01*
X134465578Y-102760295D01*
X134455865Y-102738298D01*
X134450822Y-102719090D01*
X134449406Y-102696838D01*
X134450133Y-102673932D01*
X134458097Y-102625247D01*
X134477156Y-102583798D01*
X134508054Y-102548164D01*
X134522061Y-102536605D01*
X134546957Y-102520163D01*
X134572698Y-102509347D01*
X134602493Y-102503474D01*
X134639548Y-102501859D01*
X134678486Y-102503285D01*
X134724790Y-102507051D01*
X134767399Y-102513092D01*
X134810535Y-102522276D01*
X134858419Y-102535469D01*
X134902212Y-102549241D01*
X134931793Y-102558764D01*
X134951968Y-102564436D01*
X134966156Y-102566597D01*
X134977775Y-102565590D01*
X134990244Y-102561754D01*
X134998078Y-102558800D01*
X135027189Y-102541300D01*
X135046806Y-102516291D01*
X135056031Y-102486562D01*
X135053965Y-102454903D01*
X135040921Y-102425871D01*
X135021935Y-102407543D01*
X134989877Y-102389416D01*
X134969517Y-102381331D01*
X135892828Y-102381331D01*
X135892828Y-103666853D01*
X135910830Y-103688247D01*
X135925807Y-103703424D01*
X135940195Y-103714028D01*
X135942876Y-103715323D01*
X135952400Y-103716520D01*
X135973969Y-103717651D01*
X136006138Y-103718687D01*
X136047458Y-103719599D01*
X136096483Y-103720360D01*
X136151766Y-103720940D01*
X136211860Y-103721312D01*
X136254447Y-103721431D01*
X136551975Y-103721859D01*
X136574898Y-103706460D01*
X136597954Y-103683717D01*
X136610449Y-103655555D01*
X136612356Y-103624990D01*
X136603647Y-103595034D01*
X136584295Y-103568702D01*
X136576215Y-103561810D01*
X136551671Y-103543081D01*
X136068233Y-103538929D01*
X136068233Y-103127997D01*
X136837308Y-103127997D01*
X136837314Y-103224649D01*
X136837384Y-103309431D01*
X136837568Y-103383154D01*
X136837914Y-103446630D01*
X136838471Y-103500670D01*
X136839289Y-103546086D01*
X136840417Y-103583688D01*
X136841904Y-103614289D01*
X136843798Y-103638698D01*
X136846150Y-103657729D01*
X136849009Y-103672192D01*
X136852423Y-103682898D01*
X136856441Y-103690660D01*
X136861113Y-103696287D01*
X136866488Y-103700592D01*
X136872615Y-103704386D01*
X136879076Y-103708193D01*
X136908828Y-103719373D01*
X136941652Y-103720740D01*
X136971577Y-103712084D01*
X136989220Y-103699147D01*
X137003287Y-103683412D01*
X137005830Y-103679135D01*
X137008027Y-103673689D01*
X137009913Y-103666080D01*
X137011521Y-103655312D01*
X137012886Y-103640392D01*
X137014042Y-103620323D01*
X137015025Y-103594112D01*
X137015868Y-103560764D01*
X137016606Y-103519283D01*
X137017273Y-103468675D01*
X137017904Y-103407945D01*
X137018533Y-103336099D01*
X137019195Y-103252141D01*
X137019468Y-103216082D01*
X137022842Y-102767649D01*
X137278514Y-103228128D01*
X137329845Y-103320328D01*
X137376469Y-103403563D01*
X137418179Y-103477473D01*
X137454766Y-103541696D01*
X137486021Y-103595872D01*
X137511737Y-103639641D01*
X137531705Y-103672640D01*
X137545717Y-103694509D01*
X137553564Y-103704887D01*
X137553946Y-103705233D01*
X137580317Y-103719306D01*
X137610284Y-103722583D01*
X137640381Y-103715764D01*
X137667143Y-103699551D01*
X137684756Y-103678780D01*
X137686899Y-103674820D01*
X137688787Y-103669906D01*
X137690437Y-103663208D01*
X137691863Y-103653896D01*
X137692174Y-103650644D01*
X137922510Y-103650644D01*
X137923068Y-103660261D01*
X137924875Y-103667924D01*
X137927717Y-103674408D01*
X137931380Y-103680488D01*
X137935450Y-103686633D01*
X137955329Y-103707299D01*
X137982239Y-103718058D01*
X138017375Y-103719641D01*
X138041144Y-103716733D01*
X138057064Y-103710418D01*
X138070733Y-103698357D01*
X138072194Y-103696743D01*
X138080831Y-103683741D01*
X138091489Y-103661462D01*
X138104546Y-103628968D01*
X138120379Y-103585317D01*
X138139114Y-103530332D01*
X138187767Y-103384366D01*
X138417077Y-103386140D01*
X138646387Y-103387915D01*
X138691856Y-103526215D01*
X138705738Y-103567986D01*
X138718710Y-103606171D01*
X138730022Y-103638632D01*
X138738925Y-103663228D01*
X138744670Y-103677821D01*
X138745733Y-103680055D01*
X138764351Y-103701348D01*
X138790911Y-103715312D01*
X138821486Y-103721042D01*
X138852153Y-103717633D01*
X138871881Y-103709137D01*
X138891208Y-103691376D01*
X138906626Y-103666617D01*
X138914709Y-103640806D01*
X138915192Y-103633954D01*
X138913100Y-103625546D01*
X138907019Y-103605234D01*
X138897237Y-103573909D01*
X138884044Y-103532464D01*
X138867730Y-103481790D01*
X138857323Y-103449708D01*
X139679191Y-103449708D01*
X139689271Y-103508441D01*
X139711755Y-103564281D01*
X139746303Y-103615832D01*
X139775162Y-103646468D01*
X139814005Y-103678219D01*
X139853421Y-103699990D01*
X139897267Y-103713364D01*
X139949397Y-103719926D01*
X139954793Y-103720245D01*
X140017849Y-103718420D01*
X140073789Y-103705801D01*
X140116042Y-103686201D01*
X140130530Y-103676653D01*
X140153545Y-103660511D01*
X140182892Y-103639369D01*
X140216373Y-103614823D01*
X140251793Y-103588467D01*
X140281624Y-103565955D01*
X140288097Y-103569136D01*
X140300162Y-103583196D01*
X140317037Y-103607123D01*
X140334246Y-103633930D01*
X140358978Y-103672203D01*
X140379569Y-103699778D01*
X140397839Y-103718063D01*
X140415602Y-103728465D01*
X140434678Y-103732393D01*
X140456883Y-103731255D01*
X140459406Y-103730909D01*
X140480713Y-103725337D01*
X140498542Y-103716993D01*
X140519412Y-103695575D01*
X140531622Y-103665635D01*
X140534316Y-103640614D01*
X140533053Y-103626606D01*
X140528495Y-103611257D01*
X140519488Y-103592054D01*
X140504878Y-103566486D01*
X140486892Y-103537397D01*
X140469180Y-103508916D01*
X140454335Y-103484347D01*
X140443737Y-103466029D01*
X140438769Y-103456300D01*
X140438577Y-103455622D01*
X140443442Y-103449751D01*
X140457534Y-103437172D01*
X140479239Y-103419212D01*
X140506946Y-103397198D01*
X140539043Y-103372459D01*
X140545031Y-103367919D01*
X140588011Y-103334849D01*
X140620922Y-103307928D01*
X140644886Y-103285774D01*
X140661030Y-103267004D01*
X140670478Y-103250238D01*
X140674355Y-103234092D01*
X140673787Y-103217186D01*
X140672779Y-103211010D01*
X140663123Y-103187271D01*
X140645332Y-103164039D01*
X140623517Y-103145824D01*
X140606180Y-103137955D01*
X140590022Y-103135358D01*
X140573706Y-103136508D01*
X140555473Y-103142275D01*
X140533565Y-103153523D01*
X140506225Y-103171121D01*
X140471693Y-103195934D01*
X140439694Y-103220049D01*
X140407817Y-103244176D01*
X140379800Y-103265028D01*
X140357319Y-103281387D01*
X140342053Y-103292032D01*
X140335679Y-103295744D01*
X140335609Y-103295713D01*
X140331666Y-103289622D01*
X140321534Y-103273592D01*
X140306159Y-103249135D01*
X140286492Y-103217762D01*
X140263480Y-103180983D01*
X140238094Y-103140346D01*
X140162138Y-103018664D01*
X141438326Y-103018664D01*
X141438352Y-103127305D01*
X141438435Y-103223246D01*
X141438589Y-103307277D01*
X141438825Y-103380189D01*
X141439155Y-103442774D01*
X141439591Y-103495823D01*
X141440144Y-103540128D01*
X141440826Y-103576480D01*
X141441648Y-103605671D01*
X141442624Y-103628491D01*
X141443764Y-103645732D01*
X141445080Y-103658186D01*
X141446585Y-103666644D01*
X141448040Y-103671330D01*
X141465064Y-103695931D01*
X141490314Y-103712823D01*
X141520293Y-103720983D01*
X141551509Y-103719388D01*
X141577166Y-103709137D01*
X141586925Y-103702978D01*
X141595096Y-103696634D01*
X141601819Y-103688920D01*
X141607236Y-103678649D01*
X141611487Y-103664633D01*
X141614715Y-103645685D01*
X141617060Y-103620619D01*
X141618663Y-103588246D01*
X141619665Y-103547381D01*
X141620207Y-103496836D01*
X141620431Y-103435423D01*
X141620477Y-103361957D01*
X141620478Y-103344730D01*
X141620478Y-103040478D01*
X141862436Y-103040478D01*
X141926009Y-103040453D01*
X141977488Y-103040330D01*
X142018275Y-103040031D01*
X142049768Y-103039481D01*
X142073368Y-103038603D01*
X142090475Y-103037323D01*
X142102488Y-103035564D01*
X142110808Y-103033251D01*
X142116834Y-103030307D01*
X142121966Y-103026656D01*
X142122306Y-103026389D01*
X142131212Y-103016568D01*
X142386188Y-103016568D01*
X142386218Y-103126706D01*
X142386314Y-103224107D01*
X142386487Y-103309528D01*
X142386748Y-103383724D01*
X142387107Y-103447451D01*
X142387574Y-103501467D01*
X142388161Y-103546526D01*
X142388878Y-103583384D01*
X142389735Y-103612798D01*
X142390743Y-103635524D01*
X142391912Y-103652318D01*
X142393254Y-103663936D01*
X142394778Y-103671133D01*
X142395359Y-103672752D01*
X142412432Y-103697177D01*
X142437728Y-103713673D01*
X142467851Y-103721173D01*
X142499407Y-103718611D01*
X142518375Y-103711412D01*
X142536010Y-103698169D01*
X142551129Y-103680356D01*
X142551747Y-103679367D01*
X142553960Y-103675412D01*
X142555910Y-103670702D01*
X142557614Y-103664409D01*
X142559089Y-103655702D01*
X142560351Y-103643752D01*
X142561417Y-103627731D01*
X142562303Y-103606809D01*
X142563026Y-103580156D01*
X142563603Y-103546944D01*
X142564050Y-103506343D01*
X142564384Y-103457524D01*
X142564621Y-103399658D01*
X142564779Y-103331915D01*
X142564873Y-103253466D01*
X142564921Y-103163482D01*
X142564927Y-103126078D01*
X142790962Y-103126078D01*
X142790970Y-103222905D01*
X142791041Y-103307860D01*
X142791220Y-103381752D01*
X142791554Y-103445393D01*
X142792090Y-103499592D01*
X142792873Y-103545159D01*
X142793949Y-103582905D01*
X142795366Y-103613640D01*
X142797170Y-103638173D01*
X142799406Y-103657316D01*
X142802121Y-103671878D01*
X142805361Y-103682669D01*
X142809174Y-103690500D01*
X142813604Y-103696180D01*
X142818699Y-103700521D01*
X142824504Y-103704332D01*
X142830498Y-103708057D01*
X142836020Y-103711297D01*
X142842376Y-103713978D01*
X142850823Y-103716151D01*
X142862614Y-103717872D01*
X142879005Y-103719194D01*
X142901251Y-103720170D01*
X142930608Y-103720854D01*
X142968329Y-103721300D01*
X143015670Y-103721560D01*
X143073887Y-103721690D01*
X143144233Y-103721743D01*
X143150858Y-103721745D01*
X143222833Y-103721735D01*
X143282554Y-103721615D01*
X143331259Y-103721339D01*
X143370186Y-103720864D01*
X143400575Y-103720144D01*
X143423663Y-103719135D01*
X143440688Y-103717792D01*
X143452890Y-103716069D01*
X143461505Y-103713922D01*
X143467774Y-103711307D01*
X143469766Y-103710200D01*
X143484841Y-103696874D01*
X143499350Y-103677191D01*
X143503742Y-103669127D01*
X143512211Y-103649221D01*
X143514378Y-103633950D01*
X143510979Y-103616441D01*
X143509827Y-103612498D01*
X143494092Y-103579981D01*
X143469324Y-103557476D01*
X143444540Y-103547046D01*
X143429712Y-103544911D01*
X143402383Y-103543105D01*
X143363541Y-103541656D01*
X143314176Y-103540595D01*
X143255275Y-103539948D01*
X143194063Y-103539745D01*
X142969747Y-103539707D01*
X142969747Y-102962004D01*
X142969741Y-102860419D01*
X142969709Y-102771452D01*
X142969632Y-102694229D01*
X142969489Y-102627876D01*
X142969261Y-102571517D01*
X142968928Y-102524280D01*
X142968470Y-102485289D01*
X142967868Y-102453670D01*
X142967101Y-102428549D01*
X142966847Y-102423330D01*
X143740066Y-102423330D01*
X143750058Y-102453165D01*
X143769681Y-102477627D01*
X143787965Y-102489504D01*
X143798606Y-102493540D01*
X143812434Y-102496516D01*
X143831484Y-102498581D01*
X143857787Y-102499880D01*
X143893375Y-102500560D01*
X143940282Y-102500769D01*
X143943927Y-102500770D01*
X144076148Y-102500770D01*
X144076148Y-103074426D01*
X144076141Y-103178773D01*
X144076156Y-103270478D01*
X144076251Y-103350393D01*
X144076480Y-103419368D01*
X144076900Y-103478255D01*
X144077568Y-103527904D01*
X144078538Y-103569168D01*
X144079868Y-103602896D01*
X144081613Y-103629940D01*
X144083830Y-103651152D01*
X144086574Y-103667381D01*
X144089901Y-103679479D01*
X144093868Y-103688298D01*
X144098531Y-103694688D01*
X144103946Y-103699501D01*
X144110169Y-103703587D01*
X144117255Y-103707797D01*
X144117907Y-103708193D01*
X144141367Y-103717815D01*
X144166852Y-103721807D01*
X144167224Y-103721808D01*
X144192648Y-103717935D01*
X144216232Y-103708380D01*
X144216541Y-103708193D01*
X144223704Y-103703932D01*
X144229999Y-103699869D01*
X144235481Y-103695152D01*
X144240206Y-103688931D01*
X144244231Y-103680355D01*
X144247612Y-103668572D01*
X144250404Y-103652732D01*
X144252663Y-103631983D01*
X144254447Y-103605474D01*
X144255810Y-103572354D01*
X144256809Y-103531772D01*
X144257501Y-103482878D01*
X144257940Y-103424819D01*
X144258184Y-103356745D01*
X144258287Y-103277805D01*
X144258307Y-103187148D01*
X144258304Y-103129378D01*
X144818238Y-103129378D01*
X144818244Y-103225888D01*
X144818314Y-103310532D01*
X144818499Y-103384121D01*
X144818846Y-103447467D01*
X144819406Y-103501385D01*
X144820227Y-103546685D01*
X144821359Y-103584181D01*
X144822852Y-103614686D01*
X144824754Y-103639012D01*
X144827115Y-103657971D01*
X144829984Y-103672377D01*
X144833411Y-103683042D01*
X144837444Y-103690779D01*
X144842134Y-103696399D01*
X144847529Y-103700717D01*
X144853680Y-103704545D01*
X144860005Y-103708306D01*
X144865670Y-103711546D01*
X144871987Y-103714221D01*
X144880199Y-103716378D01*
X144891551Y-103718062D01*
X144907286Y-103719318D01*
X144928649Y-103720191D01*
X144956884Y-103720727D01*
X144993234Y-103720970D01*
X145038943Y-103720967D01*
X145095256Y-103720762D01*
X145163415Y-103720402D01*
X145188132Y-103720260D01*
X145493927Y-103718486D01*
X145517017Y-103693286D01*
X145531541Y-103675284D01*
X145538320Y-103658745D01*
X145540097Y-103636646D01*
X145540106Y-103634156D01*
X145538596Y-103610994D01*
X145532310Y-103594201D01*
X145518608Y-103576823D01*
X145518180Y-103576357D01*
X145491853Y-103555300D01*
X145469269Y-103546258D01*
X145456041Y-103544737D01*
X145431167Y-103543341D01*
X145396491Y-103542117D01*
X145353860Y-103541112D01*
X145305118Y-103540374D01*
X145252112Y-103539950D01*
X145221341Y-103539868D01*
X145000398Y-103539707D01*
X145000398Y-103040478D01*
X145174893Y-103040478D01*
X145228071Y-103040430D01*
X145269451Y-103040205D01*
X145300731Y-103039679D01*
X145323605Y-103038726D01*
X145339770Y-103037223D01*
X145350922Y-103035046D01*
X145358756Y-103032071D01*
X145364967Y-103028173D01*
X145367299Y-103026389D01*
X145390616Y-103000595D01*
X145402871Y-102970213D01*
X145403461Y-102938143D01*
X145391959Y-102907565D01*
X145383863Y-102895283D01*
X145375182Y-102885623D01*
X145364273Y-102878272D01*
X145349494Y-102872916D01*
X145329199Y-102869240D01*
X145301747Y-102866932D01*
X145265494Y-102865678D01*
X145218796Y-102865163D01*
X145169392Y-102865073D01*
X145000398Y-102865073D01*
X145000398Y-102858327D01*
X145763935Y-102858327D01*
X145764132Y-102977058D01*
X145764285Y-103034960D01*
X145764587Y-103142815D01*
X145764858Y-103238000D01*
X145765150Y-103321337D01*
X145765514Y-103393650D01*
X145766004Y-103455759D01*
X145766671Y-103508489D01*
X145767567Y-103552662D01*
X145768744Y-103589099D01*
X145770255Y-103618624D01*
X145772151Y-103642059D01*
X145774485Y-103660227D01*
X145777308Y-103673950D01*
X145780674Y-103684050D01*
X145784633Y-103691350D01*
X145789238Y-103696672D01*
X145794542Y-103700840D01*
X145800595Y-103704675D01*
X145806960Y-103708675D01*
X145834424Y-103719456D01*
X145865881Y-103720633D01*
X145895847Y-103712205D01*
X145902291Y-103708702D01*
X145912121Y-103702514D01*
X145920158Y-103696207D01*
X145926603Y-103688422D01*
X145931657Y-103677800D01*
X145935523Y-103662983D01*
X145938402Y-103642611D01*
X145940496Y-103615326D01*
X145942006Y-103579770D01*
X145943134Y-103534582D01*
X145944081Y-103478405D01*
X145944887Y-103421646D01*
X145948260Y-103178778D01*
X146204621Y-103178778D01*
X146333504Y-103434368D01*
X146365811Y-103497963D01*
X146395045Y-103554561D01*
X146420738Y-103603298D01*
X146442420Y-103643307D01*
X146459625Y-103673724D01*
X146471882Y-103693684D01*
X146478551Y-103702196D01*
X146507555Y-103716662D01*
X146538191Y-103719480D01*
X146567785Y-103711791D01*
X146593666Y-103694734D01*
X146613160Y-103669449D01*
X146623044Y-103640553D01*
X146623616Y-103633446D01*
X146622620Y-103624710D01*
X146619527Y-103613134D01*
X146613807Y-103597509D01*
X146604932Y-103576625D01*
X146592372Y-103549271D01*
X146575599Y-103514236D01*
X146554083Y-103470312D01*
X146527296Y-103416288D01*
X146508707Y-103378988D01*
X146482593Y-103326517D01*
X146458471Y-103277778D01*
X146436987Y-103234101D01*
X146418788Y-103196811D01*
X146404521Y-103167236D01*
X146394833Y-103146704D01*
X146390371Y-103136541D01*
X146390146Y-103135742D01*
X146395469Y-103129637D01*
X146409446Y-103118987D01*
X146429087Y-103106063D01*
X146429708Y-103105679D01*
X146479649Y-103067775D01*
X146525341Y-103019349D01*
X146564721Y-102963191D01*
X146595721Y-102902093D01*
X146610207Y-102861700D01*
X146617463Y-102828770D01*
X146621386Y-102788196D01*
X146622341Y-102747012D01*
X146620915Y-102697875D01*
X146616420Y-102658893D01*
X146610207Y-102632324D01*
X146582183Y-102561756D01*
X146542852Y-102497322D01*
X146493510Y-102440400D01*
X146435456Y-102392368D01*
X146369988Y-102354605D01*
X146334871Y-102340001D01*
X146285577Y-102321992D01*
X146055204Y-102319906D01*
X145824832Y-102317820D01*
X145800624Y-102339074D01*
X145781246Y-102361499D01*
X145769497Y-102386025D01*
X145769439Y-102386241D01*
X145768066Y-102398440D01*
X145766888Y-102424092D01*
X145765906Y-102463157D01*
X145765119Y-102515597D01*
X145764529Y-102581373D01*
X145764134Y-102660445D01*
X145763936Y-102752777D01*
X145763935Y-102858327D01*
X145000398Y-102858327D01*
X145000398Y-102500770D01*
X145233364Y-102500770D01*
X145300620Y-102500698D01*
X145355743Y-102500352D01*
X145400092Y-102499540D01*
X145435025Y-102498066D01*
X145461901Y-102495739D01*
X145482080Y-102492363D01*
X145496920Y-102487746D01*
X145507780Y-102481694D01*
X145516020Y-102474013D01*
X145522998Y-102464510D01*
X145526440Y-102459011D01*
X145537970Y-102428935D01*
X145538785Y-102397361D01*
X145529831Y-102367632D01*
X145512049Y-102343093D01*
X145489577Y-102328332D01*
X145481545Y-102325884D01*
X145469457Y-102323865D01*
X145452118Y-102322239D01*
X145428336Y-102320967D01*
X145396916Y-102320012D01*
X145356664Y-102319337D01*
X145306385Y-102318905D01*
X145244887Y-102318678D01*
X145178726Y-102318619D01*
X145104439Y-102318643D01*
X145042435Y-102318829D01*
X144991502Y-102319343D01*
X144950429Y-102320351D01*
X144918005Y-102322021D01*
X144893021Y-102324520D01*
X144874264Y-102328014D01*
X144860525Y-102332670D01*
X144850593Y-102338656D01*
X144843256Y-102346139D01*
X144837304Y-102355284D01*
X144831527Y-102366260D01*
X144831403Y-102366503D01*
X144829177Y-102371214D01*
X144827217Y-102376638D01*
X144825506Y-102383617D01*
X144824028Y-102392991D01*
X144822765Y-102405602D01*
X144821701Y-102422290D01*
X144820818Y-102443896D01*
X144820100Y-102471261D01*
X144819529Y-102505228D01*
X144819089Y-102546635D01*
X144818763Y-102596325D01*
X144818534Y-102655139D01*
X144818384Y-102723918D01*
X144818298Y-102803502D01*
X144818258Y-102894733D01*
X144818247Y-102998452D01*
X144818247Y-103020187D01*
X144818238Y-103129378D01*
X144258304Y-103129378D01*
X144258300Y-103083923D01*
X144258300Y-102500770D01*
X144390520Y-102500770D01*
X144438270Y-102500588D01*
X144474562Y-102499944D01*
X144501431Y-102498692D01*
X144520909Y-102496684D01*
X144535027Y-102493774D01*
X144545820Y-102489814D01*
X144546483Y-102489504D01*
X144572162Y-102470757D01*
X144588403Y-102445360D01*
X144595207Y-102416308D01*
X144592574Y-102386595D01*
X144580504Y-102359214D01*
X144558996Y-102337159D01*
X144546483Y-102329885D01*
X144540109Y-102327374D01*
X144531697Y-102325262D01*
X144520117Y-102323515D01*
X144504234Y-102322098D01*
X144482918Y-102320979D01*
X144455034Y-102320123D01*
X144419451Y-102319497D01*
X144375036Y-102319068D01*
X144320657Y-102318800D01*
X144255180Y-102318662D01*
X144177475Y-102318619D01*
X144167674Y-102318619D01*
X144085442Y-102318633D01*
X144015611Y-102318749D01*
X143957090Y-102319076D01*
X143908788Y-102319725D01*
X143869613Y-102320805D01*
X143838475Y-102322426D01*
X143814283Y-102324697D01*
X143795944Y-102327728D01*
X143782368Y-102331630D01*
X143772463Y-102336511D01*
X143765139Y-102342482D01*
X143759303Y-102349653D01*
X143753865Y-102358132D01*
X143752497Y-102360377D01*
X143740585Y-102391331D01*
X143740066Y-102423330D01*
X142966847Y-102423330D01*
X142966150Y-102409052D01*
X142964994Y-102394303D01*
X142963615Y-102383430D01*
X142961992Y-102375556D01*
X142960105Y-102369808D01*
X142957935Y-102365312D01*
X142956148Y-102362298D01*
X142935226Y-102339832D01*
X142906920Y-102324251D01*
X142877652Y-102318644D01*
X142852810Y-102324205D01*
X142827290Y-102338718D01*
X142806348Y-102359017D01*
X142803142Y-102363537D01*
X142801089Y-102367212D01*
X142799281Y-102372136D01*
X142797701Y-102379132D01*
X142796334Y-102389026D01*
X142795165Y-102402641D01*
X142794179Y-102420803D01*
X142793359Y-102444336D01*
X142792692Y-102474065D01*
X142792161Y-102510814D01*
X142791750Y-102555409D01*
X142791446Y-102608673D01*
X142791231Y-102671431D01*
X142791092Y-102744508D01*
X142791012Y-102828729D01*
X142790976Y-102924917D01*
X142790969Y-103016568D01*
X142790962Y-103126078D01*
X142564927Y-103126078D01*
X142564939Y-103061134D01*
X142564941Y-103021035D01*
X142564940Y-102914076D01*
X142564917Y-102819779D01*
X142564854Y-102737316D01*
X142564735Y-102665855D01*
X142564542Y-102604567D01*
X142564258Y-102552622D01*
X142563866Y-102509191D01*
X142563350Y-102473442D01*
X142562691Y-102444547D01*
X142561873Y-102421675D01*
X142560879Y-102403996D01*
X142559692Y-102390681D01*
X142558294Y-102380899D01*
X142556668Y-102373821D01*
X142554798Y-102368616D01*
X142552666Y-102364455D01*
X142551367Y-102362298D01*
X142530445Y-102339832D01*
X142502139Y-102324251D01*
X142472871Y-102318644D01*
X142448029Y-102324205D01*
X142422509Y-102338718D01*
X142401567Y-102359017D01*
X142398361Y-102363537D01*
X142396308Y-102367212D01*
X142394500Y-102372136D01*
X142392920Y-102379132D01*
X142391553Y-102389026D01*
X142390384Y-102402641D01*
X142389398Y-102420803D01*
X142388579Y-102444336D01*
X142387911Y-102474065D01*
X142387380Y-102510814D01*
X142386970Y-102555409D01*
X142386665Y-102608673D01*
X142386451Y-102671431D01*
X142386311Y-102744508D01*
X142386231Y-102828729D01*
X142386195Y-102924917D01*
X142386188Y-103016568D01*
X142131212Y-103016568D01*
X142145358Y-103000971D01*
X142157523Y-102971480D01*
X142158890Y-102940748D01*
X142149546Y-102911607D01*
X142129580Y-102886890D01*
X142117693Y-102878292D01*
X142111291Y-102874795D01*
X142103793Y-102871977D01*
X142093762Y-102869764D01*
X142079764Y-102868083D01*
X142060364Y-102866863D01*
X142034126Y-102866028D01*
X141999616Y-102865508D01*
X141955398Y-102865228D01*
X141900037Y-102865116D01*
X141858286Y-102865098D01*
X141620478Y-102865073D01*
X141620478Y-102500770D01*
X141853894Y-102500770D01*
X141917442Y-102500704D01*
X141968938Y-102500463D01*
X142009821Y-102499985D01*
X142041531Y-102499207D01*
X142065509Y-102498064D01*
X142083193Y-102496495D01*
X142096024Y-102494437D01*
X142105442Y-102491825D01*
X142111051Y-102489504D01*
X142136687Y-102470494D01*
X142153289Y-102443942D01*
X142159975Y-102413055D01*
X142155866Y-102381043D01*
X142146520Y-102360377D01*
X142140386Y-102350772D01*
X142133922Y-102342765D01*
X142125912Y-102336212D01*
X142115141Y-102330966D01*
X142100393Y-102326882D01*
X142080453Y-102323815D01*
X142054106Y-102321620D01*
X142020136Y-102320150D01*
X141977328Y-102319260D01*
X141924467Y-102318806D01*
X141860337Y-102318640D01*
X141797681Y-102318619D01*
X141723574Y-102318642D01*
X141661743Y-102318825D01*
X141610969Y-102319334D01*
X141570035Y-102320337D01*
X141537724Y-102322000D01*
X141512817Y-102324491D01*
X141494098Y-102327976D01*
X141480349Y-102332624D01*
X141470352Y-102338601D01*
X141462889Y-102346074D01*
X141456744Y-102355210D01*
X141450698Y-102366177D01*
X141450654Y-102366259D01*
X141448567Y-102370676D01*
X141446730Y-102376218D01*
X141445126Y-102383719D01*
X141443739Y-102394015D01*
X141442554Y-102407939D01*
X141441555Y-102426327D01*
X141440727Y-102450012D01*
X141440053Y-102479830D01*
X141439517Y-102516615D01*
X141439104Y-102561201D01*
X141438799Y-102614423D01*
X141438585Y-102677115D01*
X141438446Y-102750113D01*
X141438368Y-102834250D01*
X141438333Y-102930361D01*
X141438326Y-103018664D01*
X140162138Y-103018664D01*
X140142513Y-102987226D01*
X140226025Y-102863746D01*
X140252903Y-102823154D01*
X140277181Y-102784863D01*
X140297595Y-102750979D01*
X140312881Y-102723608D01*
X140321777Y-102704854D01*
X140322398Y-102703160D01*
X140332185Y-102660320D01*
X140335229Y-102611638D01*
X140331627Y-102562700D01*
X140321474Y-102519089D01*
X140319116Y-102512640D01*
X140290375Y-102456800D01*
X140251516Y-102408889D01*
X140204086Y-102370062D01*
X140149635Y-102341473D01*
X140089713Y-102324276D01*
X140061337Y-102320559D01*
X140002668Y-102322004D01*
X139947047Y-102335434D01*
X139895742Y-102359458D01*
X139850022Y-102392687D01*
X139811155Y-102433730D01*
X139780409Y-102481198D01*
X139759054Y-102533699D01*
X139748357Y-102589845D01*
X139749588Y-102648245D01*
X139751399Y-102660200D01*
X139756178Y-102682837D01*
X139762999Y-102705250D01*
X139772802Y-102729346D01*
X139786529Y-102757028D01*
X139805122Y-102790203D01*
X139829521Y-102830776D01*
X139859014Y-102878032D01*
X139879243Y-102910502D01*
X139896664Y-102939247D01*
X139910090Y-102962240D01*
X139918332Y-102977460D01*
X139920398Y-102982605D01*
X139916697Y-102989873D01*
X139906260Y-103006688D01*
X139890083Y-103031540D01*
X139869162Y-103062920D01*
X139844493Y-103099318D01*
X139817074Y-103139223D01*
X139816045Y-103140710D01*
X139785969Y-103184834D01*
X139758484Y-103226410D01*
X139734708Y-103263663D01*
X139715755Y-103294818D01*
X139702743Y-103318099D01*
X139697614Y-103329158D01*
X139681859Y-103389482D01*
X139679191Y-103449708D01*
X138857323Y-103449708D01*
X138848586Y-103422779D01*
X138826900Y-103356323D01*
X138802962Y-103283313D01*
X138777063Y-103204642D01*
X138749492Y-103121200D01*
X138720538Y-103033880D01*
X138705994Y-102990129D01*
X138671098Y-102885259D01*
X138640169Y-102792431D01*
X138612917Y-102710884D01*
X138589050Y-102639856D01*
X138568276Y-102578586D01*
X138550304Y-102526314D01*
X138534843Y-102482278D01*
X138521602Y-102445716D01*
X138510288Y-102415868D01*
X138500612Y-102391973D01*
X138492280Y-102373270D01*
X138485002Y-102358997D01*
X138478487Y-102348393D01*
X138472442Y-102340697D01*
X138466578Y-102335149D01*
X138460602Y-102330986D01*
X138454222Y-102327448D01*
X138451824Y-102326208D01*
X138424124Y-102318957D01*
X138393780Y-102322174D01*
X138365236Y-102334846D01*
X138347655Y-102349973D01*
X138344023Y-102358021D01*
X138336463Y-102377994D01*
X138325278Y-102409008D01*
X138310772Y-102450174D01*
X138293249Y-102500609D01*
X138273015Y-102559426D01*
X138250372Y-102625739D01*
X138225624Y-102698662D01*
X138199077Y-102777309D01*
X138171034Y-102860794D01*
X138141799Y-102948232D01*
X138126210Y-102995021D01*
X138091072Y-103100595D01*
X138059963Y-103194137D01*
X138032669Y-103276420D01*
X138008976Y-103348221D01*
X137988671Y-103410315D01*
X137971539Y-103463477D01*
X137957366Y-103508483D01*
X137945940Y-103546107D01*
X137937045Y-103577126D01*
X137930469Y-103602313D01*
X137925997Y-103622445D01*
X137923415Y-103638297D01*
X137922510Y-103650644D01*
X137692174Y-103650644D01*
X137693083Y-103641142D01*
X137694113Y-103624114D01*
X137694968Y-103601984D01*
X137695665Y-103573922D01*
X137696220Y-103539098D01*
X137696649Y-103496682D01*
X137696968Y-103445845D01*
X137697193Y-103385757D01*
X137697340Y-103315589D01*
X137697425Y-103234510D01*
X137697466Y-103141691D01*
X137697476Y-103036303D01*
X137697476Y-103023612D01*
X137697465Y-102916529D01*
X137697419Y-102822111D01*
X137697325Y-102739529D01*
X137697168Y-102667957D01*
X137696932Y-102606564D01*
X137696602Y-102554524D01*
X137696163Y-102511009D01*
X137695600Y-102475190D01*
X137694897Y-102446239D01*
X137694041Y-102423329D01*
X137693016Y-102405631D01*
X137691806Y-102392317D01*
X137690397Y-102382560D01*
X137688773Y-102375531D01*
X137686920Y-102370402D01*
X137685530Y-102367593D01*
X137664948Y-102342186D01*
X137638258Y-102326528D01*
X137608460Y-102320731D01*
X137578555Y-102324905D01*
X137551542Y-102339160D01*
X137531420Y-102361930D01*
X137528907Y-102366570D01*
X137526750Y-102372303D01*
X137524921Y-102380128D01*
X137523393Y-102391047D01*
X137522139Y-102406057D01*
X137521132Y-102426158D01*
X137520345Y-102452351D01*
X137519751Y-102485634D01*
X137519323Y-102527006D01*
X137519033Y-102577468D01*
X137518856Y-102638020D01*
X137518763Y-102709659D01*
X137518727Y-102793387D01*
X137518723Y-102831004D01*
X137518629Y-102916684D01*
X137518364Y-102995008D01*
X137517937Y-103065210D01*
X137517361Y-103126521D01*
X137516645Y-103178177D01*
X137515801Y-103219408D01*
X137514838Y-103249449D01*
X137513768Y-103267532D01*
X137512601Y-103272891D01*
X137512600Y-103272889D01*
X137508438Y-103266103D01*
X137498262Y-103248420D01*
X137482583Y-103220754D01*
X137461912Y-103184020D01*
X137436759Y-103139130D01*
X137407636Y-103086999D01*
X137375053Y-103028541D01*
X137339522Y-102964669D01*
X137301554Y-102896296D01*
X137261659Y-102824337D01*
X137252461Y-102807729D01*
X137203539Y-102719624D01*
X137158692Y-102639346D01*
X137118201Y-102567382D01*
X137082347Y-102504220D01*
X137051411Y-102450348D01*
X137025674Y-102406255D01*
X137005416Y-102372428D01*
X136990919Y-102349356D01*
X136982462Y-102337526D01*
X136981158Y-102336252D01*
X136952490Y-102322827D01*
X136921154Y-102320578D01*
X136890687Y-102328699D01*
X136864624Y-102346383D01*
X136849644Y-102366259D01*
X136847558Y-102370676D01*
X136845721Y-102376218D01*
X136844116Y-102383719D01*
X136842730Y-102394015D01*
X136841545Y-102407939D01*
X136840546Y-102426327D01*
X136839718Y-102450012D01*
X136839043Y-102479830D01*
X136838508Y-102516615D01*
X136838095Y-102561201D01*
X136837790Y-102614423D01*
X136837575Y-102677115D01*
X136837437Y-102750113D01*
X136837358Y-102834250D01*
X136837324Y-102930361D01*
X136837317Y-103018664D01*
X136837308Y-103127997D01*
X136068233Y-103127997D01*
X136068233Y-102381331D01*
X136052834Y-102358408D01*
X136030019Y-102336002D01*
X136008983Y-102325573D01*
X135988633Y-102319755D01*
X135972322Y-102319773D01*
X135952079Y-102325573D01*
X135923165Y-102341900D01*
X135908227Y-102358408D01*
X135892828Y-102381331D01*
X134969517Y-102381331D01*
X134945169Y-102371663D01*
X134888232Y-102354459D01*
X134837025Y-102341854D01*
X134797959Y-102333635D01*
X134763506Y-102328137D01*
X134728685Y-102324828D01*
X134688513Y-102323175D01*
X134658247Y-102322745D01*
X134617769Y-102322684D01*
X134587540Y-102323445D01*
X134564325Y-102325364D01*
X134544890Y-102328776D01*
X134525999Y-102334017D01*
X134515288Y-102337587D01*
X134451153Y-102366607D01*
X134394952Y-102406157D01*
X134347583Y-102455251D01*
X134309945Y-102512906D01*
X134282937Y-102578138D01*
X134277224Y-102598323D01*
X134267167Y-102664228D01*
X133370920Y-102664228D01*
X133371620Y-102652600D01*
X133384138Y-102610307D01*
X133406214Y-102571677D01*
X133437515Y-102538942D01*
X133467516Y-102519253D01*
X133500686Y-102507922D01*
X133543974Y-102502451D01*
X133595418Y-102502689D01*
X133653059Y-102508484D01*
X133714935Y-102519683D01*
X133779085Y-102536134D01*
X133809954Y-102545801D01*
X133842697Y-102556389D01*
X133865798Y-102562869D01*
X133882288Y-102565758D01*
X133895199Y-102565574D01*
X133907563Y-102562833D01*
X133908389Y-102562588D01*
X133938455Y-102547726D01*
X133960041Y-102525402D01*
X133972707Y-102498299D01*
X133976013Y-102469105D01*
X133969519Y-102440505D01*
X133952786Y-102415184D01*
X133934864Y-102400921D01*
X133913911Y-102390694D01*
X133882994Y-102378819D01*
X133845374Y-102366320D01*
X133804314Y-102354220D01*
X133763074Y-102343544D01*
X133727251Y-102335758D01*
X133673677Y-102327402D01*
X133618373Y-102322168D01*
X133564818Y-102320162D01*
X133516495Y-102321491D01*
X133476882Y-102326260D01*
X133469203Y-102327894D01*
X133404824Y-102349222D01*
X133347291Y-102381552D01*
X133294786Y-102425862D01*
X133250234Y-102479329D01*
X133217418Y-102537862D01*
X133196338Y-102599916D01*
X133186993Y-102663947D01*
X132647205Y-102663947D01*
X132632957Y-102621610D01*
X132611950Y-102559456D01*
X132593030Y-102503789D01*
X132576551Y-102455680D01*
X132562871Y-102416199D01*
X132552344Y-102386417D01*
X132545325Y-102367405D01*
X132542352Y-102360461D01*
X132522404Y-102339834D01*
X132495233Y-102324804D01*
X132466912Y-102318682D01*
X132465683Y-102318669D01*
X132437027Y-102324319D01*
X132410506Y-102339234D01*
X132391280Y-102360362D01*
X132389354Y-102363858D01*
X132384969Y-102374732D01*
X132376841Y-102397149D01*
X132365328Y-102430033D01*
X132350784Y-102472307D01*
X132333566Y-102522891D01*
X132314028Y-102580709D01*
X132292528Y-102644684D01*
X132269421Y-102713737D01*
X132245064Y-102786792D01*
X132219810Y-102862769D01*
X132194018Y-102940593D01*
X132168042Y-103019185D01*
X132142239Y-103097468D01*
X132116964Y-103174364D01*
X132092573Y-103248795D01*
X132069422Y-103319685D01*
X132047867Y-103385954D01*
X132028264Y-103446527D01*
X132010969Y-103500325D01*
X131996337Y-103546271D01*
X131984725Y-103583286D01*
X131976488Y-103610294D01*
X131971982Y-103626218D01*
X131971219Y-103629958D01*
X131065472Y-103629958D01*
X131067248Y-103601516D01*
X131068392Y-103562442D01*
X131068969Y-103513363D01*
X131069170Y-103452929D01*
X131069189Y-103411744D01*
X131069189Y-103175405D01*
X131228441Y-103175405D01*
X131284760Y-103175181D01*
X131329498Y-103174441D01*
X131364560Y-103173083D01*
X131391851Y-103171007D01*
X131413277Y-103168110D01*
X131429145Y-103164710D01*
X131492225Y-103141888D01*
X131552607Y-103107586D01*
X131607860Y-103063816D01*
X131655554Y-103012587D01*
X131693256Y-102955912D01*
X131701719Y-102939283D01*
X131722419Y-102891651D01*
X131735913Y-102849208D01*
X131743399Y-102806585D01*
X131746074Y-102758415D01*
X131746104Y-102740265D01*
X131744935Y-102702478D01*
X131741497Y-102671978D01*
X131734820Y-102642623D01*
X131726423Y-102615620D01*
X131696392Y-102545944D01*
X131655771Y-102483532D01*
X131605620Y-102429615D01*
X131546997Y-102385422D01*
X131511075Y-102365485D01*
X131485557Y-102353254D01*
X131462708Y-102343354D01*
X131440716Y-102335541D01*
X131417766Y-102329567D01*
X131392045Y-102325188D01*
X131361737Y-102322159D01*
X131325029Y-102320233D01*
X131280107Y-102319165D01*
X131225157Y-102318709D01*
X131164948Y-102318619D01*
X131101706Y-102318677D01*
X131050513Y-102319028D01*
X131009925Y-102319937D01*
X130978498Y-102321668D01*
X130954789Y-102324488D01*
X130937354Y-102328660D01*
X130924749Y-102334450D01*
X130915531Y-102342122D01*
X130908256Y-102351942D01*
X130901479Y-102364175D01*
X130899889Y-102367261D01*
X130897713Y-102371908D01*
X130895798Y-102377409D01*
X130894127Y-102384602D01*
X130892682Y-102394328D01*
X130891448Y-102407426D01*
X130890408Y-102424735D01*
X130889545Y-102447096D01*
X130888843Y-102475348D01*
X130888286Y-102510331D01*
X130887856Y-102552884D01*
X130887538Y-102603848D01*
X130887314Y-102664060D01*
X130887169Y-102734363D01*
X130887086Y-102815594D01*
X130887048Y-102908594D01*
X130887038Y-103014203D01*
X130887038Y-103020187D01*
X130887029Y-103129386D01*
X130663594Y-103129386D01*
X130663524Y-103088359D01*
X130663096Y-103009977D01*
X130663035Y-103000615D01*
X130661035Y-102693041D01*
X130640221Y-102634902D01*
X130607002Y-102561239D01*
X130563308Y-102495874D01*
X130509700Y-102439347D01*
X130446742Y-102392194D01*
X130374995Y-102354954D01*
X130330464Y-102338396D01*
X130315939Y-102333955D01*
X130301682Y-102330425D01*
X130285884Y-102327674D01*
X130266733Y-102325570D01*
X130242419Y-102323984D01*
X130211129Y-102322782D01*
X130171053Y-102321833D01*
X130120381Y-102321007D01*
X130084223Y-102320516D01*
X130022398Y-102319799D01*
X129972535Y-102319606D01*
X129933106Y-102320197D01*
X129902583Y-102321833D01*
X129879438Y-102324775D01*
X129862143Y-102329284D01*
X129849169Y-102335622D01*
X129838989Y-102344049D01*
X129830075Y-102354827D01*
X129822936Y-102365154D01*
X129807622Y-102388077D01*
X129807622Y-103021571D01*
X129807617Y-103129900D01*
X129585004Y-103129900D01*
X129585003Y-103127338D01*
X129584993Y-103019928D01*
X129584975Y-102912131D01*
X129584914Y-102817018D01*
X129584795Y-102733779D01*
X129584605Y-102661605D01*
X129584332Y-102599686D01*
X129583962Y-102547214D01*
X129583481Y-102503379D01*
X129582877Y-102467371D01*
X129582136Y-102438382D01*
X129581245Y-102415602D01*
X129580191Y-102398222D01*
X129578960Y-102385433D01*
X129577540Y-102376425D01*
X129575916Y-102370389D01*
X129574304Y-102366884D01*
X129551844Y-102340736D01*
X129523913Y-102325409D01*
X129493233Y-102321001D01*
X129462525Y-102327611D01*
X129434510Y-102345339D01*
X129420187Y-102361272D01*
X129417414Y-102365336D01*
X129415025Y-102370082D01*
X129412982Y-102376508D01*
X129411248Y-102385614D01*
X129409786Y-102398399D01*
X129408558Y-102415862D01*
X129407528Y-102439003D01*
X129406658Y-102468819D01*
X129405910Y-102506311D01*
X129405248Y-102552478D01*
X129404635Y-102608319D01*
X129404032Y-102674832D01*
X129403404Y-102753018D01*
X129402842Y-102826706D01*
X129399468Y-103273098D01*
X129157041Y-102834650D01*
X129117433Y-102763058D01*
X129079415Y-102694419D01*
X129043536Y-102629723D01*
X129010349Y-102569961D01*
X128980405Y-102516122D01*
X128954255Y-102469197D01*
X128932450Y-102430177D01*
X128915542Y-102400051D01*
X128904082Y-102379811D01*
X128898754Y-102370658D01*
X128875579Y-102343509D01*
X128847692Y-102326482D01*
X128817656Y-102319744D01*
X128788035Y-102323465D01*
X128761393Y-102337811D01*
X128741815Y-102360377D01*
X128739534Y-102364317D01*
X128737525Y-102368774D01*
X128735772Y-102374573D01*
X128734262Y-102382538D01*
X128732978Y-102393493D01*
X128731908Y-102408264D01*
X128731035Y-102427673D01*
X128730345Y-102452546D01*
X128729824Y-102483707D01*
X128729456Y-102521979D01*
X128729227Y-102568188D01*
X128729122Y-102623158D01*
X128173792Y-102623158D01*
X128158736Y-102578733D01*
X128140768Y-102526446D01*
X128125310Y-102482396D01*
X128112070Y-102445821D01*
X128100757Y-102415962D01*
X128091080Y-102392056D01*
X128082748Y-102373342D01*
X128075469Y-102359060D01*
X128068952Y-102348448D01*
X128062906Y-102340746D01*
X128057039Y-102335192D01*
X128051060Y-102331025D01*
X128044677Y-102327484D01*
X128042209Y-102326208D01*
X128014509Y-102318957D01*
X127984166Y-102322174D01*
X127955621Y-102334846D01*
X127938040Y-102349973D01*
X127934408Y-102358021D01*
X127926848Y-102377994D01*
X127915663Y-102409008D01*
X127901157Y-102450174D01*
X127883635Y-102500609D01*
X127863400Y-102559426D01*
X127840757Y-102625739D01*
X127816010Y-102698662D01*
X127789462Y-102777309D01*
X127761419Y-102860794D01*
X127732184Y-102948232D01*
X127716595Y-102995021D01*
X127681457Y-103100595D01*
X127650348Y-103194137D01*
X127623054Y-103276420D01*
X127599361Y-103348221D01*
X127579056Y-103410315D01*
X127561924Y-103463477D01*
X127547751Y-103508483D01*
X127536325Y-103546107D01*
X127527430Y-103577126D01*
X127520854Y-103602313D01*
X127516382Y-103622445D01*
X127513801Y-103638297D01*
X127512896Y-103650644D01*
X127090566Y-103650644D01*
X127109483Y-103639388D01*
X127165089Y-103591025D01*
X127212591Y-103532388D01*
X127244260Y-103478496D01*
X127268314Y-103416786D01*
X127282050Y-103349306D01*
X127285387Y-103279074D01*
X127278243Y-103209111D01*
X127260538Y-103142433D01*
X127253734Y-103124900D01*
X127227830Y-103074752D01*
X127193624Y-103025983D01*
X127154377Y-102982718D01*
X127116551Y-102951275D01*
X127100406Y-102940033D01*
X127130043Y-102908964D01*
X127161180Y-102872524D01*
X127183594Y-102836177D01*
X127200711Y-102794152D01*
X127203634Y-102785092D01*
X127212397Y-102744688D01*
X127216670Y-102697424D01*
X127216383Y-102648713D01*
X127211467Y-102603971D01*
X127206262Y-102581264D01*
X127181831Y-102520404D01*
X127146637Y-102464636D01*
X127102441Y-102415619D01*
X127051007Y-102375012D01*
X126994096Y-102344473D01*
X126935033Y-102325979D01*
X126917616Y-102323858D01*
X126888310Y-102322032D01*
X126848716Y-102320549D01*
X126800433Y-102319459D01*
X126745064Y-102318811D01*
X126695537Y-102318644D01*
X126637474Y-102318695D01*
X126591322Y-102318897D01*
X126555503Y-102319344D01*
X126528436Y-102320132D01*
X126508541Y-102321356D01*
X126494237Y-102323112D01*
X126483944Y-102325495D01*
X126476082Y-102328600D01*
X126469461Y-102332284D01*
X126462578Y-102336340D01*
X126456494Y-102340149D01*
X126451161Y-102344524D01*
X126446530Y-102350276D01*
X126442550Y-102358218D01*
X126439173Y-102369163D01*
X126436349Y-102383923D01*
X126434030Y-102403311D01*
X126432165Y-102428138D01*
X126430705Y-102459217D01*
X126429601Y-102497360D01*
X126428804Y-102543381D01*
X126428264Y-102598091D01*
X126427933Y-102662303D01*
X126427760Y-102736828D01*
X126427697Y-102822480D01*
X126427694Y-102920071D01*
X126427702Y-103020239D01*
X126427693Y-103129409D01*
X125699097Y-103129409D01*
X125699097Y-102076256D01*
X125713364Y-102038124D01*
G37*
G36*
X140034436Y-103160676D02*
G01*
X140045103Y-103175590D01*
X140060007Y-103198048D01*
X140077926Y-103226051D01*
X140097640Y-103257599D01*
X140117928Y-103290692D01*
X140137568Y-103323331D01*
X140155340Y-103353516D01*
X140170024Y-103379248D01*
X140180398Y-103398527D01*
X140185241Y-103409354D01*
X140185294Y-103410933D01*
X140178147Y-103416236D01*
X140162323Y-103428102D01*
X140139910Y-103444961D01*
X140112996Y-103465243D01*
X140102334Y-103473287D01*
X140070167Y-103496618D01*
X140040514Y-103516379D01*
X140015938Y-103530954D01*
X139999006Y-103538725D01*
X139997981Y-103539026D01*
X139979962Y-103543860D01*
X139968659Y-103545408D01*
X139957810Y-103543416D01*
X139941156Y-103537631D01*
X139938311Y-103536613D01*
X139902792Y-103517715D01*
X139877275Y-103490589D01*
X139862759Y-103456598D01*
X139859681Y-103429347D01*
X139860488Y-103416082D01*
X139863703Y-103403000D01*
X139870518Y-103387700D01*
X139882126Y-103367779D01*
X139899719Y-103340838D01*
X139914271Y-103319384D01*
X139936891Y-103286210D01*
X139959571Y-103252823D01*
X139979861Y-103222838D01*
X139995310Y-103199872D01*
X139996914Y-103197471D01*
X140010926Y-103177253D01*
X140022259Y-103162319D01*
X140028768Y-103155466D01*
X140029225Y-103155306D01*
X140034436Y-103160676D01*
G37*
%TO.C,L5*%
X150941422Y-92910000D02*
X151458578Y-92910000D01*
X150941422Y-91490000D02*
X151458578Y-91490000D01*
%TO.C,G\u002A\u002A\u002A*%
G36*
X131930249Y-87534536D02*
G01*
X131930284Y-87374908D01*
X131930429Y-87216497D01*
X131930687Y-87060791D01*
X131931055Y-86909281D01*
X131931534Y-86763455D01*
X131932124Y-86624802D01*
X131932825Y-86494813D01*
X131933638Y-86374975D01*
X131934561Y-86266779D01*
X131935595Y-86171713D01*
X131936740Y-86091267D01*
X131937996Y-86026931D01*
X131939364Y-85980192D01*
X131940842Y-85952542D01*
X131941411Y-85947484D01*
X131958993Y-85862507D01*
X131982186Y-85796326D01*
X132011624Y-85747208D01*
X132017169Y-85740574D01*
X132048778Y-85704574D01*
X140451221Y-85704574D01*
X140482830Y-85740574D01*
X140513368Y-85787023D01*
X140537556Y-85850247D01*
X140556027Y-85931978D01*
X140558588Y-85947484D01*
X140560107Y-85967771D01*
X140561515Y-86007691D01*
X140562812Y-86065755D01*
X140563998Y-86140474D01*
X140565073Y-86230358D01*
X140566037Y-86333918D01*
X140566889Y-86449664D01*
X140567631Y-86576109D01*
X140568262Y-86711761D01*
X140568782Y-86855133D01*
X140569191Y-87004734D01*
X140569489Y-87159076D01*
X140569675Y-87316669D01*
X140569751Y-87476025D01*
X140569716Y-87635652D01*
X140569570Y-87794064D01*
X140569313Y-87949769D01*
X140568945Y-88101280D01*
X140568465Y-88247106D01*
X140567875Y-88385758D01*
X140567174Y-88515748D01*
X140566362Y-88635586D01*
X140565439Y-88743782D01*
X140564404Y-88838848D01*
X140563259Y-88919294D01*
X140562003Y-88983630D01*
X140560636Y-89030368D01*
X140559158Y-89058019D01*
X140558588Y-89063077D01*
X140541006Y-89148053D01*
X140517814Y-89214234D01*
X140488375Y-89263352D01*
X140482830Y-89269986D01*
X140451221Y-89305987D01*
X132048778Y-89305987D01*
X132017169Y-89269986D01*
X131986631Y-89223538D01*
X131962443Y-89160314D01*
X131943973Y-89078583D01*
X131941411Y-89063077D01*
X131939892Y-89042790D01*
X131938484Y-89002869D01*
X131937187Y-88944805D01*
X131936002Y-88870087D01*
X131934927Y-88780203D01*
X131933963Y-88676643D01*
X131933110Y-88560896D01*
X131932368Y-88434452D01*
X131931737Y-88298799D01*
X131931217Y-88155428D01*
X131930809Y-88005826D01*
X131930511Y-87851484D01*
X131930446Y-87795672D01*
X132965393Y-87795672D01*
X132965448Y-87928976D01*
X132965684Y-88044937D01*
X132966192Y-88144818D01*
X132967061Y-88229877D01*
X132968381Y-88301376D01*
X132970242Y-88360575D01*
X132972735Y-88408734D01*
X132975949Y-88447114D01*
X132979975Y-88476974D01*
X132984902Y-88499575D01*
X132990821Y-88516177D01*
X132997822Y-88528042D01*
X133005994Y-88536428D01*
X133015428Y-88542596D01*
X133026214Y-88547808D01*
X133038442Y-88553322D01*
X133042884Y-88555460D01*
X133054435Y-88560805D01*
X133066830Y-88565196D01*
X133082152Y-88568728D01*
X133102483Y-88571493D01*
X133129906Y-88573585D01*
X133166502Y-88575098D01*
X133214355Y-88576126D01*
X133275547Y-88576761D01*
X133352160Y-88577097D01*
X133446277Y-88577228D01*
X133528156Y-88577247D01*
X133642029Y-88577115D01*
X133736572Y-88576678D01*
X133813580Y-88575881D01*
X133874843Y-88574670D01*
X133922154Y-88572990D01*
X133957305Y-88570787D01*
X133982090Y-88568006D01*
X133998299Y-88564592D01*
X134003416Y-88562775D01*
X134046853Y-88534874D01*
X134076409Y-88496877D01*
X134091868Y-88453035D01*
X134093015Y-88407601D01*
X134079632Y-88364824D01*
X134051504Y-88328958D01*
X134016386Y-88307306D01*
X134002396Y-88303052D01*
X133981512Y-88299629D01*
X133951646Y-88296957D01*
X133910713Y-88294958D01*
X133856626Y-88293552D01*
X133787301Y-88292661D01*
X133700649Y-88292204D01*
X133615287Y-88292099D01*
X133250582Y-88292099D01*
X133250350Y-87397027D01*
X133250293Y-87238585D01*
X133250189Y-87099876D01*
X133250007Y-86979509D01*
X133249719Y-86876093D01*
X133249294Y-86788238D01*
X133248701Y-86714553D01*
X133247912Y-86653648D01*
X133246895Y-86604133D01*
X133245621Y-86564617D01*
X133244060Y-86533709D01*
X133242405Y-86512844D01*
X134451942Y-86512844D01*
X134452394Y-86523684D01*
X134454683Y-86535714D01*
X134459714Y-86550440D01*
X134468396Y-86569365D01*
X134481636Y-86593995D01*
X134500341Y-86625835D01*
X134525419Y-86666388D01*
X134557778Y-86717160D01*
X134598324Y-86779656D01*
X134647966Y-86855380D01*
X134707611Y-86945837D01*
X134769752Y-87039817D01*
X135088253Y-87521156D01*
X135088253Y-87999330D01*
X135088238Y-88115618D01*
X135088347Y-88212676D01*
X135088812Y-88292393D01*
X135089866Y-88356661D01*
X135091741Y-88407371D01*
X135094670Y-88446414D01*
X135098885Y-88475681D01*
X135104619Y-88497062D01*
X135112104Y-88512450D01*
X135121572Y-88523735D01*
X135133256Y-88532808D01*
X135147388Y-88541560D01*
X135155494Y-88546437D01*
X135203710Y-88564115D01*
X135255180Y-88562769D01*
X135289910Y-88550339D01*
X135317516Y-88529607D01*
X135341186Y-88501722D01*
X135342153Y-88500173D01*
X135347046Y-88491289D01*
X135351099Y-88480853D01*
X135354391Y-88466914D01*
X135357000Y-88447522D01*
X135359006Y-88420726D01*
X135360488Y-88384575D01*
X135361525Y-88337119D01*
X135362196Y-88276406D01*
X135362581Y-88200487D01*
X135362759Y-88107410D01*
X135362808Y-87995225D01*
X135362808Y-87991220D01*
X135362824Y-87797408D01*
X136355544Y-87797408D01*
X136355593Y-87931010D01*
X136355815Y-88047254D01*
X136356302Y-88147393D01*
X136357142Y-88232684D01*
X136358424Y-88304380D01*
X136360239Y-88363736D01*
X136362675Y-88412006D01*
X136365822Y-88450446D01*
X136369769Y-88480311D01*
X136374606Y-88502853D01*
X136380423Y-88519329D01*
X136387308Y-88530993D01*
X136395352Y-88539100D01*
X136404643Y-88544904D01*
X136415271Y-88549660D01*
X136427325Y-88554622D01*
X136432883Y-88557092D01*
X136486724Y-88571631D01*
X136538973Y-88565523D01*
X136574204Y-88548515D01*
X136585017Y-88541423D01*
X136594341Y-88534323D01*
X136602286Y-88525688D01*
X136608962Y-88513990D01*
X136614480Y-88497704D01*
X136618950Y-88475303D01*
X136622482Y-88445259D01*
X136625187Y-88406046D01*
X136627174Y-88356137D01*
X136628554Y-88294006D01*
X136629437Y-88218125D01*
X136629934Y-88126968D01*
X136630155Y-88019008D01*
X136630209Y-87892718D01*
X136630208Y-87773006D01*
X136630324Y-87621545D01*
X136630683Y-87490490D01*
X136631294Y-87379126D01*
X136632171Y-87286740D01*
X136633324Y-87212615D01*
X136634767Y-87156037D01*
X136636509Y-87116292D01*
X136638563Y-87092664D01*
X136640942Y-87084439D01*
X136641541Y-87084655D01*
X136648357Y-87095485D01*
X136664606Y-87123354D01*
X136689480Y-87166830D01*
X136722172Y-87224476D01*
X136761875Y-87294858D01*
X136807780Y-87376543D01*
X136859082Y-87468094D01*
X136914972Y-87568078D01*
X136974643Y-87675060D01*
X137037288Y-87787606D01*
X137050792Y-87811896D01*
X137128058Y-87950531D01*
X137198758Y-88076616D01*
X137262470Y-88189420D01*
X137318771Y-88288214D01*
X137367239Y-88372265D01*
X137407453Y-88440842D01*
X137438989Y-88493216D01*
X137461425Y-88528655D01*
X137474340Y-88546428D01*
X137476028Y-88548023D01*
X137521511Y-88569696D01*
X137570380Y-88573289D01*
X137617364Y-88559988D01*
X137657188Y-88530981D01*
X137677604Y-88502675D01*
X137680861Y-88495778D01*
X137683731Y-88487123D01*
X137686238Y-88475407D01*
X137688406Y-88459326D01*
X137689049Y-88451778D01*
X138045491Y-88451778D01*
X138049098Y-88467951D01*
X138055531Y-88484248D01*
X138063107Y-88500429D01*
X138091529Y-88537603D01*
X138132190Y-88561993D01*
X138179547Y-88572215D01*
X138228056Y-88566884D01*
X138263833Y-88550579D01*
X138274948Y-88538426D01*
X138296342Y-88510474D01*
X138326712Y-88468585D01*
X138364752Y-88414623D01*
X138409160Y-88350453D01*
X138458632Y-88277938D01*
X138511864Y-88198941D01*
X138554134Y-88135564D01*
X138608578Y-88053609D01*
X138659397Y-87977182D01*
X138705408Y-87908058D01*
X138745427Y-87848011D01*
X138778272Y-87798815D01*
X138802759Y-87762245D01*
X138817704Y-87740074D01*
X138822000Y-87733895D01*
X138828391Y-87741632D01*
X138845249Y-87765263D01*
X138871399Y-87803059D01*
X138905667Y-87853290D01*
X138946876Y-87914226D01*
X138993851Y-87984137D01*
X139045417Y-88061294D01*
X139091093Y-88129945D01*
X139146809Y-88213332D01*
X139199737Y-88291546D01*
X139248576Y-88362737D01*
X139292027Y-88425055D01*
X139328790Y-88476648D01*
X139357567Y-88515668D01*
X139377057Y-88540264D01*
X139384835Y-88548156D01*
X139418007Y-88561205D01*
X139461285Y-88566608D01*
X139464527Y-88566638D01*
X139497054Y-88564816D01*
X139520665Y-88556542D01*
X139544576Y-88537730D01*
X139556939Y-88525691D01*
X139581266Y-88499158D01*
X139593471Y-88476758D01*
X139597618Y-88449056D01*
X139597941Y-88430546D01*
X139597690Y-88418035D01*
X139596301Y-88405782D01*
X139592824Y-88392188D01*
X139586307Y-88375652D01*
X139575799Y-88354576D01*
X139560348Y-88327359D01*
X139539004Y-88292404D01*
X139510815Y-88248109D01*
X139474830Y-88192876D01*
X139430098Y-88125105D01*
X139375667Y-88043196D01*
X139310586Y-87945552D01*
X139300464Y-87930375D01*
X139242533Y-87843270D01*
X139188327Y-87761291D01*
X139138954Y-87686146D01*
X139095523Y-87619546D01*
X139059141Y-87563200D01*
X139030918Y-87518818D01*
X139011962Y-87488110D01*
X139003381Y-87472786D01*
X139002987Y-87471533D01*
X139008679Y-87460485D01*
X139025021Y-87433597D01*
X139050905Y-87392578D01*
X139085226Y-87339137D01*
X139126877Y-87274985D01*
X139174752Y-87201831D01*
X139227747Y-87121384D01*
X139284753Y-87035353D01*
X139300464Y-87011729D01*
X139367520Y-86910860D01*
X139423739Y-86825960D01*
X139470066Y-86755465D01*
X139507444Y-86697814D01*
X139536818Y-86651443D01*
X139559134Y-86614790D01*
X139575336Y-86586291D01*
X139586369Y-86564385D01*
X139593177Y-86547508D01*
X139596705Y-86534098D01*
X139597897Y-86522591D01*
X139597941Y-86519621D01*
X139590272Y-86464831D01*
X139566600Y-86423286D01*
X139525931Y-86393368D01*
X139518104Y-86389694D01*
X139484410Y-86377199D01*
X139457503Y-86374955D01*
X139431723Y-86380230D01*
X139401227Y-86390902D01*
X139377764Y-86402653D01*
X139375264Y-86404433D01*
X139366103Y-86415689D01*
X139346531Y-86442730D01*
X139317802Y-86483730D01*
X139281168Y-86536862D01*
X139237884Y-86600301D01*
X139189201Y-86672220D01*
X139136373Y-86750795D01*
X139091841Y-86817410D01*
X138825148Y-87217357D01*
X138556956Y-86815154D01*
X138501198Y-86732030D01*
X138448170Y-86653925D01*
X138399176Y-86582694D01*
X138355522Y-86520190D01*
X138318513Y-86468270D01*
X138289455Y-86428789D01*
X138269652Y-86403601D01*
X138261315Y-86394964D01*
X138224598Y-86381088D01*
X138179630Y-86377775D01*
X138136442Y-86385013D01*
X138114403Y-86395154D01*
X138075074Y-86432041D01*
X138052618Y-86478161D01*
X138048771Y-86525192D01*
X138051447Y-86537874D01*
X138057827Y-86554746D01*
X138068817Y-86577285D01*
X138085322Y-86606965D01*
X138108247Y-86645261D01*
X138138497Y-86693649D01*
X138176977Y-86753601D01*
X138224591Y-86826595D01*
X138282245Y-86914104D01*
X138350844Y-87017604D01*
X138351569Y-87018696D01*
X138411428Y-87109269D01*
X138466639Y-87193678D01*
X138516202Y-87270337D01*
X138559116Y-87337660D01*
X138594379Y-87394060D01*
X138620992Y-87437951D01*
X138637953Y-87467747D01*
X138644262Y-87481861D01*
X138644222Y-87482543D01*
X138637414Y-87493980D01*
X138620003Y-87521255D01*
X138593123Y-87562644D01*
X138557907Y-87616421D01*
X138515489Y-87680863D01*
X138467000Y-87754245D01*
X138413576Y-87834842D01*
X138356348Y-87920930D01*
X138342003Y-87942472D01*
X138273061Y-88046007D01*
X138214998Y-88133556D01*
X138167009Y-88206730D01*
X138128287Y-88267140D01*
X138098028Y-88316397D01*
X138075427Y-88356113D01*
X138059678Y-88387898D01*
X138049976Y-88413363D01*
X138045515Y-88434119D01*
X138045491Y-88451778D01*
X137689049Y-88451778D01*
X137690259Y-88437579D01*
X137691823Y-88408863D01*
X137693121Y-88371875D01*
X137694178Y-88325313D01*
X137695019Y-88267874D01*
X137695668Y-88198255D01*
X137696150Y-88115154D01*
X137696488Y-88017269D01*
X137696708Y-87903296D01*
X137696834Y-87771934D01*
X137696890Y-87621879D01*
X137696902Y-87475877D01*
X137696872Y-87306996D01*
X137696767Y-87157972D01*
X137696567Y-87027538D01*
X137696253Y-86914429D01*
X137695803Y-86817376D01*
X137695198Y-86735116D01*
X137694418Y-86666381D01*
X137693441Y-86609905D01*
X137692249Y-86564422D01*
X137690820Y-86528666D01*
X137689134Y-86501371D01*
X137687171Y-86481270D01*
X137684912Y-86467098D01*
X137682334Y-86457587D01*
X137680547Y-86453436D01*
X137650419Y-86415406D01*
X137609828Y-86391351D01*
X137563691Y-86381409D01*
X137516925Y-86385715D01*
X137474448Y-86404404D01*
X137441178Y-86437612D01*
X137435688Y-86446686D01*
X137431945Y-86454795D01*
X137428706Y-86465490D01*
X137425918Y-86480338D01*
X137423530Y-86500907D01*
X137421491Y-86528765D01*
X137419749Y-86565480D01*
X137418252Y-86612622D01*
X137416949Y-86671756D01*
X137415789Y-86744452D01*
X137414720Y-86832278D01*
X137413690Y-86936802D01*
X137412648Y-87059592D01*
X137411746Y-87175255D01*
X137406465Y-87869679D01*
X137004608Y-87143855D01*
X136928946Y-87007192D01*
X136862775Y-86887819D01*
X136805314Y-86784566D01*
X136755785Y-86696266D01*
X136713408Y-86621750D01*
X136677403Y-86559849D01*
X136646992Y-86509396D01*
X136621394Y-86469220D01*
X136599831Y-86438155D01*
X136581523Y-86415030D01*
X136565690Y-86398679D01*
X136551553Y-86387931D01*
X136538333Y-86381620D01*
X136525251Y-86378575D01*
X136511526Y-86377629D01*
X136496380Y-86377613D01*
X136493536Y-86377618D01*
X136443442Y-86387027D01*
X136399735Y-86412747D01*
X136372886Y-86444287D01*
X136369969Y-86450647D01*
X136367397Y-86460088D01*
X136365148Y-86473885D01*
X136363201Y-86493310D01*
X136361535Y-86519636D01*
X136360128Y-86554135D01*
X136358959Y-86598081D01*
X136358007Y-86652747D01*
X136357250Y-86719405D01*
X136356668Y-86799329D01*
X136356237Y-86893791D01*
X136355938Y-87004065D01*
X136355749Y-87131422D01*
X136355648Y-87277137D01*
X136355614Y-87442481D01*
X136355613Y-87473110D01*
X136355581Y-87645193D01*
X136355544Y-87797408D01*
X135362824Y-87797408D01*
X135362848Y-87516078D01*
X135680025Y-87040077D01*
X135761480Y-86917321D01*
X135830883Y-86811625D01*
X135888358Y-86722788D01*
X135934030Y-86650614D01*
X135968025Y-86594901D01*
X135990468Y-86555452D01*
X136001485Y-86532066D01*
X136002650Y-86527734D01*
X135999501Y-86482953D01*
X135979588Y-86440085D01*
X135947086Y-86403829D01*
X135906171Y-86378884D01*
X135862425Y-86369937D01*
X135844515Y-86370464D01*
X135828154Y-86373012D01*
X135812122Y-86379035D01*
X135795199Y-86389986D01*
X135776167Y-86407318D01*
X135753806Y-86432485D01*
X135726895Y-86466940D01*
X135694216Y-86512135D01*
X135654548Y-86569525D01*
X135606673Y-86640562D01*
X135549370Y-86726700D01*
X135498410Y-86803696D01*
X135443844Y-86885866D01*
X135392674Y-86962247D01*
X135346095Y-87031102D01*
X135305305Y-87090693D01*
X135271499Y-87139283D01*
X135245873Y-87175135D01*
X135229625Y-87196511D01*
X135224102Y-87202011D01*
X135216546Y-87192876D01*
X135198508Y-87167944D01*
X135171215Y-87129001D01*
X135135895Y-87077829D01*
X135093773Y-87016214D01*
X135046077Y-86945939D01*
X134994034Y-86868790D01*
X134953682Y-86808677D01*
X134898464Y-86726737D01*
X134845932Y-86649712D01*
X134797427Y-86579502D01*
X134754289Y-86518007D01*
X134717860Y-86467124D01*
X134689478Y-86428754D01*
X134670485Y-86404795D01*
X134663564Y-86397665D01*
X134625743Y-86381259D01*
X134589309Y-86376978D01*
X134535945Y-86386239D01*
X134493584Y-86412309D01*
X134464824Y-86452618D01*
X134452263Y-86504600D01*
X134451942Y-86512844D01*
X133242405Y-86512844D01*
X133242181Y-86510020D01*
X133239955Y-86492159D01*
X133237352Y-86478735D01*
X133234341Y-86468357D01*
X133230893Y-86459636D01*
X133230057Y-86457769D01*
X133199935Y-86414616D01*
X133157050Y-86387874D01*
X133103158Y-86378612D01*
X133100027Y-86378629D01*
X133049856Y-86388428D01*
X133009081Y-86416795D01*
X132986084Y-86447081D01*
X132982616Y-86453286D01*
X132979562Y-86460692D01*
X132976893Y-86470598D01*
X132974586Y-86484309D01*
X132972612Y-86503125D01*
X132970946Y-86528349D01*
X132969563Y-86561283D01*
X132968434Y-86603229D01*
X132967536Y-86655488D01*
X132966840Y-86719363D01*
X132966322Y-86796156D01*
X132965954Y-86887169D01*
X132965711Y-86993704D01*
X132965567Y-87117063D01*
X132965494Y-87258548D01*
X132965468Y-87419460D01*
X132965465Y-87472000D01*
X132965429Y-87643767D01*
X132965393Y-87795672D01*
X131930446Y-87795672D01*
X131930325Y-87693891D01*
X131930249Y-87534536D01*
G37*
%TO.C,C3*%
X149024721Y-99690000D02*
X149350279Y-99690000D01*
X149024721Y-100710000D02*
X149350279Y-100710000D01*
%TO.C,J1*%
X131210000Y-95000000D02*
X131710000Y-95250000D01*
X131710000Y-94750000D02*
X131210000Y-95000000D01*
X131710000Y-95250000D02*
X131710000Y-94750000D01*
%TO.C,L1*%
X133310000Y-97341422D02*
X133310000Y-97858578D01*
X131890000Y-97341422D02*
X131890000Y-97858578D01*
%TO.C,C5*%
X154512221Y-89510000D02*
X154837779Y-89510000D01*
X154512221Y-88490000D02*
X154837779Y-88490000D01*
%TO.C,G\u002A\u002A\u002A*%
G36*
X160492242Y-102448962D02*
G01*
X160536402Y-102472712D01*
X160563401Y-102495344D01*
X160579991Y-102512322D01*
X160593210Y-102528586D01*
X160603439Y-102545961D01*
X160611057Y-102566273D01*
X160616444Y-102591345D01*
X160619980Y-102623003D01*
X160622044Y-102663072D01*
X160623018Y-102713378D01*
X160623279Y-102775744D01*
X160623281Y-102783041D01*
X160623281Y-102957761D01*
X160508883Y-102957205D01*
X160455541Y-102956372D01*
X160414869Y-102954387D01*
X160385497Y-102951149D01*
X160366063Y-102946558D01*
X160324227Y-102924329D01*
X160288666Y-102889935D01*
X160267529Y-102858185D01*
X160246646Y-102820483D01*
X160246646Y-102697284D01*
X160247046Y-102645732D01*
X160248749Y-102605782D01*
X160252505Y-102574968D01*
X160259066Y-102550821D01*
X160269184Y-102530876D01*
X160283611Y-102512664D01*
X160303097Y-102493721D01*
X160310739Y-102486912D01*
X160353744Y-102457378D01*
X160399363Y-102441244D01*
X160446046Y-102438455D01*
X160492242Y-102448962D01*
G37*
G36*
X161561745Y-102660673D02*
G01*
X161565239Y-102667207D01*
X161570570Y-102679939D01*
X161578004Y-102699642D01*
X161587808Y-102727091D01*
X161600248Y-102763059D01*
X161615590Y-102808319D01*
X161634102Y-102863645D01*
X161656051Y-102929810D01*
X161681701Y-103007589D01*
X161711321Y-103097754D01*
X161721395Y-103128479D01*
X161734664Y-103168958D01*
X161562648Y-103168958D01*
X161515112Y-103168752D01*
X161472613Y-103168172D01*
X161437055Y-103167277D01*
X161410346Y-103166126D01*
X161394392Y-103164777D01*
X161390631Y-103163680D01*
X161392803Y-103155263D01*
X161398911Y-103135400D01*
X161408348Y-103105902D01*
X161420506Y-103068581D01*
X161434777Y-103025249D01*
X161450553Y-102977716D01*
X161467227Y-102927794D01*
X161484189Y-102877295D01*
X161500833Y-102828030D01*
X161516550Y-102781811D01*
X161530732Y-102740449D01*
X161542772Y-102705755D01*
X161552061Y-102679542D01*
X161557991Y-102663620D01*
X161559821Y-102659564D01*
X161561745Y-102660673D01*
G37*
G36*
X159266338Y-102438287D02*
G01*
X159327550Y-102439676D01*
X159376801Y-102441936D01*
X159416209Y-102445654D01*
X159447892Y-102451420D01*
X159473965Y-102459820D01*
X159496547Y-102471443D01*
X159517753Y-102486876D01*
X159539702Y-102506709D01*
X159550311Y-102517150D01*
X159585704Y-102558238D01*
X159609152Y-102600222D01*
X159622196Y-102646828D01*
X159626375Y-102700804D01*
X159620839Y-102758504D01*
X159603095Y-102810449D01*
X159572614Y-102857687D01*
X159528867Y-102901266D01*
X159522681Y-102906315D01*
X159500640Y-102922166D01*
X159477456Y-102934512D01*
X159451057Y-102943757D01*
X159419369Y-102950300D01*
X159380316Y-102954543D01*
X159331827Y-102956888D01*
X159271826Y-102957736D01*
X159256797Y-102957761D01*
X159109700Y-102957761D01*
X159109700Y-102435637D01*
X159266338Y-102438287D01*
G37*
G36*
X157103746Y-102501411D02*
G01*
X157104343Y-102409157D01*
X157105052Y-102322772D01*
X157105872Y-102243255D01*
X157106802Y-102171603D01*
X157107843Y-102108814D01*
X157108996Y-102055883D01*
X157110259Y-102013811D01*
X157111634Y-101983592D01*
X157113119Y-101966226D01*
X157113477Y-101964152D01*
X157128570Y-101908950D01*
X157147986Y-101864218D01*
X157171048Y-101831410D01*
X157178378Y-101824284D01*
X157202374Y-101803216D01*
X164304665Y-101803216D01*
X164328661Y-101824284D01*
X164352661Y-101853333D01*
X164373212Y-101894732D01*
X164389638Y-101947025D01*
X164393562Y-101964152D01*
X164395073Y-101978416D01*
X164396473Y-102005761D01*
X164397762Y-102045191D01*
X164398940Y-102095708D01*
X164400007Y-102156315D01*
X164400963Y-102226014D01*
X164401808Y-102303807D01*
X164402542Y-102388698D01*
X164403165Y-102479688D01*
X164403677Y-102575780D01*
X164404079Y-102675977D01*
X164404369Y-102779282D01*
X164404548Y-102884696D01*
X164404616Y-102991223D01*
X164404574Y-103097864D01*
X164404420Y-103203623D01*
X164404155Y-103307502D01*
X164403780Y-103408504D01*
X164403293Y-103505630D01*
X164402696Y-103597884D01*
X164401987Y-103684268D01*
X164401168Y-103763785D01*
X164400237Y-103835437D01*
X164399196Y-103898227D01*
X164398043Y-103951157D01*
X164396780Y-103993230D01*
X164395405Y-104023448D01*
X164393920Y-104040815D01*
X164393562Y-104042889D01*
X164378469Y-104098090D01*
X164359053Y-104142823D01*
X164335991Y-104175631D01*
X164328661Y-104182757D01*
X164304665Y-104203825D01*
X157202374Y-104203825D01*
X157178378Y-104182757D01*
X157154378Y-104153707D01*
X157133827Y-104112309D01*
X157117401Y-104060016D01*
X157113477Y-104042889D01*
X157111966Y-104028625D01*
X157110566Y-104001280D01*
X157109277Y-103961849D01*
X157108099Y-103911332D01*
X157107032Y-103850726D01*
X157106076Y-103781027D01*
X157105231Y-103703234D01*
X157104497Y-103618343D01*
X157103874Y-103527353D01*
X157103362Y-103431261D01*
X157102961Y-103331063D01*
X157102671Y-103227759D01*
X157102492Y-103122345D01*
X157102424Y-103015818D01*
X157102466Y-102909177D01*
X157102620Y-102803418D01*
X157102885Y-102699539D01*
X157103195Y-102616010D01*
X157793476Y-102616010D01*
X157797494Y-102686439D01*
X157814462Y-102756553D01*
X157833369Y-102802883D01*
X157850465Y-102830996D01*
X157876365Y-102863868D01*
X157905314Y-102895014D01*
X157919413Y-102908987D01*
X157932253Y-102921021D01*
X157945308Y-102931994D01*
X157960054Y-102942783D01*
X157977967Y-102954268D01*
X158000521Y-102967324D01*
X158029192Y-102982831D01*
X158065455Y-103001666D01*
X158110786Y-103024707D01*
X158166659Y-103052832D01*
X158191500Y-103065305D01*
X158262270Y-103101178D01*
X158322418Y-103132396D01*
X158371504Y-103158718D01*
X158409085Y-103179901D01*
X158434720Y-103195705D01*
X158447583Y-103205492D01*
X158477580Y-103244573D01*
X158494899Y-103289329D01*
X158499909Y-103337916D01*
X158495670Y-103382754D01*
X158482629Y-103420216D01*
X158458918Y-103455183D01*
X158451946Y-103463179D01*
X158422292Y-103490488D01*
X158389756Y-103508346D01*
X158350966Y-103518064D01*
X158303410Y-103520954D01*
X158215508Y-103513999D01*
X158127748Y-103493385D01*
X158041399Y-103459486D01*
X157976275Y-103424327D01*
X157930520Y-103400786D01*
X157891022Y-103389719D01*
X157857479Y-103391138D01*
X157829593Y-103405056D01*
X157807062Y-103431486D01*
X157807032Y-103431537D01*
X157794353Y-103464627D01*
X157794460Y-103498462D01*
X157806582Y-103529996D01*
X157829943Y-103556181D01*
X157840499Y-103563438D01*
X157917845Y-103607542D01*
X157988673Y-103642505D01*
X158056073Y-103669482D01*
X158123133Y-103689624D01*
X158192943Y-103704085D01*
X158233231Y-103709983D01*
X158276371Y-103714792D01*
X158310555Y-103716573D01*
X158340594Y-103715256D01*
X158371297Y-103710771D01*
X158386319Y-103707763D01*
X158455663Y-103686331D01*
X158517924Y-103653630D01*
X158572056Y-103610936D01*
X158617017Y-103559524D01*
X158651759Y-103500672D01*
X158675240Y-103435656D01*
X158686413Y-103365752D01*
X158687222Y-103340195D01*
X158682638Y-103271684D01*
X158668316Y-103211273D01*
X158643105Y-103156194D01*
X158605852Y-103103675D01*
X158596907Y-103093906D01*
X158919631Y-103093906D01*
X158919656Y-103193727D01*
X158919747Y-103281189D01*
X158919947Y-103357153D01*
X158920294Y-103422480D01*
X158920830Y-103478031D01*
X158921595Y-103524667D01*
X158922630Y-103563247D01*
X158923975Y-103594633D01*
X158925670Y-103619685D01*
X158927757Y-103639265D01*
X158930275Y-103654232D01*
X158933265Y-103665448D01*
X158936768Y-103673774D01*
X158940823Y-103680069D01*
X158945473Y-103685194D01*
X158950756Y-103690011D01*
X158953094Y-103692078D01*
X158982091Y-103709082D01*
X159015411Y-103714691D01*
X159048700Y-103708599D01*
X159065669Y-103699987D01*
X159080785Y-103686376D01*
X159095086Y-103668005D01*
X159095930Y-103666650D01*
X159099578Y-103659964D01*
X159102517Y-103652120D01*
X159104823Y-103641616D01*
X159106574Y-103626954D01*
X159107844Y-103606633D01*
X159108712Y-103579153D01*
X159109252Y-103543015D01*
X159109541Y-103496719D01*
X159109657Y-103438765D01*
X159109674Y-103396708D01*
X159109700Y-103149263D01*
X159283938Y-103146202D01*
X159340069Y-103145090D01*
X159384211Y-103143850D01*
X159418456Y-103142315D01*
X159444896Y-103140318D01*
X159465622Y-103137690D01*
X159482725Y-103134266D01*
X159498297Y-103129878D01*
X159501642Y-103128794D01*
X159576055Y-103097243D01*
X159642459Y-103054647D01*
X159699812Y-103001789D01*
X159740607Y-102949465D01*
X159778422Y-102880750D01*
X159803338Y-102809132D01*
X159815749Y-102736064D01*
X159815764Y-102732326D01*
X160054116Y-102732326D01*
X160055616Y-102777975D01*
X160059032Y-102816569D01*
X160059096Y-102817058D01*
X160074834Y-102885851D01*
X160102500Y-102949764D01*
X160140740Y-103007270D01*
X160188204Y-103056841D01*
X160243539Y-103096950D01*
X160305392Y-103126069D01*
X160342340Y-103136999D01*
X160377997Y-103142736D01*
X160426840Y-103146326D01*
X160488131Y-103147719D01*
X160494423Y-103147735D01*
X160601403Y-103147839D01*
X160590845Y-103184798D01*
X160562075Y-103260225D01*
X160520774Y-103330024D01*
X160467621Y-103393442D01*
X160403293Y-103449724D01*
X160328471Y-103498116D01*
X160292217Y-103516801D01*
X160254584Y-103536250D01*
X160228538Y-103553799D01*
X160212178Y-103571583D01*
X160203602Y-103591734D01*
X160200906Y-103616384D01*
X160200886Y-103619188D01*
X160206403Y-103656331D01*
X160222526Y-103684357D01*
X160248619Y-103702623D01*
X160284044Y-103710486D01*
X160291622Y-103710750D01*
X160310005Y-103709033D01*
X160332202Y-103702938D01*
X160360929Y-103691524D01*
X160398902Y-103673851D01*
X160400741Y-103672957D01*
X160476193Y-103629730D01*
X161044077Y-103629730D01*
X161051356Y-103661914D01*
X161068949Y-103687554D01*
X161094141Y-103705440D01*
X161124215Y-103714361D01*
X161156456Y-103713110D01*
X161188148Y-103700476D01*
X161194088Y-103696543D01*
X161201105Y-103690977D01*
X161207487Y-103683996D01*
X161213878Y-103674045D01*
X161220921Y-103659568D01*
X161229263Y-103639012D01*
X161239547Y-103610821D01*
X161252417Y-103573442D01*
X161268519Y-103525318D01*
X161282193Y-103483994D01*
X161323451Y-103359036D01*
X161797776Y-103359036D01*
X161848771Y-103512154D01*
X161868065Y-103568952D01*
X161884377Y-103613731D01*
X161898614Y-103648006D01*
X161911681Y-103673291D01*
X161924482Y-103691100D01*
X161937922Y-103702947D01*
X161952908Y-103710346D01*
X161969859Y-103714722D01*
X161999684Y-103713877D01*
X162029926Y-103702377D01*
X162055350Y-103682468D01*
X162060913Y-103675667D01*
X162065692Y-103669137D01*
X162069769Y-103662874D01*
X162072925Y-103656075D01*
X162074941Y-103647934D01*
X162075596Y-103637646D01*
X162074672Y-103624406D01*
X162071947Y-103607410D01*
X162067204Y-103585852D01*
X162060221Y-103558928D01*
X162050780Y-103525833D01*
X162038661Y-103485762D01*
X162023644Y-103437910D01*
X162005509Y-103381472D01*
X161984038Y-103315644D01*
X161959010Y-103239620D01*
X161944932Y-103197088D01*
X162312838Y-103197088D01*
X162312875Y-103285945D01*
X162313032Y-103363242D01*
X162313371Y-103429820D01*
X162313950Y-103486518D01*
X162314830Y-103534178D01*
X162316070Y-103573638D01*
X162317732Y-103605740D01*
X162319874Y-103631322D01*
X162322558Y-103651226D01*
X162325842Y-103666292D01*
X162329788Y-103677358D01*
X162334454Y-103685267D01*
X162339901Y-103690857D01*
X162346190Y-103694969D01*
X162353380Y-103698442D01*
X162361530Y-103702118D01*
X162364491Y-103703543D01*
X162372177Y-103707100D01*
X162380425Y-103710023D01*
X162390619Y-103712375D01*
X162404146Y-103714218D01*
X162422390Y-103715614D01*
X162446737Y-103716624D01*
X162478571Y-103717311D01*
X162519277Y-103717737D01*
X162570241Y-103717963D01*
X162632847Y-103718052D01*
X162689032Y-103718066D01*
X162761439Y-103718041D01*
X162821154Y-103717924D01*
X162869562Y-103717652D01*
X162908053Y-103717165D01*
X162938011Y-103716400D01*
X162960825Y-103715298D01*
X162977882Y-103713795D01*
X162990568Y-103711830D01*
X163000271Y-103709343D01*
X163008378Y-103706272D01*
X163013974Y-103703680D01*
X163041499Y-103683493D01*
X163058840Y-103656524D01*
X163065847Y-103625872D01*
X163062371Y-103594632D01*
X163048262Y-103565901D01*
X163023371Y-103542774D01*
X163021789Y-103541789D01*
X163015109Y-103538139D01*
X163007284Y-103535198D01*
X162996816Y-103532889D01*
X162982209Y-103531135D01*
X162961965Y-103529861D01*
X162934586Y-103528991D01*
X162898574Y-103528448D01*
X162852432Y-103528156D01*
X162794662Y-103528038D01*
X162751094Y-103528020D01*
X162502937Y-103527994D01*
X162502827Y-103100325D01*
X163298480Y-103100325D01*
X163298501Y-103199530D01*
X163298591Y-103286385D01*
X163298792Y-103361758D01*
X163299144Y-103426514D01*
X163299688Y-103481517D01*
X163300466Y-103527634D01*
X163301518Y-103565731D01*
X163302886Y-103596672D01*
X163304611Y-103621324D01*
X163306734Y-103640553D01*
X163309296Y-103655223D01*
X163312338Y-103666200D01*
X163315901Y-103674350D01*
X163320027Y-103680539D01*
X163324756Y-103685632D01*
X163330129Y-103690494D01*
X163331919Y-103692078D01*
X163360916Y-103709082D01*
X163394236Y-103714691D01*
X163427525Y-103708599D01*
X163444494Y-103699987D01*
X163459610Y-103686376D01*
X163473911Y-103668005D01*
X163474755Y-103666650D01*
X163477065Y-103662517D01*
X163479099Y-103657585D01*
X163480877Y-103650988D01*
X163482414Y-103641857D01*
X163483729Y-103629327D01*
X163484839Y-103612530D01*
X163485761Y-103590598D01*
X163486512Y-103562664D01*
X163487110Y-103527862D01*
X163487573Y-103485324D01*
X163487917Y-103434183D01*
X163488160Y-103373572D01*
X163488320Y-103302624D01*
X163488414Y-103220471D01*
X163488458Y-103126247D01*
X163488472Y-103019084D01*
X163488472Y-102982401D01*
X163488465Y-102870970D01*
X163488432Y-102772752D01*
X163488356Y-102686879D01*
X163488219Y-102612485D01*
X163488004Y-102548702D01*
X163487693Y-102494663D01*
X163487270Y-102449501D01*
X163486717Y-102412348D01*
X163486016Y-102382339D01*
X163485149Y-102358604D01*
X163484101Y-102340279D01*
X163482853Y-102326494D01*
X163481388Y-102316383D01*
X163479688Y-102309079D01*
X163477736Y-102303715D01*
X163475515Y-102299424D01*
X163474755Y-102298152D01*
X163452026Y-102271037D01*
X163423507Y-102256298D01*
X163393500Y-102252597D01*
X163359200Y-102258716D01*
X163330788Y-102275733D01*
X163311069Y-102301633D01*
X163305820Y-102315503D01*
X163304391Y-102327936D01*
X163303112Y-102354304D01*
X163301986Y-102394464D01*
X163301013Y-102448271D01*
X163300196Y-102515583D01*
X163299537Y-102596254D01*
X163299035Y-102690142D01*
X163298695Y-102797102D01*
X163298516Y-102916991D01*
X163298487Y-102987907D01*
X163298480Y-103100325D01*
X162502827Y-103100325D01*
X162502783Y-102931361D01*
X162502745Y-102825748D01*
X162502675Y-102733288D01*
X162502555Y-102653055D01*
X162502362Y-102584120D01*
X162502079Y-102525558D01*
X162501684Y-102476442D01*
X162501158Y-102435844D01*
X162500480Y-102402839D01*
X162499631Y-102376498D01*
X162498590Y-102355896D01*
X162497338Y-102340106D01*
X162495854Y-102328200D01*
X162494119Y-102319251D01*
X162492112Y-102312334D01*
X162489813Y-102306521D01*
X162489256Y-102305276D01*
X162469178Y-102276512D01*
X162440591Y-102258686D01*
X162404669Y-102252512D01*
X162402582Y-102252523D01*
X162369139Y-102259056D01*
X162341959Y-102277964D01*
X162326630Y-102298152D01*
X162324319Y-102302288D01*
X162322282Y-102307224D01*
X162320504Y-102313828D01*
X162318965Y-102322967D01*
X162317650Y-102335510D01*
X162316540Y-102352323D01*
X162315617Y-102374276D01*
X162314865Y-102402236D01*
X162314266Y-102437071D01*
X162313803Y-102479648D01*
X162313457Y-102530837D01*
X162313212Y-102591503D01*
X162313050Y-102662517D01*
X162312954Y-102744745D01*
X162312905Y-102839055D01*
X162312888Y-102946315D01*
X162312886Y-102981337D01*
X162312862Y-103095832D01*
X162312838Y-103197088D01*
X161944932Y-103197088D01*
X161930205Y-103152596D01*
X161897405Y-103053767D01*
X161862700Y-102949284D01*
X161826102Y-102839066D01*
X161793667Y-102741420D01*
X161765084Y-102655571D01*
X161740038Y-102580741D01*
X161718220Y-102516154D01*
X161699315Y-102461033D01*
X161683012Y-102414600D01*
X161668999Y-102376080D01*
X161656964Y-102344696D01*
X161646593Y-102319670D01*
X161637576Y-102300227D01*
X161629600Y-102285588D01*
X161622352Y-102274978D01*
X161615521Y-102267620D01*
X161608794Y-102262737D01*
X161601860Y-102259552D01*
X161594404Y-102257288D01*
X161586117Y-102255169D01*
X161583414Y-102254443D01*
X161549994Y-102252053D01*
X161517565Y-102261774D01*
X161495339Y-102277782D01*
X161490358Y-102287198D01*
X161481438Y-102308899D01*
X161468952Y-102341766D01*
X161453274Y-102384681D01*
X161434776Y-102436524D01*
X161413833Y-102496179D01*
X161390817Y-102562526D01*
X161366102Y-102634446D01*
X161340061Y-102710822D01*
X161313067Y-102790534D01*
X161285495Y-102872465D01*
X161257716Y-102955496D01*
X161230105Y-103038508D01*
X161203035Y-103120383D01*
X161176879Y-103200002D01*
X161152011Y-103276247D01*
X161128803Y-103348000D01*
X161107629Y-103414141D01*
X161088863Y-103473553D01*
X161072878Y-103525117D01*
X161060047Y-103567714D01*
X161050744Y-103600226D01*
X161045341Y-103621535D01*
X161044077Y-103629730D01*
X160476193Y-103629730D01*
X160488370Y-103622754D01*
X160566626Y-103562196D01*
X160635177Y-103491718D01*
X160693695Y-103411756D01*
X160741850Y-103322746D01*
X160779314Y-103225122D01*
X160800675Y-103144319D01*
X160803325Y-103127177D01*
X160805477Y-103101888D01*
X160807160Y-103067438D01*
X160808405Y-103022812D01*
X160809241Y-102966998D01*
X160809697Y-102898980D01*
X160809808Y-102831043D01*
X160809779Y-102762035D01*
X160809656Y-102705570D01*
X160809358Y-102660108D01*
X160808806Y-102624114D01*
X160807921Y-102596047D01*
X160806621Y-102574372D01*
X160804828Y-102557550D01*
X160802461Y-102544044D01*
X160799440Y-102532315D01*
X160795686Y-102520826D01*
X160793349Y-102514247D01*
X160763404Y-102448559D01*
X160723819Y-102389664D01*
X160676355Y-102339766D01*
X160623281Y-102301361D01*
X160560515Y-102272772D01*
X160493264Y-102256248D01*
X160424006Y-102251792D01*
X160355223Y-102259405D01*
X160289393Y-102279090D01*
X160244696Y-102301044D01*
X160192874Y-102338646D01*
X160146014Y-102386582D01*
X160106815Y-102441442D01*
X160077970Y-102499816D01*
X160070564Y-102521286D01*
X160064535Y-102549482D01*
X160059739Y-102588199D01*
X160056313Y-102633922D01*
X160054393Y-102683136D01*
X160054116Y-102732326D01*
X159815764Y-102732326D01*
X159816046Y-102662998D01*
X159804622Y-102591386D01*
X159781871Y-102522683D01*
X159748183Y-102458340D01*
X159703952Y-102399811D01*
X159649571Y-102348548D01*
X159585431Y-102306004D01*
X159563775Y-102294884D01*
X159535625Y-102281925D01*
X159509343Y-102271469D01*
X159483011Y-102263272D01*
X159454706Y-102257094D01*
X159422508Y-102252692D01*
X159384498Y-102249823D01*
X159338754Y-102248245D01*
X159283357Y-102247716D01*
X159216385Y-102247993D01*
X159193731Y-102248198D01*
X159133677Y-102248829D01*
X159086066Y-102249495D01*
X159049263Y-102250313D01*
X159021632Y-102251403D01*
X159001537Y-102252883D01*
X158987342Y-102254871D01*
X158977412Y-102257485D01*
X158970110Y-102260845D01*
X158964124Y-102264830D01*
X158947073Y-102281510D01*
X158932664Y-102302192D01*
X158931953Y-102303550D01*
X158929861Y-102308361D01*
X158928019Y-102314656D01*
X158926411Y-102323306D01*
X158925022Y-102335183D01*
X158923836Y-102351156D01*
X158922836Y-102372098D01*
X158922008Y-102398878D01*
X158921334Y-102432369D01*
X158920801Y-102473440D01*
X158920390Y-102522962D01*
X158920088Y-102581807D01*
X158919877Y-102650846D01*
X158919742Y-102730949D01*
X158919667Y-102822988D01*
X158919637Y-102927833D01*
X158919634Y-102980867D01*
X158919631Y-103093906D01*
X158596907Y-103093906D01*
X158574823Y-103069788D01*
X158560857Y-103055833D01*
X158548168Y-103043834D01*
X158535286Y-103032916D01*
X158520738Y-103022200D01*
X158503055Y-103010812D01*
X158480765Y-102997873D01*
X158452398Y-102982508D01*
X158416481Y-102963841D01*
X158371545Y-102940994D01*
X158316117Y-102913091D01*
X158288955Y-102899452D01*
X158225847Y-102867635D01*
X158174144Y-102841218D01*
X158132573Y-102819484D01*
X158099859Y-102801713D01*
X158074727Y-102787188D01*
X158055903Y-102775190D01*
X158042112Y-102764999D01*
X158032080Y-102755898D01*
X158029554Y-102753208D01*
X158004081Y-102719935D01*
X157989189Y-102686227D01*
X157982944Y-102646956D01*
X157982434Y-102628259D01*
X157988966Y-102577436D01*
X158007824Y-102532277D01*
X158037903Y-102494224D01*
X158078101Y-102464714D01*
X158121675Y-102446750D01*
X158160694Y-102440213D01*
X158209801Y-102439665D01*
X158266490Y-102444803D01*
X158328255Y-102455319D01*
X158392590Y-102470910D01*
X158440631Y-102485618D01*
X158481486Y-102498248D01*
X158512554Y-102504950D01*
X158536738Y-102505895D01*
X158556943Y-102501256D01*
X158572565Y-102493412D01*
X158598656Y-102469984D01*
X158612941Y-102439281D01*
X158614869Y-102402485D01*
X158614864Y-102402443D01*
X158609106Y-102377756D01*
X158596835Y-102357188D01*
X158576365Y-102339441D01*
X158546012Y-102323217D01*
X158504091Y-102307217D01*
X158481887Y-102300021D01*
X158395626Y-102276308D01*
X158314534Y-102261145D01*
X158233317Y-102253655D01*
X158194512Y-102252546D01*
X158119918Y-102256216D01*
X158054370Y-102269414D01*
X157995910Y-102292885D01*
X157942580Y-102327375D01*
X157901810Y-102363887D01*
X157856577Y-102419205D01*
X157823273Y-102480756D01*
X157802154Y-102546904D01*
X157793476Y-102616010D01*
X157103195Y-102616010D01*
X157103260Y-102598537D01*
X157103746Y-102501411D01*
G37*
%TD*%
M02*
