%TF.GenerationSoftware,KiCad,Pcbnew,(5.99.0-7233-g6a28d6af27)*%
%TF.CreationDate,2021-07-20T18:44:52+02:00*%
%TF.ProjectId,lna,6c6e612e-6b69-4636-9164-5f7063625858,rev?*%
%TF.SameCoordinates,Original*%
%TF.FileFunction,Copper,L2,Bot*%
%TF.FilePolarity,Positive*%
%FSLAX46Y46*%
G04 Gerber Fmt 4.6, Leading zero omitted, Abs format (unit mm)*
G04 Created by KiCad (PCBNEW (5.99.0-7233-g6a28d6af27)) date 2021-07-20 18:44:52*
%MOMM*%
%LPD*%
G01*
G04 APERTURE LIST*
%TA.AperFunction,SMDPad,CuDef*%
%ADD10R,5.080000X1.500000*%
%TD*%
%TA.AperFunction,ComponentPad*%
%ADD11R,1.700000X1.700000*%
%TD*%
%TA.AperFunction,ComponentPad*%
%ADD12O,1.700000X1.700000*%
%TD*%
%TA.AperFunction,ViaPad*%
%ADD13C,0.800000*%
%TD*%
%TA.AperFunction,Conductor*%
%ADD14C,1.000000*%
%TD*%
G04 APERTURE END LIST*
D10*
%TO.P,J3,2,Ext*%
%TO.N,GND*%
X162000000Y-99250000D03*
X162000000Y-90750000D03*
%TD*%
D11*
%TO.P,J2,1,GND*%
%TO.N,GND*%
X143500000Y-87000000D03*
D12*
%TO.P,J2,2,5V*%
%TO.N,5V*%
X146040000Y-87000000D03*
%TD*%
D10*
%TO.P,J1,2,Ext*%
%TO.N,GND*%
X128000000Y-99250000D03*
X128000000Y-90750000D03*
%TD*%
D13*
%TO.N,GND*%
X137000000Y-103000000D03*
X162000000Y-103000000D03*
X149000000Y-97300000D03*
X134000000Y-87000000D03*
X149000000Y-103000000D03*
X158000000Y-103000000D03*
X140000000Y-97300000D03*
X148000000Y-90000000D03*
X137000000Y-87000000D03*
X134000000Y-97300000D03*
X157275000Y-89000000D03*
X137000000Y-90000000D03*
X131000000Y-87000000D03*
X151000000Y-90000000D03*
X134000000Y-92000000D03*
X156000000Y-92000000D03*
X145000000Y-94862500D03*
X128000000Y-90000000D03*
X137000000Y-92000000D03*
X131000000Y-90000000D03*
X146000000Y-97300000D03*
X143000000Y-103000000D03*
X131000000Y-100000000D03*
X131000000Y-103000000D03*
X134000000Y-103000000D03*
X137000000Y-97300000D03*
X158000000Y-97300000D03*
X151200000Y-100200000D03*
X155000000Y-103000000D03*
X148000000Y-92000000D03*
X134000000Y-100000000D03*
X159000000Y-90000000D03*
X157275000Y-90800000D03*
X140000000Y-92000000D03*
X140000000Y-100000000D03*
X159000000Y-92000000D03*
X159000000Y-87000000D03*
X128000000Y-103000000D03*
X146000000Y-103000000D03*
X162000000Y-100000000D03*
X152000000Y-103000000D03*
X162000000Y-87000000D03*
X158000000Y-100000000D03*
X155000000Y-97300000D03*
X140000000Y-103000000D03*
X162000000Y-90000000D03*
X155000000Y-100000000D03*
X128000000Y-87000000D03*
X143000000Y-97300000D03*
X137000000Y-100000000D03*
X140000000Y-90000000D03*
X134000000Y-90000000D03*
X128000000Y-100000000D03*
X152000000Y-97300000D03*
X140000000Y-87000000D03*
%TD*%
D14*
%TO.N,GND*%
X128000000Y-90750000D02*
X128000000Y-90500000D01*
X162000000Y-99250000D02*
X162000000Y-90750000D01*
X128000000Y-99500000D02*
X128000000Y-99250000D01*
X128000000Y-99250000D02*
X128000000Y-90750000D01*
X162000000Y-90750000D02*
X162000000Y-90500000D01*
X162000000Y-99250000D02*
X162000000Y-99500000D01*
%TD*%
%TA.AperFunction,Conductor*%
%TO.N,GND*%
G36*
X145525658Y-85527832D02*
G01*
X145572151Y-85581488D01*
X145582255Y-85651762D01*
X145552761Y-85716342D01*
X145503818Y-85751022D01*
X145433740Y-85778697D01*
X145236631Y-85898306D01*
X145232601Y-85901803D01*
X145139426Y-85982656D01*
X145062492Y-86049415D01*
X145059109Y-86053541D01*
X145059105Y-86053545D01*
X144986768Y-86141767D01*
X144916304Y-86227705D01*
X144802245Y-86428077D01*
X144723578Y-86644802D01*
X144722629Y-86650051D01*
X144722628Y-86650054D01*
X144700890Y-86770265D01*
X144682551Y-86871683D01*
X144682500Y-86877023D01*
X144681097Y-87023210D01*
X144680338Y-87102233D01*
X144717002Y-87329861D01*
X144791494Y-87548056D01*
X144901685Y-87750580D01*
X145044424Y-87931644D01*
X145048389Y-87935220D01*
X145211659Y-88082489D01*
X145211665Y-88082494D01*
X145215629Y-88086069D01*
X145410406Y-88209439D01*
X145623184Y-88298228D01*
X145628387Y-88299425D01*
X145628392Y-88299426D01*
X145842678Y-88348701D01*
X145842683Y-88348702D01*
X145847881Y-88349897D01*
X145853209Y-88350200D01*
X145853212Y-88350200D01*
X146009293Y-88359063D01*
X146078071Y-88362968D01*
X146083378Y-88362368D01*
X146083380Y-88362368D01*
X146204272Y-88348701D01*
X146307173Y-88337068D01*
X146312288Y-88335587D01*
X146312292Y-88335586D01*
X146441298Y-88298228D01*
X146528635Y-88272937D01*
X146736125Y-88172409D01*
X146740463Y-88169309D01*
X146740468Y-88169306D01*
X146919370Y-88041459D01*
X146923711Y-88038357D01*
X147086030Y-87874617D01*
X147173043Y-87750580D01*
X147215375Y-87690236D01*
X147215376Y-87690234D01*
X147218439Y-87685868D01*
X147317153Y-87477508D01*
X147379349Y-87255494D01*
X147403249Y-87026176D01*
X147403500Y-87000000D01*
X147403250Y-86997052D01*
X147384458Y-86775576D01*
X147384457Y-86775572D01*
X147384007Y-86770265D01*
X147326084Y-86547098D01*
X147274731Y-86433098D01*
X147233578Y-86341743D01*
X147233577Y-86341741D01*
X147231388Y-86336882D01*
X147102627Y-86145626D01*
X146943482Y-85978799D01*
X146758504Y-85841171D01*
X146753753Y-85838755D01*
X146753749Y-85838753D01*
X146571606Y-85746147D01*
X146519948Y-85697444D01*
X146502822Y-85628544D01*
X146525664Y-85561322D01*
X146581223Y-85517121D01*
X146628711Y-85507830D01*
X164365670Y-85507830D01*
X164433791Y-85527832D01*
X164480284Y-85581488D01*
X164491670Y-85633830D01*
X164491670Y-104365790D01*
X164471668Y-104433911D01*
X164418012Y-104480404D01*
X164365670Y-104491790D01*
X125633750Y-104491790D01*
X125565629Y-104471788D01*
X125519136Y-104418132D01*
X125507750Y-104365790D01*
X125507750Y-85633830D01*
X125527752Y-85565709D01*
X125581408Y-85519216D01*
X125633750Y-85507830D01*
X145457537Y-85507830D01*
X145525658Y-85527832D01*
G37*
%TD.AperFunction*%
%TD*%
M02*
