M48
; DRILL file {KiCad (5.99.0-7233-g6a28d6af27)} date 07/20/21 18:45:36
; FORMAT={-:-/ absolute / inch / decimal}
; #@! TF.CreationDate,2021-07-20T18:45:36+02:00
; #@! TF.GenerationSoftware,Kicad,Pcbnew,(5.99.0-7233-g6a28d6af27)
FMAT,2
INCH
T1C0.0157
T2C0.0394
%
G90
G05
T1
X5.0394Y-3.4252
X5.0394Y-3.5433
X5.0394Y-3.937
X5.0394Y-4.0551
X5.1575Y-3.4252
X5.1575Y-3.5433
X5.1575Y-3.937
X5.1575Y-4.0551
X5.2756Y-3.4252
X5.2756Y-3.5433
X5.2756Y-3.622
X5.2756Y-3.8307
X5.2756Y-3.937
X5.2756Y-4.0551
X5.3937Y-3.4252
X5.3937Y-3.5433
X5.3937Y-3.622
X5.3937Y-3.8307
X5.3937Y-3.937
X5.3937Y-4.0551
X5.5118Y-3.4252
X5.5118Y-3.5433
X5.5118Y-3.622
X5.5118Y-3.8307
X5.5118Y-3.937
X5.5118Y-4.0551
X5.6299Y-3.8307
X5.6299Y-4.0551
X5.7087Y-3.7347
X5.748Y-3.8307
X5.748Y-4.0551
X5.8268Y-3.5433
X5.8268Y-3.622
X5.8661Y-3.8307
X5.8661Y-4.0551
X5.9449Y-3.5433
X5.9528Y-3.9449
X5.9843Y-3.8307
X5.9843Y-4.0551
X6.1024Y-3.8307
X6.1024Y-3.937
X6.1024Y-4.0551
X6.1417Y-3.622
X6.1919Y-3.5039
X6.1919Y-3.5748
X6.2205Y-3.8307
X6.2205Y-3.937
X6.2205Y-4.0551
X6.2598Y-3.4252
X6.2598Y-3.5433
X6.2598Y-3.622
X6.378Y-3.4252
X6.378Y-3.5433
X6.378Y-3.937
X6.378Y-4.0551
T2
X5.6496Y-3.4252
X5.7496Y-3.4252
T0
M30
