%TF.GenerationSoftware,KiCad,Pcbnew,(5.99.0-7233-g6a28d6af27)*%
%TF.CreationDate,2021-08-16T18:37:05+02:00*%
%TF.ProjectId,lna,6c6e612e-6b69-4636-9164-5f7063625858,rev?*%
%TF.SameCoordinates,Original*%
%TF.FileFunction,Legend,Top*%
%TF.FilePolarity,Positive*%
%FSLAX46Y46*%
G04 Gerber Fmt 4.6, Leading zero omitted, Abs format (unit mm)*
G04 Created by KiCad (PCBNEW (5.99.0-7233-g6a28d6af27)) date 2021-08-16 18:37:05*
%MOMM*%
%LPD*%
G01*
G04 APERTURE LIST*
%ADD10C,0.200000*%
%ADD11C,0.250000*%
%ADD12C,0.150000*%
%ADD13C,0.120000*%
G04 APERTURE END LIST*
D10*
X150361904Y-102661904D02*
X150628571Y-103461904D01*
X150895238Y-102661904D01*
X151161904Y-103385714D02*
X151200000Y-103423809D01*
X151161904Y-103461904D01*
X151123809Y-103423809D01*
X151161904Y-103385714D01*
X151161904Y-103461904D01*
X151504761Y-102738095D02*
X151542857Y-102700000D01*
X151619047Y-102661904D01*
X151809523Y-102661904D01*
X151885714Y-102700000D01*
X151923809Y-102738095D01*
X151961904Y-102814285D01*
X151961904Y-102890476D01*
X151923809Y-103004761D01*
X151466666Y-103461904D01*
X151961904Y-103461904D01*
D11*
X145879523Y-88702380D02*
X145403333Y-88702380D01*
X145355714Y-89178571D01*
X145403333Y-89130952D01*
X145498571Y-89083333D01*
X145736666Y-89083333D01*
X145831904Y-89130952D01*
X145879523Y-89178571D01*
X145927142Y-89273809D01*
X145927142Y-89511904D01*
X145879523Y-89607142D01*
X145831904Y-89654761D01*
X145736666Y-89702380D01*
X145498571Y-89702380D01*
X145403333Y-89654761D01*
X145355714Y-89607142D01*
X146212857Y-88702380D02*
X146546190Y-89702380D01*
X146879523Y-88702380D01*
X143761904Y-88750000D02*
X143666666Y-88702380D01*
X143523809Y-88702380D01*
X143380952Y-88750000D01*
X143285714Y-88845238D01*
X143238095Y-88940476D01*
X143190476Y-89130952D01*
X143190476Y-89273809D01*
X143238095Y-89464285D01*
X143285714Y-89559523D01*
X143380952Y-89654761D01*
X143523809Y-89702380D01*
X143619047Y-89702380D01*
X143761904Y-89654761D01*
X143809523Y-89607142D01*
X143809523Y-89273809D01*
X143619047Y-89273809D01*
X158600000Y-88942857D02*
X158828571Y-88942857D01*
X158942857Y-89000000D01*
X159057142Y-89114285D01*
X159114285Y-89342857D01*
X159114285Y-89742857D01*
X159057142Y-89971428D01*
X158942857Y-90085714D01*
X158828571Y-90142857D01*
X158600000Y-90142857D01*
X158485714Y-90085714D01*
X158371428Y-89971428D01*
X158314285Y-89742857D01*
X158314285Y-89342857D01*
X158371428Y-89114285D01*
X158485714Y-89000000D01*
X158600000Y-88942857D01*
X159628571Y-88942857D02*
X159628571Y-89914285D01*
X159685714Y-90028571D01*
X159742857Y-90085714D01*
X159857142Y-90142857D01*
X160085714Y-90142857D01*
X160200000Y-90085714D01*
X160257142Y-90028571D01*
X160314285Y-89914285D01*
X160314285Y-88942857D01*
X160714285Y-88942857D02*
X161400000Y-88942857D01*
X161057142Y-90142857D02*
X161057142Y-88942857D01*
X129571428Y-90142857D02*
X129571428Y-88942857D01*
X130142857Y-90142857D02*
X130142857Y-88942857D01*
X130828571Y-90142857D01*
X130828571Y-88942857D01*
D12*
%TO.C,J1*%
X129950000Y-99389285D02*
X129950000Y-99925000D01*
X129914285Y-100032142D01*
X129842857Y-100103571D01*
X129735714Y-100139285D01*
X129664285Y-100139285D01*
X130700000Y-100139285D02*
X130271428Y-100139285D01*
X130485714Y-100139285D02*
X130485714Y-99389285D01*
X130414285Y-99496428D01*
X130342857Y-99567857D01*
X130271428Y-99603571D01*
%TO.C,J3*%
X159550000Y-99089285D02*
X159550000Y-99625000D01*
X159514285Y-99732142D01*
X159442857Y-99803571D01*
X159335714Y-99839285D01*
X159264285Y-99839285D01*
X159835714Y-99089285D02*
X160300000Y-99089285D01*
X160050000Y-99375000D01*
X160157142Y-99375000D01*
X160228571Y-99410714D01*
X160264285Y-99446428D01*
X160300000Y-99517857D01*
X160300000Y-99696428D01*
X160264285Y-99767857D01*
X160228571Y-99803571D01*
X160157142Y-99839285D01*
X159942857Y-99839285D01*
X159871428Y-99803571D01*
X159835714Y-99767857D01*
%TO.C,C1*%
X134187500Y-90767857D02*
X134151785Y-90803571D01*
X134044642Y-90839285D01*
X133973214Y-90839285D01*
X133866071Y-90803571D01*
X133794642Y-90732142D01*
X133758928Y-90660714D01*
X133723214Y-90517857D01*
X133723214Y-90410714D01*
X133758928Y-90267857D01*
X133794642Y-90196428D01*
X133866071Y-90125000D01*
X133973214Y-90089285D01*
X134044642Y-90089285D01*
X134151785Y-90125000D01*
X134187500Y-90160714D01*
X134901785Y-90839285D02*
X134473214Y-90839285D01*
X134687500Y-90839285D02*
X134687500Y-90089285D01*
X134616071Y-90196428D01*
X134544642Y-90267857D01*
X134473214Y-90303571D01*
%TO.C,C6*%
X154675000Y-86467857D02*
X154639285Y-86503571D01*
X154532142Y-86539285D01*
X154460714Y-86539285D01*
X154353571Y-86503571D01*
X154282142Y-86432142D01*
X154246428Y-86360714D01*
X154210714Y-86217857D01*
X154210714Y-86110714D01*
X154246428Y-85967857D01*
X154282142Y-85896428D01*
X154353571Y-85825000D01*
X154460714Y-85789285D01*
X154532142Y-85789285D01*
X154639285Y-85825000D01*
X154675000Y-85860714D01*
X155317857Y-85789285D02*
X155175000Y-85789285D01*
X155103571Y-85825000D01*
X155067857Y-85860714D01*
X154996428Y-85967857D01*
X154960714Y-86110714D01*
X154960714Y-86396428D01*
X154996428Y-86467857D01*
X155032142Y-86503571D01*
X155103571Y-86539285D01*
X155246428Y-86539285D01*
X155317857Y-86503571D01*
X155353571Y-86467857D01*
X155389285Y-86396428D01*
X155389285Y-86217857D01*
X155353571Y-86146428D01*
X155317857Y-86110714D01*
X155246428Y-86075000D01*
X155103571Y-86075000D01*
X155032142Y-86110714D01*
X154996428Y-86146428D01*
X154960714Y-86217857D01*
%TO.C,U1*%
X147128571Y-92189285D02*
X147128571Y-92796428D01*
X147164285Y-92867857D01*
X147200000Y-92903571D01*
X147271428Y-92939285D01*
X147414285Y-92939285D01*
X147485714Y-92903571D01*
X147521428Y-92867857D01*
X147557142Y-92796428D01*
X147557142Y-92189285D01*
X148307142Y-92939285D02*
X147878571Y-92939285D01*
X148092857Y-92939285D02*
X148092857Y-92189285D01*
X148021428Y-92296428D01*
X147950000Y-92367857D01*
X147878571Y-92403571D01*
%TO.C,L2*%
X138012500Y-93689285D02*
X137655357Y-93689285D01*
X137655357Y-92939285D01*
X138226785Y-93010714D02*
X138262500Y-92975000D01*
X138333928Y-92939285D01*
X138512500Y-92939285D01*
X138583928Y-92975000D01*
X138619642Y-93010714D01*
X138655357Y-93082142D01*
X138655357Y-93153571D01*
X138619642Y-93260714D01*
X138191071Y-93689285D01*
X138655357Y-93689285D01*
%TO.C,C2*%
X135787500Y-93687857D02*
X135751785Y-93723571D01*
X135644642Y-93759285D01*
X135573214Y-93759285D01*
X135466071Y-93723571D01*
X135394642Y-93652142D01*
X135358928Y-93580714D01*
X135323214Y-93437857D01*
X135323214Y-93330714D01*
X135358928Y-93187857D01*
X135394642Y-93116428D01*
X135466071Y-93045000D01*
X135573214Y-93009285D01*
X135644642Y-93009285D01*
X135751785Y-93045000D01*
X135787500Y-93080714D01*
X136073214Y-93080714D02*
X136108928Y-93045000D01*
X136180357Y-93009285D01*
X136358928Y-93009285D01*
X136430357Y-93045000D01*
X136466071Y-93080714D01*
X136501785Y-93152142D01*
X136501785Y-93223571D01*
X136466071Y-93330714D01*
X136037500Y-93759285D01*
X136501785Y-93759285D01*
%TO.C,C7*%
X153412500Y-93867857D02*
X153376785Y-93903571D01*
X153269642Y-93939285D01*
X153198214Y-93939285D01*
X153091071Y-93903571D01*
X153019642Y-93832142D01*
X152983928Y-93760714D01*
X152948214Y-93617857D01*
X152948214Y-93510714D01*
X152983928Y-93367857D01*
X153019642Y-93296428D01*
X153091071Y-93225000D01*
X153198214Y-93189285D01*
X153269642Y-93189285D01*
X153376785Y-93225000D01*
X153412500Y-93260714D01*
X153662500Y-93189285D02*
X154162500Y-93189285D01*
X153841071Y-93939285D01*
%TO.C,R1*%
X145125000Y-97209285D02*
X144875000Y-96852142D01*
X144696428Y-97209285D02*
X144696428Y-96459285D01*
X144982142Y-96459285D01*
X145053571Y-96495000D01*
X145089285Y-96530714D01*
X145125000Y-96602142D01*
X145125000Y-96709285D01*
X145089285Y-96780714D01*
X145053571Y-96816428D01*
X144982142Y-96852142D01*
X144696428Y-96852142D01*
X145839285Y-97209285D02*
X145410714Y-97209285D01*
X145625000Y-97209285D02*
X145625000Y-96459285D01*
X145553571Y-96566428D01*
X145482142Y-96637857D01*
X145410714Y-96673571D01*
%TO.C,L4*%
X139275000Y-98639285D02*
X138917857Y-98639285D01*
X138917857Y-97889285D01*
X139846428Y-98139285D02*
X139846428Y-98639285D01*
X139667857Y-97853571D02*
X139489285Y-98389285D01*
X139953571Y-98389285D01*
%TO.C,FB1*%
X149526071Y-86146428D02*
X149276071Y-86146428D01*
X149276071Y-86539285D02*
X149276071Y-85789285D01*
X149633214Y-85789285D01*
X150168928Y-86146428D02*
X150276071Y-86182142D01*
X150311785Y-86217857D01*
X150347500Y-86289285D01*
X150347500Y-86396428D01*
X150311785Y-86467857D01*
X150276071Y-86503571D01*
X150204642Y-86539285D01*
X149918928Y-86539285D01*
X149918928Y-85789285D01*
X150168928Y-85789285D01*
X150240357Y-85825000D01*
X150276071Y-85860714D01*
X150311785Y-85932142D01*
X150311785Y-86003571D01*
X150276071Y-86075000D01*
X150240357Y-86110714D01*
X150168928Y-86146428D01*
X149918928Y-86146428D01*
X151061785Y-86539285D02*
X150633214Y-86539285D01*
X150847500Y-86539285D02*
X150847500Y-85789285D01*
X150776071Y-85896428D01*
X150704642Y-85967857D01*
X150633214Y-86003571D01*
%TO.C,C4*%
X155475000Y-92467857D02*
X155439285Y-92503571D01*
X155332142Y-92539285D01*
X155260714Y-92539285D01*
X155153571Y-92503571D01*
X155082142Y-92432142D01*
X155046428Y-92360714D01*
X155010714Y-92217857D01*
X155010714Y-92110714D01*
X155046428Y-91967857D01*
X155082142Y-91896428D01*
X155153571Y-91825000D01*
X155260714Y-91789285D01*
X155332142Y-91789285D01*
X155439285Y-91825000D01*
X155475000Y-91860714D01*
X156117857Y-92039285D02*
X156117857Y-92539285D01*
X155939285Y-91753571D02*
X155760714Y-92289285D01*
X156225000Y-92289285D01*
%TO.C,L3*%
X140737500Y-93739285D02*
X140380357Y-93739285D01*
X140380357Y-92989285D01*
X140916071Y-92989285D02*
X141380357Y-92989285D01*
X141130357Y-93275000D01*
X141237500Y-93275000D01*
X141308928Y-93310714D01*
X141344642Y-93346428D01*
X141380357Y-93417857D01*
X141380357Y-93596428D01*
X141344642Y-93667857D01*
X141308928Y-93703571D01*
X141237500Y-93739285D01*
X141023214Y-93739285D01*
X140951785Y-93703571D01*
X140916071Y-93667857D01*
%TO.C,L5*%
X150075000Y-92339285D02*
X149717857Y-92339285D01*
X149717857Y-91589285D01*
X150682142Y-91589285D02*
X150325000Y-91589285D01*
X150289285Y-91946428D01*
X150325000Y-91910714D01*
X150396428Y-91875000D01*
X150575000Y-91875000D01*
X150646428Y-91910714D01*
X150682142Y-91946428D01*
X150717857Y-92017857D01*
X150717857Y-92196428D01*
X150682142Y-92267857D01*
X150646428Y-92303571D01*
X150575000Y-92339285D01*
X150396428Y-92339285D01*
X150325000Y-92303571D01*
X150289285Y-92267857D01*
%TO.C,C3*%
X148175000Y-97137857D02*
X148139285Y-97173571D01*
X148032142Y-97209285D01*
X147960714Y-97209285D01*
X147853571Y-97173571D01*
X147782142Y-97102142D01*
X147746428Y-97030714D01*
X147710714Y-96887857D01*
X147710714Y-96780714D01*
X147746428Y-96637857D01*
X147782142Y-96566428D01*
X147853571Y-96495000D01*
X147960714Y-96459285D01*
X148032142Y-96459285D01*
X148139285Y-96495000D01*
X148175000Y-96530714D01*
X148425000Y-96459285D02*
X148889285Y-96459285D01*
X148639285Y-96745000D01*
X148746428Y-96745000D01*
X148817857Y-96780714D01*
X148853571Y-96816428D01*
X148889285Y-96887857D01*
X148889285Y-97066428D01*
X148853571Y-97137857D01*
X148817857Y-97173571D01*
X148746428Y-97209285D01*
X148532142Y-97209285D01*
X148460714Y-97173571D01*
X148425000Y-97137857D01*
%TO.C,L1*%
X134187500Y-99939285D02*
X133830357Y-99939285D01*
X133830357Y-99189285D01*
X134830357Y-99939285D02*
X134401785Y-99939285D01*
X134616071Y-99939285D02*
X134616071Y-99189285D01*
X134544642Y-99296428D01*
X134473214Y-99367857D01*
X134401785Y-99403571D01*
%TO.C,C5*%
X155475000Y-90667857D02*
X155439285Y-90703571D01*
X155332142Y-90739285D01*
X155260714Y-90739285D01*
X155153571Y-90703571D01*
X155082142Y-90632142D01*
X155046428Y-90560714D01*
X155010714Y-90417857D01*
X155010714Y-90310714D01*
X155046428Y-90167857D01*
X155082142Y-90096428D01*
X155153571Y-90025000D01*
X155260714Y-89989285D01*
X155332142Y-89989285D01*
X155439285Y-90025000D01*
X155475000Y-90060714D01*
X156153571Y-89989285D02*
X155796428Y-89989285D01*
X155760714Y-90346428D01*
X155796428Y-90310714D01*
X155867857Y-90275000D01*
X156046428Y-90275000D01*
X156117857Y-90310714D01*
X156153571Y-90346428D01*
X156189285Y-90417857D01*
X156189285Y-90596428D01*
X156153571Y-90667857D01*
X156117857Y-90703571D01*
X156046428Y-90739285D01*
X155867857Y-90739285D01*
X155796428Y-90703571D01*
X155760714Y-90667857D01*
D13*
%TO.C,J1*%
X133410000Y-94800000D02*
X133910000Y-95050000D01*
X133910000Y-95050000D02*
X133910000Y-94550000D01*
X133910000Y-94550000D02*
X133410000Y-94800000D01*
%TO.C,J3*%
X156590000Y-95000000D02*
X156090000Y-94750000D01*
X156090000Y-94750000D02*
X156090000Y-95250000D01*
X156090000Y-95250000D02*
X156590000Y-95000000D01*
%TO.C,C1*%
X133840000Y-92612779D02*
X133840000Y-92287221D01*
X134860000Y-92612779D02*
X134860000Y-92287221D01*
%TO.C,C6*%
X152490000Y-86865000D02*
X152490000Y-88735000D01*
X156400000Y-86865000D02*
X152490000Y-86865000D01*
X152490000Y-88735000D02*
X156400000Y-88735000D01*
%TO.C,U1*%
X146760000Y-91240000D02*
X146760000Y-93960000D01*
X142270000Y-95100000D02*
X142270000Y-93960000D01*
X142040000Y-93960000D02*
X142270000Y-93960000D01*
X146760000Y-93960000D02*
X146530000Y-93960000D01*
X145450000Y-91240000D02*
X146760000Y-91240000D01*
X142040000Y-93960000D02*
X142040000Y-91240000D01*
X142040000Y-91240000D02*
X143350000Y-91240000D01*
%TO.C,L2*%
X138396078Y-95560000D02*
X137878922Y-95560000D01*
X138396078Y-94140000D02*
X137878922Y-94140000D01*
%TO.C,C2*%
X134687221Y-94340000D02*
X135012779Y-94340000D01*
X134687221Y-95360000D02*
X135012779Y-95360000D01*
%TO.C,C7*%
X153374721Y-94490000D02*
X153700279Y-94490000D01*
X153374721Y-95510000D02*
X153700279Y-95510000D01*
%TO.C,R1*%
X145087221Y-97790000D02*
X145412779Y-97790000D01*
X145087221Y-98810000D02*
X145412779Y-98810000D01*
%TO.C,L4*%
X141741422Y-97590000D02*
X142258578Y-97590000D01*
X141741422Y-99010000D02*
X142258578Y-99010000D01*
D12*
%TO.C,FB1*%
X148570890Y-86870890D02*
X151429110Y-86870890D01*
X148570890Y-88729110D02*
X151429110Y-88729110D01*
D13*
%TO.C,J2*%
X142170000Y-88330000D02*
X142170000Y-87000000D01*
X143500000Y-88330000D02*
X142170000Y-88330000D01*
X144770000Y-85670000D02*
X147370000Y-85670000D01*
X147370000Y-88330000D02*
X147370000Y-85670000D01*
X144770000Y-88330000D02*
X147370000Y-88330000D01*
X144770000Y-88330000D02*
X144770000Y-85670000D01*
%TO.C,C4*%
X153362779Y-91690000D02*
X153037221Y-91690000D01*
X153362779Y-92710000D02*
X153037221Y-92710000D01*
%TO.C,L3*%
X141610000Y-95328922D02*
X141610000Y-95846078D01*
X140190000Y-95328922D02*
X140190000Y-95846078D01*
%TO.C,G\u002A\u002A\u002A*%
G36*
X129307116Y-102500983D02*
G01*
X129347380Y-102501693D01*
X129377661Y-102503003D01*
X129399711Y-102505016D01*
X129415282Y-102507836D01*
X129424370Y-102510794D01*
X129466205Y-102534934D01*
X129498841Y-102567319D01*
X129521804Y-102605900D01*
X129534617Y-102648627D01*
X129536806Y-102693453D01*
X129527896Y-102738328D01*
X129507412Y-102781204D01*
X129491931Y-102802144D01*
X129475209Y-102817579D01*
X129452451Y-102833400D01*
X129438942Y-102840936D01*
X129427108Y-102846633D01*
X129416171Y-102850927D01*
X129404054Y-102854016D01*
X129388681Y-102856098D01*
X129367977Y-102857372D01*
X129339864Y-102858035D01*
X129302266Y-102858287D01*
X129256949Y-102858326D01*
X129109853Y-102858326D01*
X129109853Y-102500770D01*
X129255117Y-102500770D01*
X129307116Y-102500983D01*
G37*
G36*
X132629761Y-102502198D02*
G01*
X132686970Y-102503643D01*
X132732836Y-102506038D01*
X132769505Y-102510019D01*
X132799122Y-102516225D01*
X132823835Y-102525294D01*
X132845789Y-102537866D01*
X132867130Y-102554577D01*
X132890005Y-102576067D01*
X132895067Y-102581109D01*
X132933911Y-102626205D01*
X132960901Y-102672687D01*
X132977583Y-102723524D01*
X132982078Y-102748185D01*
X132983851Y-102767820D01*
X132985341Y-102798870D01*
X132986546Y-102839260D01*
X132987464Y-102886914D01*
X132988092Y-102939758D01*
X132988430Y-102995716D01*
X132988473Y-103052714D01*
X132988221Y-103108676D01*
X132987671Y-103161527D01*
X132986821Y-103209192D01*
X132985669Y-103249597D01*
X132984213Y-103280666D01*
X132982644Y-103298902D01*
X132968574Y-103357401D01*
X132942652Y-103410189D01*
X132905734Y-103456086D01*
X132858675Y-103493916D01*
X132828634Y-103510928D01*
X132777263Y-103536334D01*
X132633518Y-103538501D01*
X132489774Y-103540667D01*
X132489774Y-102499591D01*
X132629761Y-102502198D01*
G37*
G36*
X129229601Y-103040529D02*
G01*
X129295963Y-103041381D01*
X129350790Y-103044196D01*
X129395960Y-103049455D01*
X129433349Y-103057638D01*
X129464833Y-103069226D01*
X129492290Y-103084699D01*
X129517597Y-103104538D01*
X129531678Y-103117883D01*
X129566634Y-103161599D01*
X129589968Y-103209799D01*
X129601993Y-103260677D01*
X129603026Y-103312427D01*
X129593380Y-103363245D01*
X129573371Y-103411325D01*
X129543313Y-103454862D01*
X129503521Y-103492050D01*
X129462007Y-103517454D01*
X129449477Y-103523463D01*
X129438181Y-103528064D01*
X129426105Y-103531474D01*
X129411234Y-103533909D01*
X129391553Y-103535586D01*
X129365047Y-103536723D01*
X129329702Y-103537535D01*
X129283503Y-103538240D01*
X129266706Y-103538469D01*
X129109853Y-103540605D01*
X129109853Y-103040478D01*
X129229601Y-103040529D01*
G37*
G36*
X142578100Y-102506841D02*
G01*
X142609550Y-102523547D01*
X142634196Y-102548630D01*
X142650115Y-102579830D01*
X142655388Y-102614889D01*
X142653600Y-102632282D01*
X142648752Y-102644361D01*
X142637930Y-102664873D01*
X142622796Y-102691131D01*
X142605013Y-102720445D01*
X142586244Y-102750125D01*
X142568151Y-102777483D01*
X142552398Y-102799828D01*
X142541621Y-102813401D01*
X142536499Y-102810038D01*
X142525824Y-102796963D01*
X142510965Y-102776044D01*
X142493288Y-102749151D01*
X142485345Y-102736511D01*
X142461399Y-102696842D01*
X142444599Y-102665881D01*
X142434195Y-102641393D01*
X142429436Y-102621144D01*
X142429572Y-102602902D01*
X142433852Y-102584433D01*
X142434036Y-102583852D01*
X142451281Y-102549424D01*
X142477245Y-102522831D01*
X142509438Y-102505994D01*
X142541766Y-102500770D01*
X142578100Y-102506841D01*
G37*
G36*
X133726042Y-102502008D02*
G01*
X133776054Y-102502728D01*
X133814583Y-102503495D01*
X133843637Y-102504521D01*
X133865223Y-102506016D01*
X133881350Y-102508194D01*
X133894026Y-102511266D01*
X133905260Y-102515445D01*
X133917059Y-102520941D01*
X133920257Y-102522510D01*
X133957709Y-102545944D01*
X133993534Y-102577278D01*
X134023458Y-102612384D01*
X134038359Y-102636512D01*
X134048348Y-102660675D01*
X134057547Y-102690560D01*
X134062427Y-102711952D01*
X134065418Y-102764341D01*
X134055845Y-102816645D01*
X134034491Y-102866807D01*
X134002139Y-102912771D01*
X133975879Y-102939163D01*
X133955687Y-102955804D01*
X133935983Y-102968881D01*
X133914750Y-102978860D01*
X133889975Y-102986207D01*
X133859643Y-102991388D01*
X133821739Y-102994869D01*
X133774247Y-102997116D01*
X133719296Y-102998515D01*
X133569189Y-103001464D01*
X133569189Y-102499873D01*
X133726042Y-102502008D01*
G37*
G36*
X140916384Y-102713546D02*
G01*
X140923065Y-102728623D01*
X140932899Y-102753733D01*
X140945393Y-102787471D01*
X140960054Y-102828434D01*
X140976392Y-102875214D01*
X140993912Y-102926409D01*
X141012123Y-102980613D01*
X141030532Y-103036421D01*
X141048647Y-103092429D01*
X141060533Y-103129867D01*
X141083364Y-103202390D01*
X140748359Y-103202390D01*
X140828769Y-102961208D01*
X140847009Y-102906558D01*
X140864020Y-102855712D01*
X140879303Y-102810147D01*
X140892362Y-102771338D01*
X140902701Y-102740760D01*
X140909823Y-102719889D01*
X140913232Y-102710200D01*
X140913348Y-102709907D01*
X140916384Y-102713546D01*
G37*
G36*
X134965886Y-102714185D02*
G01*
X134972439Y-102729815D01*
X134982219Y-102755340D01*
X134994717Y-102789304D01*
X135009422Y-102830252D01*
X135025826Y-102876729D01*
X135043417Y-102927278D01*
X135061687Y-102980444D01*
X135080124Y-103034772D01*
X135098219Y-103088805D01*
X135115461Y-103141088D01*
X135131342Y-103190165D01*
X135131476Y-103190584D01*
X135131878Y-103194255D01*
X135129429Y-103197077D01*
X135122609Y-103199162D01*
X135109899Y-103200619D01*
X135089780Y-103201560D01*
X135060733Y-103202095D01*
X135021239Y-103202335D01*
X134969779Y-103202390D01*
X134969511Y-103202390D01*
X134915674Y-103202242D01*
X134874052Y-103201755D01*
X134843374Y-103200863D01*
X134822365Y-103199500D01*
X134809751Y-103197600D01*
X134804260Y-103195099D01*
X134803771Y-103193847D01*
X134805817Y-103186219D01*
X134811572Y-103167532D01*
X134820465Y-103139523D01*
X134831925Y-103103930D01*
X134845379Y-103062489D01*
X134860256Y-103016938D01*
X134875984Y-102969013D01*
X134891991Y-102920451D01*
X134907706Y-102872989D01*
X134922556Y-102828365D01*
X134935970Y-102788314D01*
X134947377Y-102754574D01*
X134956204Y-102728882D01*
X134961880Y-102712975D01*
X134963072Y-102709907D01*
X134965886Y-102714185D01*
G37*
G36*
X130506901Y-102713218D02*
G01*
X130513724Y-102728253D01*
X130523801Y-102753869D01*
X130536727Y-102788922D01*
X130552103Y-102832268D01*
X130569527Y-102882763D01*
X130588595Y-102939262D01*
X130608908Y-103000623D01*
X130630062Y-103065701D01*
X130644129Y-103109628D01*
X130673657Y-103202390D01*
X130338744Y-103202390D01*
X130419154Y-102961208D01*
X130437395Y-102906558D01*
X130454405Y-102855712D01*
X130469688Y-102810147D01*
X130482747Y-102771338D01*
X130493086Y-102740760D01*
X130500207Y-102719889D01*
X130503616Y-102710200D01*
X130503732Y-102709907D01*
X130506901Y-102713218D01*
G37*
G36*
X148644438Y-102501042D02*
G01*
X148688692Y-102502114D01*
X148723783Y-102504370D01*
X148751874Y-102508194D01*
X148775127Y-102513970D01*
X148795705Y-102522084D01*
X148815768Y-102532918D01*
X148833584Y-102544254D01*
X148876214Y-102580027D01*
X148908367Y-102622599D01*
X148929917Y-102670117D01*
X148940740Y-102720728D01*
X148940711Y-102772578D01*
X148929707Y-102823815D01*
X148907602Y-102872585D01*
X148874272Y-102917035D01*
X148859602Y-102931532D01*
X148837682Y-102950507D01*
X148816940Y-102965369D01*
X148795282Y-102976659D01*
X148770610Y-102984917D01*
X148740828Y-102990683D01*
X148703841Y-102994498D01*
X148657550Y-102996902D01*
X148600053Y-102998431D01*
X148557079Y-102999054D01*
X148518689Y-102999165D01*
X148486923Y-102998792D01*
X148463818Y-102997968D01*
X148451413Y-102996723D01*
X148449946Y-102996166D01*
X148448788Y-102988458D01*
X148447723Y-102968797D01*
X148446782Y-102938726D01*
X148445997Y-102899785D01*
X148445398Y-102853514D01*
X148445018Y-102801454D01*
X148444887Y-102745887D01*
X148444887Y-102500770D01*
X148588861Y-102500770D01*
X148644438Y-102501042D01*
G37*
G36*
X128213364Y-102038124D02*
G01*
X128235803Y-101996250D01*
X128270108Y-101956929D01*
X128314711Y-101921444D01*
X128368045Y-101891082D01*
X128417484Y-101870807D01*
X128458831Y-101856494D01*
X138978444Y-101854794D01*
X139437397Y-101854721D01*
X139883050Y-101854652D01*
X140315595Y-101854588D01*
X140735223Y-101854528D01*
X141142127Y-101854473D01*
X141536498Y-101854423D01*
X141918530Y-101854378D01*
X142288413Y-101854338D01*
X142646340Y-101854303D01*
X142992504Y-101854274D01*
X143327096Y-101854251D01*
X143650308Y-101854233D01*
X143962332Y-101854222D01*
X144263361Y-101854216D01*
X144553586Y-101854217D01*
X144833200Y-101854224D01*
X145102395Y-101854238D01*
X145361362Y-101854259D01*
X145610294Y-101854286D01*
X145849384Y-101854320D01*
X146078822Y-101854362D01*
X146298802Y-101854411D01*
X146509515Y-101854467D01*
X146711153Y-101854531D01*
X146903909Y-101854603D01*
X147087974Y-101854683D01*
X147263541Y-101854771D01*
X147430802Y-101854867D01*
X147589948Y-101854971D01*
X147741173Y-101855084D01*
X147884667Y-101855206D01*
X148020623Y-101855336D01*
X148149234Y-101855476D01*
X148270691Y-101855625D01*
X148385186Y-101855783D01*
X148492911Y-101855950D01*
X148594059Y-101856127D01*
X148688822Y-101856314D01*
X148777391Y-101856510D01*
X148859959Y-101856717D01*
X148936718Y-101856934D01*
X149007860Y-101857161D01*
X149073577Y-101857399D01*
X149134061Y-101857648D01*
X149189505Y-101857907D01*
X149240100Y-101858177D01*
X149286038Y-101858458D01*
X149327511Y-101858751D01*
X149364712Y-101859055D01*
X149397833Y-101859371D01*
X149427066Y-101859698D01*
X149452602Y-101860037D01*
X149474635Y-101860388D01*
X149493355Y-101860752D01*
X149508956Y-101861128D01*
X149521628Y-101861516D01*
X149531566Y-101861917D01*
X149538959Y-101862330D01*
X149544001Y-101862757D01*
X149546598Y-101863133D01*
X149603909Y-101879784D01*
X149657402Y-101904518D01*
X149704998Y-101935818D01*
X149744616Y-101972165D01*
X149774176Y-102012042D01*
X149786729Y-102038374D01*
X149788722Y-102043824D01*
X149790519Y-102049437D01*
X149792129Y-102055908D01*
X149793564Y-102063927D01*
X149794833Y-102074186D01*
X149795947Y-102087377D01*
X149796915Y-102104192D01*
X149797749Y-102125322D01*
X149798457Y-102151459D01*
X149799050Y-102183294D01*
X149799539Y-102221521D01*
X149799933Y-102266829D01*
X149800243Y-102319912D01*
X149800478Y-102381460D01*
X149800650Y-102452166D01*
X149800768Y-102532722D01*
X149800842Y-102623818D01*
X149800882Y-102726147D01*
X149800899Y-102840400D01*
X149800903Y-102967270D01*
X149800903Y-103930490D01*
X149786635Y-103968622D01*
X149764886Y-104009125D01*
X149731819Y-104047416D01*
X149689594Y-104081912D01*
X149640373Y-104111032D01*
X149586315Y-104133193D01*
X149547915Y-104143476D01*
X149544722Y-104143909D01*
X149539207Y-104144330D01*
X149531176Y-104144738D01*
X149520439Y-104145133D01*
X149506805Y-104145517D01*
X149490081Y-104145888D01*
X149470077Y-104146248D01*
X149446601Y-104146595D01*
X149419461Y-104146932D01*
X149388467Y-104147257D01*
X149353427Y-104147570D01*
X149314150Y-104147873D01*
X149270444Y-104148165D01*
X149222117Y-104148446D01*
X149168979Y-104148716D01*
X149110838Y-104148976D01*
X149047502Y-104149226D01*
X148978780Y-104149466D01*
X148904482Y-104149696D01*
X148824414Y-104149917D01*
X148738387Y-104150127D01*
X148646208Y-104150329D01*
X148547687Y-104150521D01*
X148442631Y-104150704D01*
X148330850Y-104150879D01*
X148212151Y-104151044D01*
X148086345Y-104151202D01*
X147953238Y-104151350D01*
X147812641Y-104151491D01*
X147664361Y-104151624D01*
X147508207Y-104151748D01*
X147343987Y-104151866D01*
X147171511Y-104151975D01*
X146990587Y-104152077D01*
X146801023Y-104152172D01*
X146602628Y-104152260D01*
X146395211Y-104152342D01*
X146178580Y-104152416D01*
X145952544Y-104152484D01*
X145716912Y-104152546D01*
X145471492Y-104152601D01*
X145216092Y-104152651D01*
X144950522Y-104152694D01*
X144674589Y-104152732D01*
X144388103Y-104152765D01*
X144090873Y-104152792D01*
X143782706Y-104152814D01*
X143463411Y-104152831D01*
X143132798Y-104152843D01*
X142790673Y-104152851D01*
X142436847Y-104152854D01*
X142071128Y-104152852D01*
X141693324Y-104152847D01*
X141303245Y-104152837D01*
X140900697Y-104152824D01*
X140485491Y-104152807D01*
X140057435Y-104152786D01*
X139616337Y-104152763D01*
X139162006Y-104152736D01*
X138996626Y-104152725D01*
X138620068Y-104152700D01*
X138246721Y-104152671D01*
X137876815Y-104152639D01*
X137510578Y-104152603D01*
X137148240Y-104152565D01*
X136790031Y-104152523D01*
X136436179Y-104152478D01*
X136086915Y-104152431D01*
X135742466Y-104152381D01*
X135403063Y-104152328D01*
X135068935Y-104152272D01*
X134740311Y-104152214D01*
X134417420Y-104152153D01*
X134100492Y-104152090D01*
X133789756Y-104152025D01*
X133485441Y-104151957D01*
X133187777Y-104151887D01*
X132896993Y-104151815D01*
X132613317Y-104151741D01*
X132336981Y-104151665D01*
X132068211Y-104151586D01*
X131807239Y-104151507D01*
X131554293Y-104151425D01*
X131309603Y-104151342D01*
X131073398Y-104151257D01*
X130845906Y-104151170D01*
X130627359Y-104151083D01*
X130417984Y-104150993D01*
X130218011Y-104150903D01*
X130027669Y-104150811D01*
X129847188Y-104150718D01*
X129676797Y-104150624D01*
X129516725Y-104150529D01*
X129367201Y-104150434D01*
X129228456Y-104150337D01*
X129100717Y-104150239D01*
X128984215Y-104150141D01*
X128879178Y-104150042D01*
X128785837Y-104149943D01*
X128704419Y-104149843D01*
X128635156Y-104149743D01*
X128578274Y-104149643D01*
X128534006Y-104149542D01*
X128502578Y-104149441D01*
X128484221Y-104149340D01*
X128479070Y-104149255D01*
X128412141Y-104131878D01*
X128355718Y-104109307D01*
X128307430Y-104080383D01*
X128265736Y-104044771D01*
X128236256Y-104010903D01*
X128216950Y-103977471D01*
X128213364Y-103968622D01*
X128199097Y-103930490D01*
X128199097Y-103129409D01*
X128927693Y-103129409D01*
X128927699Y-103225899D01*
X128927769Y-103310523D01*
X128927953Y-103384095D01*
X128928300Y-103447426D01*
X128928859Y-103501330D01*
X128929679Y-103546621D01*
X128930811Y-103584112D01*
X128932303Y-103614616D01*
X128934204Y-103638945D01*
X128936564Y-103657914D01*
X128939433Y-103672335D01*
X128942859Y-103683022D01*
X128946892Y-103690787D01*
X128951582Y-103696445D01*
X128956977Y-103700808D01*
X128963127Y-103704689D01*
X128969461Y-103708512D01*
X128976109Y-103712361D01*
X128983363Y-103715403D01*
X128992747Y-103717713D01*
X129005787Y-103719363D01*
X129024006Y-103720427D01*
X129048931Y-103720977D01*
X129082086Y-103721087D01*
X129124995Y-103720831D01*
X129179185Y-103720281D01*
X129207676Y-103719958D01*
X129268590Y-103719190D01*
X129317772Y-103718365D01*
X129356981Y-103717371D01*
X129387977Y-103716095D01*
X129412521Y-103714425D01*
X129432372Y-103712249D01*
X129449291Y-103709455D01*
X129465037Y-103705931D01*
X129476948Y-103702792D01*
X129546521Y-103676853D01*
X129590566Y-103650644D01*
X130012896Y-103650644D01*
X130013453Y-103660261D01*
X130015260Y-103667924D01*
X130018102Y-103674408D01*
X130021765Y-103680488D01*
X130025835Y-103686633D01*
X130045714Y-103707299D01*
X130072625Y-103718058D01*
X130107760Y-103719641D01*
X130131530Y-103716733D01*
X130147449Y-103710418D01*
X130161118Y-103698357D01*
X130162579Y-103696743D01*
X130171220Y-103683735D01*
X130181883Y-103661445D01*
X130194945Y-103628935D01*
X130210784Y-103585265D01*
X130229470Y-103530420D01*
X130278094Y-103384541D01*
X130734602Y-103384541D01*
X130779939Y-103521155D01*
X130793950Y-103562922D01*
X130807125Y-103601357D01*
X130818681Y-103634240D01*
X130827835Y-103659353D01*
X130833805Y-103674478D01*
X130834798Y-103676619D01*
X130853390Y-103699566D01*
X130879890Y-103714748D01*
X130910559Y-103721212D01*
X130941658Y-103718004D01*
X130962266Y-103709137D01*
X130981506Y-103691473D01*
X130996913Y-103666846D01*
X131005061Y-103641188D01*
X131005577Y-103634145D01*
X131003487Y-103625765D01*
X130997407Y-103605479D01*
X130987630Y-103574179D01*
X130974443Y-103532757D01*
X130958136Y-103482104D01*
X130939000Y-103423111D01*
X130917323Y-103356670D01*
X130893395Y-103283672D01*
X130867506Y-103205008D01*
X130839946Y-103121570D01*
X130811004Y-103034249D01*
X130796420Y-102990358D01*
X130761533Y-102885471D01*
X130730612Y-102792626D01*
X130703367Y-102711062D01*
X130679505Y-102640018D01*
X130673792Y-102623158D01*
X131229122Y-102623158D01*
X131229127Y-102687713D01*
X131229226Y-102762677D01*
X131229404Y-102848875D01*
X131229648Y-102947131D01*
X131229861Y-103028130D01*
X131231580Y-103673550D01*
X131248446Y-103691696D01*
X131268372Y-103709241D01*
X131289989Y-103718385D01*
X131318802Y-103721402D01*
X131320451Y-103721431D01*
X131346328Y-103718098D01*
X131368171Y-103705380D01*
X131369514Y-103704265D01*
X131385344Y-103689083D01*
X131397360Y-103674385D01*
X131398704Y-103672220D01*
X131400497Y-103665606D01*
X131402104Y-103651885D01*
X131403543Y-103630338D01*
X131404833Y-103600241D01*
X131405993Y-103560875D01*
X131407039Y-103511517D01*
X131407992Y-103451447D01*
X131408869Y-103379943D01*
X131409689Y-103296284D01*
X131410358Y-103214616D01*
X131413731Y-102771462D01*
X131672565Y-103236774D01*
X131721839Y-103325244D01*
X131765043Y-103402555D01*
X131802578Y-103469392D01*
X131834842Y-103526438D01*
X131862235Y-103574374D01*
X131885156Y-103613885D01*
X131904006Y-103645653D01*
X131919183Y-103670362D01*
X131931088Y-103688694D01*
X131940119Y-103701333D01*
X131946676Y-103708962D01*
X131950517Y-103711973D01*
X131977436Y-103720381D01*
X132007215Y-103721322D01*
X132034301Y-103715037D01*
X132047113Y-103707771D01*
X132053377Y-103703027D01*
X132058911Y-103698705D01*
X132063761Y-103693983D01*
X132067970Y-103688044D01*
X132071585Y-103680068D01*
X132074651Y-103669236D01*
X132077212Y-103654729D01*
X132079314Y-103635728D01*
X132081001Y-103611413D01*
X132082320Y-103580967D01*
X132083314Y-103543569D01*
X132084030Y-103498401D01*
X132084512Y-103444644D01*
X132084805Y-103381478D01*
X132084954Y-103308084D01*
X132085006Y-103223644D01*
X132085004Y-103129900D01*
X132307617Y-103129900D01*
X132307627Y-103225559D01*
X132307693Y-103309375D01*
X132307853Y-103382170D01*
X132308147Y-103444770D01*
X132308616Y-103497998D01*
X132309298Y-103542680D01*
X132310233Y-103579638D01*
X132311460Y-103609697D01*
X132313020Y-103633682D01*
X132314951Y-103652417D01*
X132317294Y-103666725D01*
X132320087Y-103677432D01*
X132323371Y-103685361D01*
X132327185Y-103691337D01*
X132331569Y-103696184D01*
X132336561Y-103700726D01*
X132340387Y-103704118D01*
X132348018Y-103710132D01*
X132357157Y-103714879D01*
X132369352Y-103718488D01*
X132386150Y-103721085D01*
X132409098Y-103722798D01*
X132439743Y-103723754D01*
X132479631Y-103724082D01*
X132530310Y-103723907D01*
X132575984Y-103723527D01*
X132640564Y-103722641D01*
X132693123Y-103721276D01*
X132735124Y-103719356D01*
X132768035Y-103716801D01*
X132793320Y-103713536D01*
X132804165Y-103711483D01*
X132875386Y-103689363D01*
X132942159Y-103655299D01*
X133002938Y-103610524D01*
X133056177Y-103556273D01*
X133100331Y-103493777D01*
X133117842Y-103461218D01*
X133128273Y-103439315D01*
X133137047Y-103419116D01*
X133144296Y-103399256D01*
X133150155Y-103378364D01*
X133154758Y-103355074D01*
X133158240Y-103328017D01*
X133160735Y-103295826D01*
X133162376Y-103257133D01*
X133163299Y-103210569D01*
X133163637Y-103154767D01*
X133163594Y-103129386D01*
X133387029Y-103129386D01*
X133387036Y-103225906D01*
X133387106Y-103310558D01*
X133387291Y-103384154D01*
X133387638Y-103447506D01*
X133388198Y-103501428D01*
X133389020Y-103546732D01*
X133390153Y-103584229D01*
X133391646Y-103614733D01*
X133393549Y-103639055D01*
X133395910Y-103658008D01*
X133398780Y-103672404D01*
X133402207Y-103683056D01*
X133406241Y-103690776D01*
X133410932Y-103696376D01*
X133416327Y-103700669D01*
X133422478Y-103704467D01*
X133428797Y-103708193D01*
X133452256Y-103717815D01*
X133477741Y-103721807D01*
X133478114Y-103721808D01*
X133503538Y-103717935D01*
X133527122Y-103708380D01*
X133527431Y-103708193D01*
X133537858Y-103701388D01*
X133546388Y-103694019D01*
X133553212Y-103684738D01*
X133558521Y-103672196D01*
X133562503Y-103655044D01*
X133565349Y-103631934D01*
X133565472Y-103629958D01*
X134471219Y-103629958D01*
X134475834Y-103665162D01*
X134491000Y-103692691D01*
X134515414Y-103711316D01*
X134547774Y-103719804D01*
X134566426Y-103719869D01*
X134591166Y-103716433D01*
X134608432Y-103708896D01*
X134621483Y-103697653D01*
X134629187Y-103687663D01*
X134637646Y-103672115D01*
X134647475Y-103649490D01*
X134659290Y-103618272D01*
X134673705Y-103576943D01*
X134688970Y-103531187D01*
X134737284Y-103384366D01*
X134967211Y-103386140D01*
X135197139Y-103387915D01*
X135248383Y-103539620D01*
X135264772Y-103587870D01*
X135277698Y-103624980D01*
X135287906Y-103652629D01*
X135296144Y-103672497D01*
X135303156Y-103686263D01*
X135309689Y-103695606D01*
X135316489Y-103702206D01*
X135322551Y-103706592D01*
X135352468Y-103719464D01*
X135383413Y-103721000D01*
X135412741Y-103712562D01*
X135437806Y-103695515D01*
X135455963Y-103671221D01*
X135464564Y-103641044D01*
X135464913Y-103633240D01*
X135462817Y-103624622D01*
X135456764Y-103604289D01*
X135447111Y-103573312D01*
X135434212Y-103532763D01*
X135418424Y-103483710D01*
X135400102Y-103427226D01*
X135379600Y-103364381D01*
X135357276Y-103296245D01*
X135333484Y-103223889D01*
X135308579Y-103148384D01*
X135282917Y-103070801D01*
X135256854Y-102992210D01*
X135230745Y-102913681D01*
X135204945Y-102836286D01*
X135179810Y-102761096D01*
X135155696Y-102689180D01*
X135147205Y-102663947D01*
X135686993Y-102663947D01*
X135689385Y-102728412D01*
X135703514Y-102791767D01*
X135729379Y-102852466D01*
X135766981Y-102908967D01*
X135794705Y-102939742D01*
X135806896Y-102951609D01*
X135818782Y-102962232D01*
X135831759Y-102972425D01*
X135847220Y-102983002D01*
X135866559Y-102994779D01*
X135891171Y-103008570D01*
X135922450Y-103025190D01*
X135961790Y-103045454D01*
X136010585Y-103070176D01*
X136062941Y-103096513D01*
X136114588Y-103122627D01*
X136163083Y-103147484D01*
X136206938Y-103170295D01*
X136244660Y-103190270D01*
X136274760Y-103206621D01*
X136295747Y-103218558D01*
X136306120Y-103225282D01*
X136335499Y-103258416D01*
X136355037Y-103298558D01*
X136364223Y-103342965D01*
X136362543Y-103388894D01*
X136349484Y-103433604D01*
X136346343Y-103440381D01*
X136321692Y-103479362D01*
X136290380Y-103508364D01*
X136251729Y-103527602D01*
X136205060Y-103537289D01*
X136149694Y-103537640D01*
X136084953Y-103528869D01*
X136073414Y-103526580D01*
X136003401Y-103508872D01*
X135939935Y-103485237D01*
X135876693Y-103453236D01*
X135863421Y-103445562D01*
X135836722Y-103430532D01*
X135812337Y-103418038D01*
X135793901Y-103409886D01*
X135787858Y-103407960D01*
X135764581Y-103408531D01*
X135738477Y-103417399D01*
X135714785Y-103432049D01*
X135698742Y-103449962D01*
X135698141Y-103451079D01*
X135689357Y-103478428D01*
X135688008Y-103508327D01*
X135693920Y-103535416D01*
X135701290Y-103548618D01*
X135718937Y-103565434D01*
X135746849Y-103585306D01*
X135782526Y-103606923D01*
X135823467Y-103628972D01*
X135867172Y-103650140D01*
X135911139Y-103669117D01*
X135952868Y-103684588D01*
X135971524Y-103690429D01*
X136035619Y-103705875D01*
X136100808Y-103715788D01*
X136164279Y-103720065D01*
X136223224Y-103718601D01*
X136274834Y-103711292D01*
X136304570Y-103702832D01*
X136365044Y-103674004D01*
X136419898Y-103634511D01*
X136466713Y-103586402D01*
X136500010Y-103537363D01*
X136527028Y-103475397D01*
X136541768Y-103410377D01*
X136544490Y-103344175D01*
X136535456Y-103278662D01*
X136514926Y-103215711D01*
X136483162Y-103157194D01*
X136440423Y-103104983D01*
X136439671Y-103104229D01*
X136428003Y-103092909D01*
X136416246Y-103082580D01*
X136403019Y-103072441D01*
X136386943Y-103061689D01*
X136366638Y-103049523D01*
X136340722Y-103035140D01*
X136307818Y-103017737D01*
X136266543Y-102996513D01*
X136215519Y-102970666D01*
X136173427Y-102949476D01*
X136117564Y-102921113D01*
X136066119Y-102894450D01*
X136020441Y-102870222D01*
X135981881Y-102849162D01*
X135951787Y-102832004D01*
X135931510Y-102819481D01*
X135923754Y-102813753D01*
X135894726Y-102779133D01*
X135876582Y-102739246D01*
X135868991Y-102696324D01*
X135870920Y-102664228D01*
X136767167Y-102664228D01*
X136769939Y-102730386D01*
X136785034Y-102795014D01*
X136811941Y-102856328D01*
X136850154Y-102912545D01*
X136874359Y-102939207D01*
X136886476Y-102951078D01*
X136898167Y-102961652D01*
X136910799Y-102971728D01*
X136925742Y-102982106D01*
X136944363Y-102993585D01*
X136968029Y-103006965D01*
X136998109Y-103023045D01*
X137035971Y-103042623D01*
X137082983Y-103066501D01*
X137140512Y-103095476D01*
X137149618Y-103100052D01*
X137213763Y-103132404D01*
X137266930Y-103159642D01*
X137310261Y-103182591D01*
X137344895Y-103202073D01*
X137371971Y-103218913D01*
X137392629Y-103233932D01*
X137408010Y-103247955D01*
X137419253Y-103261804D01*
X137427497Y-103276303D01*
X137433884Y-103292276D01*
X137439157Y-103309182D01*
X137446030Y-103355276D01*
X137440940Y-103400877D01*
X137425059Y-103443643D01*
X137399560Y-103481233D01*
X137365612Y-103511307D01*
X137328606Y-103530082D01*
X137291909Y-103537786D01*
X137246367Y-103538838D01*
X137194549Y-103533787D01*
X137139019Y-103523183D01*
X137082345Y-103507575D01*
X137027093Y-103487511D01*
X136975830Y-103463540D01*
X136950928Y-103449299D01*
X136916318Y-103428934D01*
X136889684Y-103415958D01*
X136868340Y-103409492D01*
X136849598Y-103408659D01*
X136834830Y-103411417D01*
X136804058Y-103425816D01*
X136781809Y-103448537D01*
X136769199Y-103476868D01*
X136767345Y-103508099D01*
X136777362Y-103539517D01*
X136780113Y-103544333D01*
X136795780Y-103561847D01*
X136822148Y-103582166D01*
X136857025Y-103604115D01*
X136898220Y-103626521D01*
X136943540Y-103648210D01*
X136990795Y-103668007D01*
X137037791Y-103684739D01*
X137048516Y-103688086D01*
X137108487Y-103703488D01*
X137170295Y-103714380D01*
X137230687Y-103720474D01*
X137286409Y-103721481D01*
X137334209Y-103717112D01*
X137347144Y-103714568D01*
X137398056Y-103697651D01*
X137449470Y-103671248D01*
X137496364Y-103638183D01*
X137518219Y-103618372D01*
X137563263Y-103564200D01*
X137596351Y-103504842D01*
X137617320Y-103441671D01*
X137626006Y-103376058D01*
X137622246Y-103309375D01*
X137605877Y-103242992D01*
X137576736Y-103178281D01*
X137571677Y-103169516D01*
X137558819Y-103148832D01*
X137545659Y-103130432D01*
X137530945Y-103113448D01*
X137513425Y-103097011D01*
X137491845Y-103080252D01*
X137464953Y-103062304D01*
X137431497Y-103042297D01*
X137390223Y-103019364D01*
X137339879Y-102992634D01*
X137279212Y-102961241D01*
X137248899Y-102945713D01*
X137197082Y-102919051D01*
X137148395Y-102893673D01*
X137104312Y-102870372D01*
X137066308Y-102849942D01*
X137035858Y-102833175D01*
X137014438Y-102820866D01*
X137003521Y-102813806D01*
X137003299Y-102813624D01*
X136989219Y-102798090D01*
X136974164Y-102775948D01*
X136965578Y-102760295D01*
X136955865Y-102738298D01*
X136950822Y-102719090D01*
X136949406Y-102696838D01*
X136950133Y-102673932D01*
X136958097Y-102625247D01*
X136977156Y-102583798D01*
X137008054Y-102548164D01*
X137022061Y-102536605D01*
X137046957Y-102520163D01*
X137072698Y-102509347D01*
X137102493Y-102503474D01*
X137139548Y-102501859D01*
X137178486Y-102503285D01*
X137224790Y-102507051D01*
X137267399Y-102513092D01*
X137310535Y-102522276D01*
X137358419Y-102535469D01*
X137402212Y-102549241D01*
X137431793Y-102558764D01*
X137451968Y-102564436D01*
X137466156Y-102566597D01*
X137477775Y-102565590D01*
X137490244Y-102561754D01*
X137498078Y-102558800D01*
X137527189Y-102541300D01*
X137546806Y-102516291D01*
X137556031Y-102486562D01*
X137553965Y-102454903D01*
X137540921Y-102425871D01*
X137521935Y-102407543D01*
X137489877Y-102389416D01*
X137469517Y-102381331D01*
X138392828Y-102381331D01*
X138392828Y-103666853D01*
X138410830Y-103688247D01*
X138425807Y-103703424D01*
X138440195Y-103714028D01*
X138442876Y-103715323D01*
X138452400Y-103716520D01*
X138473969Y-103717651D01*
X138506138Y-103718687D01*
X138547458Y-103719599D01*
X138596483Y-103720360D01*
X138651766Y-103720940D01*
X138711860Y-103721312D01*
X138754447Y-103721431D01*
X139051975Y-103721859D01*
X139074898Y-103706460D01*
X139097954Y-103683717D01*
X139110449Y-103655555D01*
X139112356Y-103624990D01*
X139103647Y-103595034D01*
X139084295Y-103568702D01*
X139076215Y-103561810D01*
X139051671Y-103543081D01*
X138568233Y-103538929D01*
X138568233Y-103127997D01*
X139337308Y-103127997D01*
X139337314Y-103224649D01*
X139337384Y-103309431D01*
X139337568Y-103383154D01*
X139337914Y-103446630D01*
X139338471Y-103500670D01*
X139339289Y-103546086D01*
X139340417Y-103583688D01*
X139341904Y-103614289D01*
X139343798Y-103638698D01*
X139346150Y-103657729D01*
X139349009Y-103672192D01*
X139352423Y-103682898D01*
X139356441Y-103690660D01*
X139361113Y-103696287D01*
X139366488Y-103700592D01*
X139372615Y-103704386D01*
X139379076Y-103708193D01*
X139408828Y-103719373D01*
X139441652Y-103720740D01*
X139471577Y-103712084D01*
X139489220Y-103699147D01*
X139503287Y-103683412D01*
X139505830Y-103679135D01*
X139508027Y-103673689D01*
X139509913Y-103666080D01*
X139511521Y-103655312D01*
X139512886Y-103640392D01*
X139514042Y-103620323D01*
X139515025Y-103594112D01*
X139515868Y-103560764D01*
X139516606Y-103519283D01*
X139517273Y-103468675D01*
X139517904Y-103407945D01*
X139518533Y-103336099D01*
X139519195Y-103252141D01*
X139519468Y-103216082D01*
X139522842Y-102767649D01*
X139778514Y-103228128D01*
X139829845Y-103320328D01*
X139876469Y-103403563D01*
X139918179Y-103477473D01*
X139954766Y-103541696D01*
X139986021Y-103595872D01*
X140011737Y-103639641D01*
X140031705Y-103672640D01*
X140045717Y-103694509D01*
X140053564Y-103704887D01*
X140053946Y-103705233D01*
X140080317Y-103719306D01*
X140110284Y-103722583D01*
X140140381Y-103715764D01*
X140167143Y-103699551D01*
X140184756Y-103678780D01*
X140186899Y-103674820D01*
X140188787Y-103669906D01*
X140190437Y-103663208D01*
X140191863Y-103653896D01*
X140192174Y-103650644D01*
X140422510Y-103650644D01*
X140423068Y-103660261D01*
X140424875Y-103667924D01*
X140427717Y-103674408D01*
X140431380Y-103680488D01*
X140435450Y-103686633D01*
X140455329Y-103707299D01*
X140482239Y-103718058D01*
X140517375Y-103719641D01*
X140541144Y-103716733D01*
X140557064Y-103710418D01*
X140570733Y-103698357D01*
X140572194Y-103696743D01*
X140580831Y-103683741D01*
X140591489Y-103661462D01*
X140604546Y-103628968D01*
X140620379Y-103585317D01*
X140639114Y-103530332D01*
X140687767Y-103384366D01*
X140917077Y-103386140D01*
X141146387Y-103387915D01*
X141191856Y-103526215D01*
X141205738Y-103567986D01*
X141218710Y-103606171D01*
X141230022Y-103638632D01*
X141238925Y-103663228D01*
X141244670Y-103677821D01*
X141245733Y-103680055D01*
X141264351Y-103701348D01*
X141290911Y-103715312D01*
X141321486Y-103721042D01*
X141352153Y-103717633D01*
X141371881Y-103709137D01*
X141391208Y-103691376D01*
X141406626Y-103666617D01*
X141414709Y-103640806D01*
X141415192Y-103633954D01*
X141413100Y-103625546D01*
X141407019Y-103605234D01*
X141397237Y-103573909D01*
X141384044Y-103532464D01*
X141367730Y-103481790D01*
X141357323Y-103449708D01*
X142179191Y-103449708D01*
X142189271Y-103508441D01*
X142211755Y-103564281D01*
X142246303Y-103615832D01*
X142275162Y-103646468D01*
X142314005Y-103678219D01*
X142353421Y-103699990D01*
X142397267Y-103713364D01*
X142449397Y-103719926D01*
X142454793Y-103720245D01*
X142517849Y-103718420D01*
X142573789Y-103705801D01*
X142616042Y-103686201D01*
X142630530Y-103676653D01*
X142653545Y-103660511D01*
X142682892Y-103639369D01*
X142716373Y-103614823D01*
X142751793Y-103588467D01*
X142781624Y-103565955D01*
X142788097Y-103569136D01*
X142800162Y-103583196D01*
X142817037Y-103607123D01*
X142834246Y-103633930D01*
X142858978Y-103672203D01*
X142879569Y-103699778D01*
X142897839Y-103718063D01*
X142915602Y-103728465D01*
X142934678Y-103732393D01*
X142956883Y-103731255D01*
X142959406Y-103730909D01*
X142980713Y-103725337D01*
X142998542Y-103716993D01*
X143019412Y-103695575D01*
X143031622Y-103665635D01*
X143034316Y-103640614D01*
X143033053Y-103626606D01*
X143028495Y-103611257D01*
X143019488Y-103592054D01*
X143004878Y-103566486D01*
X142986892Y-103537397D01*
X142969180Y-103508916D01*
X142954335Y-103484347D01*
X142943737Y-103466029D01*
X142938769Y-103456300D01*
X142938577Y-103455622D01*
X142943442Y-103449751D01*
X142957534Y-103437172D01*
X142979239Y-103419212D01*
X143006946Y-103397198D01*
X143039043Y-103372459D01*
X143045031Y-103367919D01*
X143088011Y-103334849D01*
X143120922Y-103307928D01*
X143144886Y-103285774D01*
X143161030Y-103267004D01*
X143170478Y-103250238D01*
X143174355Y-103234092D01*
X143173787Y-103217186D01*
X143172779Y-103211010D01*
X143163123Y-103187271D01*
X143145332Y-103164039D01*
X143123517Y-103145824D01*
X143106180Y-103137955D01*
X143090022Y-103135358D01*
X143073706Y-103136508D01*
X143055473Y-103142275D01*
X143033565Y-103153523D01*
X143006225Y-103171121D01*
X142971693Y-103195934D01*
X142939694Y-103220049D01*
X142907817Y-103244176D01*
X142879800Y-103265028D01*
X142857319Y-103281387D01*
X142842053Y-103292032D01*
X142835679Y-103295744D01*
X142835609Y-103295713D01*
X142831666Y-103289622D01*
X142821534Y-103273592D01*
X142806159Y-103249135D01*
X142786492Y-103217762D01*
X142763480Y-103180983D01*
X142738094Y-103140346D01*
X142662138Y-103018664D01*
X143938326Y-103018664D01*
X143938352Y-103127305D01*
X143938435Y-103223246D01*
X143938589Y-103307277D01*
X143938825Y-103380189D01*
X143939155Y-103442774D01*
X143939591Y-103495823D01*
X143940144Y-103540128D01*
X143940826Y-103576480D01*
X143941648Y-103605671D01*
X143942624Y-103628491D01*
X143943764Y-103645732D01*
X143945080Y-103658186D01*
X143946585Y-103666644D01*
X143948040Y-103671330D01*
X143965064Y-103695931D01*
X143990314Y-103712823D01*
X144020293Y-103720983D01*
X144051509Y-103719388D01*
X144077166Y-103709137D01*
X144086925Y-103702978D01*
X144095096Y-103696634D01*
X144101819Y-103688920D01*
X144107236Y-103678649D01*
X144111487Y-103664633D01*
X144114715Y-103645685D01*
X144117060Y-103620619D01*
X144118663Y-103588246D01*
X144119665Y-103547381D01*
X144120207Y-103496836D01*
X144120431Y-103435423D01*
X144120477Y-103361957D01*
X144120478Y-103344730D01*
X144120478Y-103040478D01*
X144362436Y-103040478D01*
X144426009Y-103040453D01*
X144477488Y-103040330D01*
X144518275Y-103040031D01*
X144549768Y-103039481D01*
X144573368Y-103038603D01*
X144590475Y-103037323D01*
X144602488Y-103035564D01*
X144610808Y-103033251D01*
X144616834Y-103030307D01*
X144621966Y-103026656D01*
X144622306Y-103026389D01*
X144631212Y-103016568D01*
X144886188Y-103016568D01*
X144886218Y-103126706D01*
X144886314Y-103224107D01*
X144886487Y-103309528D01*
X144886748Y-103383724D01*
X144887107Y-103447451D01*
X144887574Y-103501467D01*
X144888161Y-103546526D01*
X144888878Y-103583384D01*
X144889735Y-103612798D01*
X144890743Y-103635524D01*
X144891912Y-103652318D01*
X144893254Y-103663936D01*
X144894778Y-103671133D01*
X144895359Y-103672752D01*
X144912432Y-103697177D01*
X144937728Y-103713673D01*
X144967851Y-103721173D01*
X144999407Y-103718611D01*
X145018375Y-103711412D01*
X145036010Y-103698169D01*
X145051129Y-103680356D01*
X145051747Y-103679367D01*
X145053960Y-103675412D01*
X145055910Y-103670702D01*
X145057614Y-103664409D01*
X145059089Y-103655702D01*
X145060351Y-103643752D01*
X145061417Y-103627731D01*
X145062303Y-103606809D01*
X145063026Y-103580156D01*
X145063603Y-103546944D01*
X145064050Y-103506343D01*
X145064384Y-103457524D01*
X145064621Y-103399658D01*
X145064779Y-103331915D01*
X145064873Y-103253466D01*
X145064921Y-103163482D01*
X145064927Y-103126078D01*
X145290962Y-103126078D01*
X145290970Y-103222905D01*
X145291041Y-103307860D01*
X145291220Y-103381752D01*
X145291554Y-103445393D01*
X145292090Y-103499592D01*
X145292873Y-103545159D01*
X145293949Y-103582905D01*
X145295366Y-103613640D01*
X145297170Y-103638173D01*
X145299406Y-103657316D01*
X145302121Y-103671878D01*
X145305361Y-103682669D01*
X145309174Y-103690500D01*
X145313604Y-103696180D01*
X145318699Y-103700521D01*
X145324504Y-103704332D01*
X145330498Y-103708057D01*
X145336020Y-103711297D01*
X145342376Y-103713978D01*
X145350823Y-103716151D01*
X145362614Y-103717872D01*
X145379005Y-103719194D01*
X145401251Y-103720170D01*
X145430608Y-103720854D01*
X145468329Y-103721300D01*
X145515670Y-103721560D01*
X145573887Y-103721690D01*
X145644233Y-103721743D01*
X145650858Y-103721745D01*
X145722833Y-103721735D01*
X145782554Y-103721615D01*
X145831259Y-103721339D01*
X145870186Y-103720864D01*
X145900575Y-103720144D01*
X145923663Y-103719135D01*
X145940688Y-103717792D01*
X145952890Y-103716069D01*
X145961505Y-103713922D01*
X145967774Y-103711307D01*
X145969766Y-103710200D01*
X145984841Y-103696874D01*
X145999350Y-103677191D01*
X146003742Y-103669127D01*
X146012211Y-103649221D01*
X146014378Y-103633950D01*
X146010979Y-103616441D01*
X146009827Y-103612498D01*
X145994092Y-103579981D01*
X145969324Y-103557476D01*
X145944540Y-103547046D01*
X145929712Y-103544911D01*
X145902383Y-103543105D01*
X145863541Y-103541656D01*
X145814176Y-103540595D01*
X145755275Y-103539948D01*
X145694063Y-103539745D01*
X145469747Y-103539707D01*
X145469747Y-102962004D01*
X145469741Y-102860419D01*
X145469709Y-102771452D01*
X145469632Y-102694229D01*
X145469489Y-102627876D01*
X145469261Y-102571517D01*
X145468928Y-102524280D01*
X145468470Y-102485289D01*
X145467868Y-102453670D01*
X145467101Y-102428549D01*
X145466847Y-102423330D01*
X146240066Y-102423330D01*
X146250058Y-102453165D01*
X146269681Y-102477627D01*
X146287965Y-102489504D01*
X146298606Y-102493540D01*
X146312434Y-102496516D01*
X146331484Y-102498581D01*
X146357787Y-102499880D01*
X146393375Y-102500560D01*
X146440282Y-102500769D01*
X146443927Y-102500770D01*
X146576148Y-102500770D01*
X146576148Y-103074426D01*
X146576141Y-103178773D01*
X146576156Y-103270478D01*
X146576251Y-103350393D01*
X146576480Y-103419368D01*
X146576900Y-103478255D01*
X146577568Y-103527904D01*
X146578538Y-103569168D01*
X146579868Y-103602896D01*
X146581613Y-103629940D01*
X146583830Y-103651152D01*
X146586574Y-103667381D01*
X146589901Y-103679479D01*
X146593868Y-103688298D01*
X146598531Y-103694688D01*
X146603946Y-103699501D01*
X146610169Y-103703587D01*
X146617255Y-103707797D01*
X146617907Y-103708193D01*
X146641367Y-103717815D01*
X146666852Y-103721807D01*
X146667224Y-103721808D01*
X146692648Y-103717935D01*
X146716232Y-103708380D01*
X146716541Y-103708193D01*
X146723704Y-103703932D01*
X146729999Y-103699869D01*
X146735481Y-103695152D01*
X146740206Y-103688931D01*
X146744231Y-103680355D01*
X146747612Y-103668572D01*
X146750404Y-103652732D01*
X146752663Y-103631983D01*
X146754447Y-103605474D01*
X146755810Y-103572354D01*
X146756809Y-103531772D01*
X146757501Y-103482878D01*
X146757940Y-103424819D01*
X146758184Y-103356745D01*
X146758287Y-103277805D01*
X146758307Y-103187148D01*
X146758304Y-103129378D01*
X147318238Y-103129378D01*
X147318244Y-103225888D01*
X147318314Y-103310532D01*
X147318499Y-103384121D01*
X147318846Y-103447467D01*
X147319406Y-103501385D01*
X147320227Y-103546685D01*
X147321359Y-103584181D01*
X147322852Y-103614686D01*
X147324754Y-103639012D01*
X147327115Y-103657971D01*
X147329984Y-103672377D01*
X147333411Y-103683042D01*
X147337444Y-103690779D01*
X147342134Y-103696399D01*
X147347529Y-103700717D01*
X147353680Y-103704545D01*
X147360005Y-103708306D01*
X147365670Y-103711546D01*
X147371987Y-103714221D01*
X147380199Y-103716378D01*
X147391551Y-103718062D01*
X147407286Y-103719318D01*
X147428649Y-103720191D01*
X147456884Y-103720727D01*
X147493234Y-103720970D01*
X147538943Y-103720967D01*
X147595256Y-103720762D01*
X147663415Y-103720402D01*
X147688132Y-103720260D01*
X147993927Y-103718486D01*
X148017017Y-103693286D01*
X148031541Y-103675284D01*
X148038320Y-103658745D01*
X148040097Y-103636646D01*
X148040106Y-103634156D01*
X148038596Y-103610994D01*
X148032310Y-103594201D01*
X148018608Y-103576823D01*
X148018180Y-103576357D01*
X147991853Y-103555300D01*
X147969269Y-103546258D01*
X147956041Y-103544737D01*
X147931167Y-103543341D01*
X147896491Y-103542117D01*
X147853860Y-103541112D01*
X147805118Y-103540374D01*
X147752112Y-103539950D01*
X147721341Y-103539868D01*
X147500398Y-103539707D01*
X147500398Y-103040478D01*
X147674893Y-103040478D01*
X147728071Y-103040430D01*
X147769451Y-103040205D01*
X147800731Y-103039679D01*
X147823605Y-103038726D01*
X147839770Y-103037223D01*
X147850922Y-103035046D01*
X147858756Y-103032071D01*
X147864967Y-103028173D01*
X147867299Y-103026389D01*
X147890616Y-103000595D01*
X147902871Y-102970213D01*
X147903461Y-102938143D01*
X147891959Y-102907565D01*
X147883863Y-102895283D01*
X147875182Y-102885623D01*
X147864273Y-102878272D01*
X147849494Y-102872916D01*
X147829199Y-102869240D01*
X147801747Y-102866932D01*
X147765494Y-102865678D01*
X147718796Y-102865163D01*
X147669392Y-102865073D01*
X147500398Y-102865073D01*
X147500398Y-102858327D01*
X148263935Y-102858327D01*
X148264132Y-102977058D01*
X148264285Y-103034960D01*
X148264587Y-103142815D01*
X148264858Y-103238000D01*
X148265150Y-103321337D01*
X148265514Y-103393650D01*
X148266004Y-103455759D01*
X148266671Y-103508489D01*
X148267567Y-103552662D01*
X148268744Y-103589099D01*
X148270255Y-103618624D01*
X148272151Y-103642059D01*
X148274485Y-103660227D01*
X148277308Y-103673950D01*
X148280674Y-103684050D01*
X148284633Y-103691350D01*
X148289238Y-103696672D01*
X148294542Y-103700840D01*
X148300595Y-103704675D01*
X148306960Y-103708675D01*
X148334424Y-103719456D01*
X148365881Y-103720633D01*
X148395847Y-103712205D01*
X148402291Y-103708702D01*
X148412121Y-103702514D01*
X148420158Y-103696207D01*
X148426603Y-103688422D01*
X148431657Y-103677800D01*
X148435523Y-103662983D01*
X148438402Y-103642611D01*
X148440496Y-103615326D01*
X148442006Y-103579770D01*
X148443134Y-103534582D01*
X148444081Y-103478405D01*
X148444887Y-103421646D01*
X148448260Y-103178778D01*
X148704621Y-103178778D01*
X148833504Y-103434368D01*
X148865811Y-103497963D01*
X148895045Y-103554561D01*
X148920738Y-103603298D01*
X148942420Y-103643307D01*
X148959625Y-103673724D01*
X148971882Y-103693684D01*
X148978551Y-103702196D01*
X149007555Y-103716662D01*
X149038191Y-103719480D01*
X149067785Y-103711791D01*
X149093666Y-103694734D01*
X149113160Y-103669449D01*
X149123044Y-103640553D01*
X149123616Y-103633446D01*
X149122620Y-103624710D01*
X149119527Y-103613134D01*
X149113807Y-103597509D01*
X149104932Y-103576625D01*
X149092372Y-103549271D01*
X149075599Y-103514236D01*
X149054083Y-103470312D01*
X149027296Y-103416288D01*
X149008707Y-103378988D01*
X148982593Y-103326517D01*
X148958471Y-103277778D01*
X148936987Y-103234101D01*
X148918788Y-103196811D01*
X148904521Y-103167236D01*
X148894833Y-103146704D01*
X148890371Y-103136541D01*
X148890146Y-103135742D01*
X148895469Y-103129637D01*
X148909446Y-103118987D01*
X148929087Y-103106063D01*
X148929708Y-103105679D01*
X148979649Y-103067775D01*
X149025341Y-103019349D01*
X149064721Y-102963191D01*
X149095721Y-102902093D01*
X149110207Y-102861700D01*
X149117463Y-102828770D01*
X149121386Y-102788196D01*
X149122341Y-102747012D01*
X149120915Y-102697875D01*
X149116420Y-102658893D01*
X149110207Y-102632324D01*
X149082183Y-102561756D01*
X149042852Y-102497322D01*
X148993510Y-102440400D01*
X148935456Y-102392368D01*
X148869988Y-102354605D01*
X148834871Y-102340001D01*
X148785577Y-102321992D01*
X148555204Y-102319906D01*
X148324832Y-102317820D01*
X148300624Y-102339074D01*
X148281246Y-102361499D01*
X148269497Y-102386025D01*
X148269439Y-102386241D01*
X148268066Y-102398440D01*
X148266888Y-102424092D01*
X148265906Y-102463157D01*
X148265119Y-102515597D01*
X148264529Y-102581373D01*
X148264134Y-102660445D01*
X148263936Y-102752777D01*
X148263935Y-102858327D01*
X147500398Y-102858327D01*
X147500398Y-102500770D01*
X147733364Y-102500770D01*
X147800620Y-102500698D01*
X147855743Y-102500352D01*
X147900092Y-102499540D01*
X147935025Y-102498066D01*
X147961901Y-102495739D01*
X147982080Y-102492363D01*
X147996920Y-102487746D01*
X148007780Y-102481694D01*
X148016020Y-102474013D01*
X148022998Y-102464510D01*
X148026440Y-102459011D01*
X148037970Y-102428935D01*
X148038785Y-102397361D01*
X148029831Y-102367632D01*
X148012049Y-102343093D01*
X147989577Y-102328332D01*
X147981545Y-102325884D01*
X147969457Y-102323865D01*
X147952118Y-102322239D01*
X147928336Y-102320967D01*
X147896916Y-102320012D01*
X147856664Y-102319337D01*
X147806385Y-102318905D01*
X147744887Y-102318678D01*
X147678726Y-102318619D01*
X147604439Y-102318643D01*
X147542435Y-102318829D01*
X147491502Y-102319343D01*
X147450429Y-102320351D01*
X147418005Y-102322021D01*
X147393021Y-102324520D01*
X147374264Y-102328014D01*
X147360525Y-102332670D01*
X147350593Y-102338656D01*
X147343256Y-102346139D01*
X147337304Y-102355284D01*
X147331527Y-102366260D01*
X147331403Y-102366503D01*
X147329177Y-102371214D01*
X147327217Y-102376638D01*
X147325506Y-102383617D01*
X147324028Y-102392991D01*
X147322765Y-102405602D01*
X147321701Y-102422290D01*
X147320818Y-102443896D01*
X147320100Y-102471261D01*
X147319529Y-102505228D01*
X147319089Y-102546635D01*
X147318763Y-102596325D01*
X147318534Y-102655139D01*
X147318384Y-102723918D01*
X147318298Y-102803502D01*
X147318258Y-102894733D01*
X147318247Y-102998452D01*
X147318247Y-103020187D01*
X147318238Y-103129378D01*
X146758304Y-103129378D01*
X146758300Y-103083923D01*
X146758300Y-102500770D01*
X146890520Y-102500770D01*
X146938270Y-102500588D01*
X146974562Y-102499944D01*
X147001431Y-102498692D01*
X147020909Y-102496684D01*
X147035027Y-102493774D01*
X147045820Y-102489814D01*
X147046483Y-102489504D01*
X147072162Y-102470757D01*
X147088403Y-102445360D01*
X147095207Y-102416308D01*
X147092574Y-102386595D01*
X147080504Y-102359214D01*
X147058996Y-102337159D01*
X147046483Y-102329885D01*
X147040109Y-102327374D01*
X147031697Y-102325262D01*
X147020117Y-102323515D01*
X147004234Y-102322098D01*
X146982918Y-102320979D01*
X146955034Y-102320123D01*
X146919451Y-102319497D01*
X146875036Y-102319068D01*
X146820657Y-102318800D01*
X146755180Y-102318662D01*
X146677475Y-102318619D01*
X146667674Y-102318619D01*
X146585442Y-102318633D01*
X146515611Y-102318749D01*
X146457090Y-102319076D01*
X146408788Y-102319725D01*
X146369613Y-102320805D01*
X146338475Y-102322426D01*
X146314283Y-102324697D01*
X146295944Y-102327728D01*
X146282368Y-102331630D01*
X146272463Y-102336511D01*
X146265139Y-102342482D01*
X146259303Y-102349653D01*
X146253865Y-102358132D01*
X146252497Y-102360377D01*
X146240585Y-102391331D01*
X146240066Y-102423330D01*
X145466847Y-102423330D01*
X145466150Y-102409052D01*
X145464994Y-102394303D01*
X145463615Y-102383430D01*
X145461992Y-102375556D01*
X145460105Y-102369808D01*
X145457935Y-102365312D01*
X145456148Y-102362298D01*
X145435226Y-102339832D01*
X145406920Y-102324251D01*
X145377652Y-102318644D01*
X145352810Y-102324205D01*
X145327290Y-102338718D01*
X145306348Y-102359017D01*
X145303142Y-102363537D01*
X145301089Y-102367212D01*
X145299281Y-102372136D01*
X145297701Y-102379132D01*
X145296334Y-102389026D01*
X145295165Y-102402641D01*
X145294179Y-102420803D01*
X145293359Y-102444336D01*
X145292692Y-102474065D01*
X145292161Y-102510814D01*
X145291750Y-102555409D01*
X145291446Y-102608673D01*
X145291231Y-102671431D01*
X145291092Y-102744508D01*
X145291012Y-102828729D01*
X145290976Y-102924917D01*
X145290969Y-103016568D01*
X145290962Y-103126078D01*
X145064927Y-103126078D01*
X145064939Y-103061134D01*
X145064941Y-103021035D01*
X145064940Y-102914076D01*
X145064917Y-102819779D01*
X145064854Y-102737316D01*
X145064735Y-102665855D01*
X145064542Y-102604567D01*
X145064258Y-102552622D01*
X145063866Y-102509191D01*
X145063350Y-102473442D01*
X145062691Y-102444547D01*
X145061873Y-102421675D01*
X145060879Y-102403996D01*
X145059692Y-102390681D01*
X145058294Y-102380899D01*
X145056668Y-102373821D01*
X145054798Y-102368616D01*
X145052666Y-102364455D01*
X145051367Y-102362298D01*
X145030445Y-102339832D01*
X145002139Y-102324251D01*
X144972871Y-102318644D01*
X144948029Y-102324205D01*
X144922509Y-102338718D01*
X144901567Y-102359017D01*
X144898361Y-102363537D01*
X144896308Y-102367212D01*
X144894500Y-102372136D01*
X144892920Y-102379132D01*
X144891553Y-102389026D01*
X144890384Y-102402641D01*
X144889398Y-102420803D01*
X144888579Y-102444336D01*
X144887911Y-102474065D01*
X144887380Y-102510814D01*
X144886970Y-102555409D01*
X144886665Y-102608673D01*
X144886451Y-102671431D01*
X144886311Y-102744508D01*
X144886231Y-102828729D01*
X144886195Y-102924917D01*
X144886188Y-103016568D01*
X144631212Y-103016568D01*
X144645358Y-103000971D01*
X144657523Y-102971480D01*
X144658890Y-102940748D01*
X144649546Y-102911607D01*
X144629580Y-102886890D01*
X144617693Y-102878292D01*
X144611291Y-102874795D01*
X144603793Y-102871977D01*
X144593762Y-102869764D01*
X144579764Y-102868083D01*
X144560364Y-102866863D01*
X144534126Y-102866028D01*
X144499616Y-102865508D01*
X144455398Y-102865228D01*
X144400037Y-102865116D01*
X144358286Y-102865098D01*
X144120478Y-102865073D01*
X144120478Y-102500770D01*
X144353894Y-102500770D01*
X144417442Y-102500704D01*
X144468938Y-102500463D01*
X144509821Y-102499985D01*
X144541531Y-102499207D01*
X144565509Y-102498064D01*
X144583193Y-102496495D01*
X144596024Y-102494437D01*
X144605442Y-102491825D01*
X144611051Y-102489504D01*
X144636687Y-102470494D01*
X144653289Y-102443942D01*
X144659975Y-102413055D01*
X144655866Y-102381043D01*
X144646520Y-102360377D01*
X144640386Y-102350772D01*
X144633922Y-102342765D01*
X144625912Y-102336212D01*
X144615141Y-102330966D01*
X144600393Y-102326882D01*
X144580453Y-102323815D01*
X144554106Y-102321620D01*
X144520136Y-102320150D01*
X144477328Y-102319260D01*
X144424467Y-102318806D01*
X144360337Y-102318640D01*
X144297681Y-102318619D01*
X144223574Y-102318642D01*
X144161743Y-102318825D01*
X144110969Y-102319334D01*
X144070035Y-102320337D01*
X144037724Y-102322000D01*
X144012817Y-102324491D01*
X143994098Y-102327976D01*
X143980349Y-102332624D01*
X143970352Y-102338601D01*
X143962889Y-102346074D01*
X143956744Y-102355210D01*
X143950698Y-102366177D01*
X143950654Y-102366259D01*
X143948567Y-102370676D01*
X143946730Y-102376218D01*
X143945126Y-102383719D01*
X143943739Y-102394015D01*
X143942554Y-102407939D01*
X143941555Y-102426327D01*
X143940727Y-102450012D01*
X143940053Y-102479830D01*
X143939517Y-102516615D01*
X143939104Y-102561201D01*
X143938799Y-102614423D01*
X143938585Y-102677115D01*
X143938446Y-102750113D01*
X143938368Y-102834250D01*
X143938333Y-102930361D01*
X143938326Y-103018664D01*
X142662138Y-103018664D01*
X142642513Y-102987226D01*
X142726025Y-102863746D01*
X142752903Y-102823154D01*
X142777181Y-102784863D01*
X142797595Y-102750979D01*
X142812881Y-102723608D01*
X142821777Y-102704854D01*
X142822398Y-102703160D01*
X142832185Y-102660320D01*
X142835229Y-102611638D01*
X142831627Y-102562700D01*
X142821474Y-102519089D01*
X142819116Y-102512640D01*
X142790375Y-102456800D01*
X142751516Y-102408889D01*
X142704086Y-102370062D01*
X142649635Y-102341473D01*
X142589713Y-102324276D01*
X142561337Y-102320559D01*
X142502668Y-102322004D01*
X142447047Y-102335434D01*
X142395742Y-102359458D01*
X142350022Y-102392687D01*
X142311155Y-102433730D01*
X142280409Y-102481198D01*
X142259054Y-102533699D01*
X142248357Y-102589845D01*
X142249588Y-102648245D01*
X142251399Y-102660200D01*
X142256178Y-102682837D01*
X142262999Y-102705250D01*
X142272802Y-102729346D01*
X142286529Y-102757028D01*
X142305122Y-102790203D01*
X142329521Y-102830776D01*
X142359014Y-102878032D01*
X142379243Y-102910502D01*
X142396664Y-102939247D01*
X142410090Y-102962240D01*
X142418332Y-102977460D01*
X142420398Y-102982605D01*
X142416697Y-102989873D01*
X142406260Y-103006688D01*
X142390083Y-103031540D01*
X142369162Y-103062920D01*
X142344493Y-103099318D01*
X142317074Y-103139223D01*
X142316045Y-103140710D01*
X142285969Y-103184834D01*
X142258484Y-103226410D01*
X142234708Y-103263663D01*
X142215755Y-103294818D01*
X142202743Y-103318099D01*
X142197614Y-103329158D01*
X142181859Y-103389482D01*
X142179191Y-103449708D01*
X141357323Y-103449708D01*
X141348586Y-103422779D01*
X141326900Y-103356323D01*
X141302962Y-103283313D01*
X141277063Y-103204642D01*
X141249492Y-103121200D01*
X141220538Y-103033880D01*
X141205994Y-102990129D01*
X141171098Y-102885259D01*
X141140169Y-102792431D01*
X141112917Y-102710884D01*
X141089050Y-102639856D01*
X141068276Y-102578586D01*
X141050304Y-102526314D01*
X141034843Y-102482278D01*
X141021602Y-102445716D01*
X141010288Y-102415868D01*
X141000612Y-102391973D01*
X140992280Y-102373270D01*
X140985002Y-102358997D01*
X140978487Y-102348393D01*
X140972442Y-102340697D01*
X140966578Y-102335149D01*
X140960602Y-102330986D01*
X140954222Y-102327448D01*
X140951824Y-102326208D01*
X140924124Y-102318957D01*
X140893780Y-102322174D01*
X140865236Y-102334846D01*
X140847655Y-102349973D01*
X140844023Y-102358021D01*
X140836463Y-102377994D01*
X140825278Y-102409008D01*
X140810772Y-102450174D01*
X140793249Y-102500609D01*
X140773015Y-102559426D01*
X140750372Y-102625739D01*
X140725624Y-102698662D01*
X140699077Y-102777309D01*
X140671034Y-102860794D01*
X140641799Y-102948232D01*
X140626210Y-102995021D01*
X140591072Y-103100595D01*
X140559963Y-103194137D01*
X140532669Y-103276420D01*
X140508976Y-103348221D01*
X140488671Y-103410315D01*
X140471539Y-103463477D01*
X140457366Y-103508483D01*
X140445940Y-103546107D01*
X140437045Y-103577126D01*
X140430469Y-103602313D01*
X140425997Y-103622445D01*
X140423415Y-103638297D01*
X140422510Y-103650644D01*
X140192174Y-103650644D01*
X140193083Y-103641142D01*
X140194113Y-103624114D01*
X140194968Y-103601984D01*
X140195665Y-103573922D01*
X140196220Y-103539098D01*
X140196649Y-103496682D01*
X140196968Y-103445845D01*
X140197193Y-103385757D01*
X140197340Y-103315589D01*
X140197425Y-103234510D01*
X140197466Y-103141691D01*
X140197476Y-103036303D01*
X140197476Y-103023612D01*
X140197465Y-102916529D01*
X140197419Y-102822111D01*
X140197325Y-102739529D01*
X140197168Y-102667957D01*
X140196932Y-102606564D01*
X140196602Y-102554524D01*
X140196163Y-102511009D01*
X140195600Y-102475190D01*
X140194897Y-102446239D01*
X140194041Y-102423329D01*
X140193016Y-102405631D01*
X140191806Y-102392317D01*
X140190397Y-102382560D01*
X140188773Y-102375531D01*
X140186920Y-102370402D01*
X140185530Y-102367593D01*
X140164948Y-102342186D01*
X140138258Y-102326528D01*
X140108460Y-102320731D01*
X140078555Y-102324905D01*
X140051542Y-102339160D01*
X140031420Y-102361930D01*
X140028907Y-102366570D01*
X140026750Y-102372303D01*
X140024921Y-102380128D01*
X140023393Y-102391047D01*
X140022139Y-102406057D01*
X140021132Y-102426158D01*
X140020345Y-102452351D01*
X140019751Y-102485634D01*
X140019323Y-102527006D01*
X140019033Y-102577468D01*
X140018856Y-102638020D01*
X140018763Y-102709659D01*
X140018727Y-102793387D01*
X140018723Y-102831004D01*
X140018629Y-102916684D01*
X140018364Y-102995008D01*
X140017937Y-103065210D01*
X140017361Y-103126521D01*
X140016645Y-103178177D01*
X140015801Y-103219408D01*
X140014838Y-103249449D01*
X140013768Y-103267532D01*
X140012601Y-103272891D01*
X140012600Y-103272889D01*
X140008438Y-103266103D01*
X139998262Y-103248420D01*
X139982583Y-103220754D01*
X139961912Y-103184020D01*
X139936759Y-103139130D01*
X139907636Y-103086999D01*
X139875053Y-103028541D01*
X139839522Y-102964669D01*
X139801554Y-102896296D01*
X139761659Y-102824337D01*
X139752461Y-102807729D01*
X139703539Y-102719624D01*
X139658692Y-102639346D01*
X139618201Y-102567382D01*
X139582347Y-102504220D01*
X139551411Y-102450348D01*
X139525674Y-102406255D01*
X139505416Y-102372428D01*
X139490919Y-102349356D01*
X139482462Y-102337526D01*
X139481158Y-102336252D01*
X139452490Y-102322827D01*
X139421154Y-102320578D01*
X139390687Y-102328699D01*
X139364624Y-102346383D01*
X139349644Y-102366259D01*
X139347558Y-102370676D01*
X139345721Y-102376218D01*
X139344116Y-102383719D01*
X139342730Y-102394015D01*
X139341545Y-102407939D01*
X139340546Y-102426327D01*
X139339718Y-102450012D01*
X139339043Y-102479830D01*
X139338508Y-102516615D01*
X139338095Y-102561201D01*
X139337790Y-102614423D01*
X139337575Y-102677115D01*
X139337437Y-102750113D01*
X139337358Y-102834250D01*
X139337324Y-102930361D01*
X139337317Y-103018664D01*
X139337308Y-103127997D01*
X138568233Y-103127997D01*
X138568233Y-102381331D01*
X138552834Y-102358408D01*
X138530019Y-102336002D01*
X138508983Y-102325573D01*
X138488633Y-102319755D01*
X138472322Y-102319773D01*
X138452079Y-102325573D01*
X138423165Y-102341900D01*
X138408227Y-102358408D01*
X138392828Y-102381331D01*
X137469517Y-102381331D01*
X137445169Y-102371663D01*
X137388232Y-102354459D01*
X137337025Y-102341854D01*
X137297959Y-102333635D01*
X137263506Y-102328137D01*
X137228685Y-102324828D01*
X137188513Y-102323175D01*
X137158247Y-102322745D01*
X137117769Y-102322684D01*
X137087540Y-102323445D01*
X137064325Y-102325364D01*
X137044890Y-102328776D01*
X137025999Y-102334017D01*
X137015288Y-102337587D01*
X136951153Y-102366607D01*
X136894952Y-102406157D01*
X136847583Y-102455251D01*
X136809945Y-102512906D01*
X136782937Y-102578138D01*
X136777224Y-102598323D01*
X136767167Y-102664228D01*
X135870920Y-102664228D01*
X135871620Y-102652600D01*
X135884138Y-102610307D01*
X135906214Y-102571677D01*
X135937515Y-102538942D01*
X135967516Y-102519253D01*
X136000686Y-102507922D01*
X136043974Y-102502451D01*
X136095418Y-102502689D01*
X136153059Y-102508484D01*
X136214935Y-102519683D01*
X136279085Y-102536134D01*
X136309954Y-102545801D01*
X136342697Y-102556389D01*
X136365798Y-102562869D01*
X136382288Y-102565758D01*
X136395199Y-102565574D01*
X136407563Y-102562833D01*
X136408389Y-102562588D01*
X136438455Y-102547726D01*
X136460041Y-102525402D01*
X136472707Y-102498299D01*
X136476013Y-102469105D01*
X136469519Y-102440505D01*
X136452786Y-102415184D01*
X136434864Y-102400921D01*
X136413911Y-102390694D01*
X136382994Y-102378819D01*
X136345374Y-102366320D01*
X136304314Y-102354220D01*
X136263074Y-102343544D01*
X136227251Y-102335758D01*
X136173677Y-102327402D01*
X136118373Y-102322168D01*
X136064818Y-102320162D01*
X136016495Y-102321491D01*
X135976882Y-102326260D01*
X135969203Y-102327894D01*
X135904824Y-102349222D01*
X135847291Y-102381552D01*
X135794786Y-102425862D01*
X135750234Y-102479329D01*
X135717418Y-102537862D01*
X135696338Y-102599916D01*
X135686993Y-102663947D01*
X135147205Y-102663947D01*
X135132957Y-102621610D01*
X135111950Y-102559456D01*
X135093030Y-102503789D01*
X135076551Y-102455680D01*
X135062871Y-102416199D01*
X135052344Y-102386417D01*
X135045325Y-102367405D01*
X135042352Y-102360461D01*
X135022404Y-102339834D01*
X134995233Y-102324804D01*
X134966912Y-102318682D01*
X134965683Y-102318669D01*
X134937027Y-102324319D01*
X134910506Y-102339234D01*
X134891280Y-102360362D01*
X134889354Y-102363858D01*
X134884969Y-102374732D01*
X134876841Y-102397149D01*
X134865328Y-102430033D01*
X134850784Y-102472307D01*
X134833566Y-102522891D01*
X134814028Y-102580709D01*
X134792528Y-102644684D01*
X134769421Y-102713737D01*
X134745064Y-102786792D01*
X134719810Y-102862769D01*
X134694018Y-102940593D01*
X134668042Y-103019185D01*
X134642239Y-103097468D01*
X134616964Y-103174364D01*
X134592573Y-103248795D01*
X134569422Y-103319685D01*
X134547867Y-103385954D01*
X134528264Y-103446527D01*
X134510969Y-103500325D01*
X134496337Y-103546271D01*
X134484725Y-103583286D01*
X134476488Y-103610294D01*
X134471982Y-103626218D01*
X134471219Y-103629958D01*
X133565472Y-103629958D01*
X133567248Y-103601516D01*
X133568392Y-103562442D01*
X133568969Y-103513363D01*
X133569170Y-103452929D01*
X133569189Y-103411744D01*
X133569189Y-103175405D01*
X133728441Y-103175405D01*
X133784760Y-103175181D01*
X133829498Y-103174441D01*
X133864560Y-103173083D01*
X133891851Y-103171007D01*
X133913277Y-103168110D01*
X133929145Y-103164710D01*
X133992225Y-103141888D01*
X134052607Y-103107586D01*
X134107860Y-103063816D01*
X134155554Y-103012587D01*
X134193256Y-102955912D01*
X134201719Y-102939283D01*
X134222419Y-102891651D01*
X134235913Y-102849208D01*
X134243399Y-102806585D01*
X134246074Y-102758415D01*
X134246104Y-102740265D01*
X134244935Y-102702478D01*
X134241497Y-102671978D01*
X134234820Y-102642623D01*
X134226423Y-102615620D01*
X134196392Y-102545944D01*
X134155771Y-102483532D01*
X134105620Y-102429615D01*
X134046997Y-102385422D01*
X134011075Y-102365485D01*
X133985557Y-102353254D01*
X133962708Y-102343354D01*
X133940716Y-102335541D01*
X133917766Y-102329567D01*
X133892045Y-102325188D01*
X133861737Y-102322159D01*
X133825029Y-102320233D01*
X133780107Y-102319165D01*
X133725157Y-102318709D01*
X133664948Y-102318619D01*
X133601706Y-102318677D01*
X133550513Y-102319028D01*
X133509925Y-102319937D01*
X133478498Y-102321668D01*
X133454789Y-102324488D01*
X133437354Y-102328660D01*
X133424749Y-102334450D01*
X133415531Y-102342122D01*
X133408256Y-102351942D01*
X133401479Y-102364175D01*
X133399889Y-102367261D01*
X133397713Y-102371908D01*
X133395798Y-102377409D01*
X133394127Y-102384602D01*
X133392682Y-102394328D01*
X133391448Y-102407426D01*
X133390408Y-102424735D01*
X133389545Y-102447096D01*
X133388843Y-102475348D01*
X133388286Y-102510331D01*
X133387856Y-102552884D01*
X133387538Y-102603848D01*
X133387314Y-102664060D01*
X133387169Y-102734363D01*
X133387086Y-102815594D01*
X133387048Y-102908594D01*
X133387038Y-103014203D01*
X133387038Y-103020187D01*
X133387029Y-103129386D01*
X133163594Y-103129386D01*
X133163524Y-103088359D01*
X133163096Y-103009977D01*
X133163035Y-103000615D01*
X133161035Y-102693041D01*
X133140221Y-102634902D01*
X133107002Y-102561239D01*
X133063308Y-102495874D01*
X133009700Y-102439347D01*
X132946742Y-102392194D01*
X132874995Y-102354954D01*
X132830464Y-102338396D01*
X132815939Y-102333955D01*
X132801682Y-102330425D01*
X132785884Y-102327674D01*
X132766733Y-102325570D01*
X132742419Y-102323984D01*
X132711129Y-102322782D01*
X132671053Y-102321833D01*
X132620381Y-102321007D01*
X132584223Y-102320516D01*
X132522398Y-102319799D01*
X132472535Y-102319606D01*
X132433106Y-102320197D01*
X132402583Y-102321833D01*
X132379438Y-102324775D01*
X132362143Y-102329284D01*
X132349169Y-102335622D01*
X132338989Y-102344049D01*
X132330075Y-102354827D01*
X132322936Y-102365154D01*
X132307622Y-102388077D01*
X132307622Y-103021571D01*
X132307617Y-103129900D01*
X132085004Y-103129900D01*
X132085003Y-103127338D01*
X132084993Y-103019928D01*
X132084975Y-102912131D01*
X132084914Y-102817018D01*
X132084795Y-102733779D01*
X132084605Y-102661605D01*
X132084332Y-102599686D01*
X132083962Y-102547214D01*
X132083481Y-102503379D01*
X132082877Y-102467371D01*
X132082136Y-102438382D01*
X132081245Y-102415602D01*
X132080191Y-102398222D01*
X132078960Y-102385433D01*
X132077540Y-102376425D01*
X132075916Y-102370389D01*
X132074304Y-102366884D01*
X132051844Y-102340736D01*
X132023913Y-102325409D01*
X131993233Y-102321001D01*
X131962525Y-102327611D01*
X131934510Y-102345339D01*
X131920187Y-102361272D01*
X131917414Y-102365336D01*
X131915025Y-102370082D01*
X131912982Y-102376508D01*
X131911248Y-102385614D01*
X131909786Y-102398399D01*
X131908558Y-102415862D01*
X131907528Y-102439003D01*
X131906658Y-102468819D01*
X131905910Y-102506311D01*
X131905248Y-102552478D01*
X131904635Y-102608319D01*
X131904032Y-102674832D01*
X131903404Y-102753018D01*
X131902842Y-102826706D01*
X131899468Y-103273098D01*
X131657041Y-102834650D01*
X131617433Y-102763058D01*
X131579415Y-102694419D01*
X131543536Y-102629723D01*
X131510349Y-102569961D01*
X131480405Y-102516122D01*
X131454255Y-102469197D01*
X131432450Y-102430177D01*
X131415542Y-102400051D01*
X131404082Y-102379811D01*
X131398754Y-102370658D01*
X131375579Y-102343509D01*
X131347692Y-102326482D01*
X131317656Y-102319744D01*
X131288035Y-102323465D01*
X131261393Y-102337811D01*
X131241815Y-102360377D01*
X131239534Y-102364317D01*
X131237525Y-102368774D01*
X131235772Y-102374573D01*
X131234262Y-102382538D01*
X131232978Y-102393493D01*
X131231908Y-102408264D01*
X131231035Y-102427673D01*
X131230345Y-102452546D01*
X131229824Y-102483707D01*
X131229456Y-102521979D01*
X131229227Y-102568188D01*
X131229122Y-102623158D01*
X130673792Y-102623158D01*
X130658736Y-102578733D01*
X130640768Y-102526446D01*
X130625310Y-102482396D01*
X130612070Y-102445821D01*
X130600757Y-102415962D01*
X130591080Y-102392056D01*
X130582748Y-102373342D01*
X130575469Y-102359060D01*
X130568952Y-102348448D01*
X130562906Y-102340746D01*
X130557039Y-102335192D01*
X130551060Y-102331025D01*
X130544677Y-102327484D01*
X130542209Y-102326208D01*
X130514509Y-102318957D01*
X130484166Y-102322174D01*
X130455621Y-102334846D01*
X130438040Y-102349973D01*
X130434408Y-102358021D01*
X130426848Y-102377994D01*
X130415663Y-102409008D01*
X130401157Y-102450174D01*
X130383635Y-102500609D01*
X130363400Y-102559426D01*
X130340757Y-102625739D01*
X130316010Y-102698662D01*
X130289462Y-102777309D01*
X130261419Y-102860794D01*
X130232184Y-102948232D01*
X130216595Y-102995021D01*
X130181457Y-103100595D01*
X130150348Y-103194137D01*
X130123054Y-103276420D01*
X130099361Y-103348221D01*
X130079056Y-103410315D01*
X130061924Y-103463477D01*
X130047751Y-103508483D01*
X130036325Y-103546107D01*
X130027430Y-103577126D01*
X130020854Y-103602313D01*
X130016382Y-103622445D01*
X130013801Y-103638297D01*
X130012896Y-103650644D01*
X129590566Y-103650644D01*
X129609483Y-103639388D01*
X129665089Y-103591025D01*
X129712591Y-103532388D01*
X129744260Y-103478496D01*
X129768314Y-103416786D01*
X129782050Y-103349306D01*
X129785387Y-103279074D01*
X129778243Y-103209111D01*
X129760538Y-103142433D01*
X129753734Y-103124900D01*
X129727830Y-103074752D01*
X129693624Y-103025983D01*
X129654377Y-102982718D01*
X129616551Y-102951275D01*
X129600406Y-102940033D01*
X129630043Y-102908964D01*
X129661180Y-102872524D01*
X129683594Y-102836177D01*
X129700711Y-102794152D01*
X129703634Y-102785092D01*
X129712397Y-102744688D01*
X129716670Y-102697424D01*
X129716383Y-102648713D01*
X129711467Y-102603971D01*
X129706262Y-102581264D01*
X129681831Y-102520404D01*
X129646637Y-102464636D01*
X129602441Y-102415619D01*
X129551007Y-102375012D01*
X129494096Y-102344473D01*
X129435033Y-102325979D01*
X129417616Y-102323858D01*
X129388310Y-102322032D01*
X129348716Y-102320549D01*
X129300433Y-102319459D01*
X129245064Y-102318811D01*
X129195537Y-102318644D01*
X129137474Y-102318695D01*
X129091322Y-102318897D01*
X129055503Y-102319344D01*
X129028436Y-102320132D01*
X129008541Y-102321356D01*
X128994237Y-102323112D01*
X128983944Y-102325495D01*
X128976082Y-102328600D01*
X128969461Y-102332284D01*
X128962578Y-102336340D01*
X128956494Y-102340149D01*
X128951161Y-102344524D01*
X128946530Y-102350276D01*
X128942550Y-102358218D01*
X128939173Y-102369163D01*
X128936349Y-102383923D01*
X128934030Y-102403311D01*
X128932165Y-102428138D01*
X128930705Y-102459217D01*
X128929601Y-102497360D01*
X128928804Y-102543381D01*
X128928264Y-102598091D01*
X128927933Y-102662303D01*
X128927760Y-102736828D01*
X128927697Y-102822480D01*
X128927694Y-102920071D01*
X128927702Y-103020239D01*
X128927693Y-103129409D01*
X128199097Y-103129409D01*
X128199097Y-102076256D01*
X128213364Y-102038124D01*
G37*
G36*
X142534436Y-103160676D02*
G01*
X142545103Y-103175590D01*
X142560007Y-103198048D01*
X142577926Y-103226051D01*
X142597640Y-103257599D01*
X142617928Y-103290692D01*
X142637568Y-103323331D01*
X142655340Y-103353516D01*
X142670024Y-103379248D01*
X142680398Y-103398527D01*
X142685241Y-103409354D01*
X142685294Y-103410933D01*
X142678147Y-103416236D01*
X142662323Y-103428102D01*
X142639910Y-103444961D01*
X142612996Y-103465243D01*
X142602334Y-103473287D01*
X142570167Y-103496618D01*
X142540514Y-103516379D01*
X142515938Y-103530954D01*
X142499006Y-103538725D01*
X142497981Y-103539026D01*
X142479962Y-103543860D01*
X142468659Y-103545408D01*
X142457810Y-103543416D01*
X142441156Y-103537631D01*
X142438311Y-103536613D01*
X142402792Y-103517715D01*
X142377275Y-103490589D01*
X142362759Y-103456598D01*
X142359681Y-103429347D01*
X142360488Y-103416082D01*
X142363703Y-103403000D01*
X142370518Y-103387700D01*
X142382126Y-103367779D01*
X142399719Y-103340838D01*
X142414271Y-103319384D01*
X142436891Y-103286210D01*
X142459571Y-103252823D01*
X142479861Y-103222838D01*
X142495310Y-103199872D01*
X142496914Y-103197471D01*
X142510926Y-103177253D01*
X142522259Y-103162319D01*
X142528768Y-103155466D01*
X142529225Y-103155306D01*
X142534436Y-103160676D01*
G37*
%TO.C,L5*%
X150960000Y-94508578D02*
X150960000Y-93991422D01*
X149540000Y-94508578D02*
X149540000Y-93991422D01*
%TO.C,G\u002A\u002A\u002A*%
G36*
X131930249Y-87534536D02*
G01*
X131930284Y-87374908D01*
X131930429Y-87216497D01*
X131930687Y-87060791D01*
X131931055Y-86909281D01*
X131931534Y-86763455D01*
X131932124Y-86624802D01*
X131932825Y-86494813D01*
X131933638Y-86374975D01*
X131934561Y-86266779D01*
X131935595Y-86171713D01*
X131936740Y-86091267D01*
X131937996Y-86026931D01*
X131939364Y-85980192D01*
X131940842Y-85952542D01*
X131941411Y-85947484D01*
X131958993Y-85862507D01*
X131982186Y-85796326D01*
X132011624Y-85747208D01*
X132017169Y-85740574D01*
X132048778Y-85704574D01*
X140451221Y-85704574D01*
X140482830Y-85740574D01*
X140513368Y-85787023D01*
X140537556Y-85850247D01*
X140556027Y-85931978D01*
X140558588Y-85947484D01*
X140560107Y-85967771D01*
X140561515Y-86007691D01*
X140562812Y-86065755D01*
X140563998Y-86140474D01*
X140565073Y-86230358D01*
X140566037Y-86333918D01*
X140566889Y-86449664D01*
X140567631Y-86576109D01*
X140568262Y-86711761D01*
X140568782Y-86855133D01*
X140569191Y-87004734D01*
X140569489Y-87159076D01*
X140569675Y-87316669D01*
X140569751Y-87476025D01*
X140569716Y-87635652D01*
X140569570Y-87794064D01*
X140569313Y-87949769D01*
X140568945Y-88101280D01*
X140568465Y-88247106D01*
X140567875Y-88385758D01*
X140567174Y-88515748D01*
X140566362Y-88635586D01*
X140565439Y-88743782D01*
X140564404Y-88838848D01*
X140563259Y-88919294D01*
X140562003Y-88983630D01*
X140560636Y-89030368D01*
X140559158Y-89058019D01*
X140558588Y-89063077D01*
X140541006Y-89148053D01*
X140517814Y-89214234D01*
X140488375Y-89263352D01*
X140482830Y-89269986D01*
X140451221Y-89305987D01*
X132048778Y-89305987D01*
X132017169Y-89269986D01*
X131986631Y-89223538D01*
X131962443Y-89160314D01*
X131943973Y-89078583D01*
X131941411Y-89063077D01*
X131939892Y-89042790D01*
X131938484Y-89002869D01*
X131937187Y-88944805D01*
X131936002Y-88870087D01*
X131934927Y-88780203D01*
X131933963Y-88676643D01*
X131933110Y-88560896D01*
X131932368Y-88434452D01*
X131931737Y-88298799D01*
X131931217Y-88155428D01*
X131930809Y-88005826D01*
X131930511Y-87851484D01*
X131930446Y-87795672D01*
X132965393Y-87795672D01*
X132965448Y-87928976D01*
X132965684Y-88044937D01*
X132966192Y-88144818D01*
X132967061Y-88229877D01*
X132968381Y-88301376D01*
X132970242Y-88360575D01*
X132972735Y-88408734D01*
X132975949Y-88447114D01*
X132979975Y-88476974D01*
X132984902Y-88499575D01*
X132990821Y-88516177D01*
X132997822Y-88528042D01*
X133005994Y-88536428D01*
X133015428Y-88542596D01*
X133026214Y-88547808D01*
X133038442Y-88553322D01*
X133042884Y-88555460D01*
X133054435Y-88560805D01*
X133066830Y-88565196D01*
X133082152Y-88568728D01*
X133102483Y-88571493D01*
X133129906Y-88573585D01*
X133166502Y-88575098D01*
X133214355Y-88576126D01*
X133275547Y-88576761D01*
X133352160Y-88577097D01*
X133446277Y-88577228D01*
X133528156Y-88577247D01*
X133642029Y-88577115D01*
X133736572Y-88576678D01*
X133813580Y-88575881D01*
X133874843Y-88574670D01*
X133922154Y-88572990D01*
X133957305Y-88570787D01*
X133982090Y-88568006D01*
X133998299Y-88564592D01*
X134003416Y-88562775D01*
X134046853Y-88534874D01*
X134076409Y-88496877D01*
X134091868Y-88453035D01*
X134093015Y-88407601D01*
X134079632Y-88364824D01*
X134051504Y-88328958D01*
X134016386Y-88307306D01*
X134002396Y-88303052D01*
X133981512Y-88299629D01*
X133951646Y-88296957D01*
X133910713Y-88294958D01*
X133856626Y-88293552D01*
X133787301Y-88292661D01*
X133700649Y-88292204D01*
X133615287Y-88292099D01*
X133250582Y-88292099D01*
X133250350Y-87397027D01*
X133250293Y-87238585D01*
X133250189Y-87099876D01*
X133250007Y-86979509D01*
X133249719Y-86876093D01*
X133249294Y-86788238D01*
X133248701Y-86714553D01*
X133247912Y-86653648D01*
X133246895Y-86604133D01*
X133245621Y-86564617D01*
X133244060Y-86533709D01*
X133242405Y-86512844D01*
X134451942Y-86512844D01*
X134452394Y-86523684D01*
X134454683Y-86535714D01*
X134459714Y-86550440D01*
X134468396Y-86569365D01*
X134481636Y-86593995D01*
X134500341Y-86625835D01*
X134525419Y-86666388D01*
X134557778Y-86717160D01*
X134598324Y-86779656D01*
X134647966Y-86855380D01*
X134707611Y-86945837D01*
X134769752Y-87039817D01*
X135088253Y-87521156D01*
X135088253Y-87999330D01*
X135088238Y-88115618D01*
X135088347Y-88212676D01*
X135088812Y-88292393D01*
X135089866Y-88356661D01*
X135091741Y-88407371D01*
X135094670Y-88446414D01*
X135098885Y-88475681D01*
X135104619Y-88497062D01*
X135112104Y-88512450D01*
X135121572Y-88523735D01*
X135133256Y-88532808D01*
X135147388Y-88541560D01*
X135155494Y-88546437D01*
X135203710Y-88564115D01*
X135255180Y-88562769D01*
X135289910Y-88550339D01*
X135317516Y-88529607D01*
X135341186Y-88501722D01*
X135342153Y-88500173D01*
X135347046Y-88491289D01*
X135351099Y-88480853D01*
X135354391Y-88466914D01*
X135357000Y-88447522D01*
X135359006Y-88420726D01*
X135360488Y-88384575D01*
X135361525Y-88337119D01*
X135362196Y-88276406D01*
X135362581Y-88200487D01*
X135362759Y-88107410D01*
X135362808Y-87995225D01*
X135362808Y-87991220D01*
X135362824Y-87797408D01*
X136355544Y-87797408D01*
X136355593Y-87931010D01*
X136355815Y-88047254D01*
X136356302Y-88147393D01*
X136357142Y-88232684D01*
X136358424Y-88304380D01*
X136360239Y-88363736D01*
X136362675Y-88412006D01*
X136365822Y-88450446D01*
X136369769Y-88480311D01*
X136374606Y-88502853D01*
X136380423Y-88519329D01*
X136387308Y-88530993D01*
X136395352Y-88539100D01*
X136404643Y-88544904D01*
X136415271Y-88549660D01*
X136427325Y-88554622D01*
X136432883Y-88557092D01*
X136486724Y-88571631D01*
X136538973Y-88565523D01*
X136574204Y-88548515D01*
X136585017Y-88541423D01*
X136594341Y-88534323D01*
X136602286Y-88525688D01*
X136608962Y-88513990D01*
X136614480Y-88497704D01*
X136618950Y-88475303D01*
X136622482Y-88445259D01*
X136625187Y-88406046D01*
X136627174Y-88356137D01*
X136628554Y-88294006D01*
X136629437Y-88218125D01*
X136629934Y-88126968D01*
X136630155Y-88019008D01*
X136630209Y-87892718D01*
X136630208Y-87773006D01*
X136630324Y-87621545D01*
X136630683Y-87490490D01*
X136631294Y-87379126D01*
X136632171Y-87286740D01*
X136633324Y-87212615D01*
X136634767Y-87156037D01*
X136636509Y-87116292D01*
X136638563Y-87092664D01*
X136640942Y-87084439D01*
X136641541Y-87084655D01*
X136648357Y-87095485D01*
X136664606Y-87123354D01*
X136689480Y-87166830D01*
X136722172Y-87224476D01*
X136761875Y-87294858D01*
X136807780Y-87376543D01*
X136859082Y-87468094D01*
X136914972Y-87568078D01*
X136974643Y-87675060D01*
X137037288Y-87787606D01*
X137050792Y-87811896D01*
X137128058Y-87950531D01*
X137198758Y-88076616D01*
X137262470Y-88189420D01*
X137318771Y-88288214D01*
X137367239Y-88372265D01*
X137407453Y-88440842D01*
X137438989Y-88493216D01*
X137461425Y-88528655D01*
X137474340Y-88546428D01*
X137476028Y-88548023D01*
X137521511Y-88569696D01*
X137570380Y-88573289D01*
X137617364Y-88559988D01*
X137657188Y-88530981D01*
X137677604Y-88502675D01*
X137680861Y-88495778D01*
X137683731Y-88487123D01*
X137686238Y-88475407D01*
X137688406Y-88459326D01*
X137689049Y-88451778D01*
X138045491Y-88451778D01*
X138049098Y-88467951D01*
X138055531Y-88484248D01*
X138063107Y-88500429D01*
X138091529Y-88537603D01*
X138132190Y-88561993D01*
X138179547Y-88572215D01*
X138228056Y-88566884D01*
X138263833Y-88550579D01*
X138274948Y-88538426D01*
X138296342Y-88510474D01*
X138326712Y-88468585D01*
X138364752Y-88414623D01*
X138409160Y-88350453D01*
X138458632Y-88277938D01*
X138511864Y-88198941D01*
X138554134Y-88135564D01*
X138608578Y-88053609D01*
X138659397Y-87977182D01*
X138705408Y-87908058D01*
X138745427Y-87848011D01*
X138778272Y-87798815D01*
X138802759Y-87762245D01*
X138817704Y-87740074D01*
X138822000Y-87733895D01*
X138828391Y-87741632D01*
X138845249Y-87765263D01*
X138871399Y-87803059D01*
X138905667Y-87853290D01*
X138946876Y-87914226D01*
X138993851Y-87984137D01*
X139045417Y-88061294D01*
X139091093Y-88129945D01*
X139146809Y-88213332D01*
X139199737Y-88291546D01*
X139248576Y-88362737D01*
X139292027Y-88425055D01*
X139328790Y-88476648D01*
X139357567Y-88515668D01*
X139377057Y-88540264D01*
X139384835Y-88548156D01*
X139418007Y-88561205D01*
X139461285Y-88566608D01*
X139464527Y-88566638D01*
X139497054Y-88564816D01*
X139520665Y-88556542D01*
X139544576Y-88537730D01*
X139556939Y-88525691D01*
X139581266Y-88499158D01*
X139593471Y-88476758D01*
X139597618Y-88449056D01*
X139597941Y-88430546D01*
X139597690Y-88418035D01*
X139596301Y-88405782D01*
X139592824Y-88392188D01*
X139586307Y-88375652D01*
X139575799Y-88354576D01*
X139560348Y-88327359D01*
X139539004Y-88292404D01*
X139510815Y-88248109D01*
X139474830Y-88192876D01*
X139430098Y-88125105D01*
X139375667Y-88043196D01*
X139310586Y-87945552D01*
X139300464Y-87930375D01*
X139242533Y-87843270D01*
X139188327Y-87761291D01*
X139138954Y-87686146D01*
X139095523Y-87619546D01*
X139059141Y-87563200D01*
X139030918Y-87518818D01*
X139011962Y-87488110D01*
X139003381Y-87472786D01*
X139002987Y-87471533D01*
X139008679Y-87460485D01*
X139025021Y-87433597D01*
X139050905Y-87392578D01*
X139085226Y-87339137D01*
X139126877Y-87274985D01*
X139174752Y-87201831D01*
X139227747Y-87121384D01*
X139284753Y-87035353D01*
X139300464Y-87011729D01*
X139367520Y-86910860D01*
X139423739Y-86825960D01*
X139470066Y-86755465D01*
X139507444Y-86697814D01*
X139536818Y-86651443D01*
X139559134Y-86614790D01*
X139575336Y-86586291D01*
X139586369Y-86564385D01*
X139593177Y-86547508D01*
X139596705Y-86534098D01*
X139597897Y-86522591D01*
X139597941Y-86519621D01*
X139590272Y-86464831D01*
X139566600Y-86423286D01*
X139525931Y-86393368D01*
X139518104Y-86389694D01*
X139484410Y-86377199D01*
X139457503Y-86374955D01*
X139431723Y-86380230D01*
X139401227Y-86390902D01*
X139377764Y-86402653D01*
X139375264Y-86404433D01*
X139366103Y-86415689D01*
X139346531Y-86442730D01*
X139317802Y-86483730D01*
X139281168Y-86536862D01*
X139237884Y-86600301D01*
X139189201Y-86672220D01*
X139136373Y-86750795D01*
X139091841Y-86817410D01*
X138825148Y-87217357D01*
X138556956Y-86815154D01*
X138501198Y-86732030D01*
X138448170Y-86653925D01*
X138399176Y-86582694D01*
X138355522Y-86520190D01*
X138318513Y-86468270D01*
X138289455Y-86428789D01*
X138269652Y-86403601D01*
X138261315Y-86394964D01*
X138224598Y-86381088D01*
X138179630Y-86377775D01*
X138136442Y-86385013D01*
X138114403Y-86395154D01*
X138075074Y-86432041D01*
X138052618Y-86478161D01*
X138048771Y-86525192D01*
X138051447Y-86537874D01*
X138057827Y-86554746D01*
X138068817Y-86577285D01*
X138085322Y-86606965D01*
X138108247Y-86645261D01*
X138138497Y-86693649D01*
X138176977Y-86753601D01*
X138224591Y-86826595D01*
X138282245Y-86914104D01*
X138350844Y-87017604D01*
X138351569Y-87018696D01*
X138411428Y-87109269D01*
X138466639Y-87193678D01*
X138516202Y-87270337D01*
X138559116Y-87337660D01*
X138594379Y-87394060D01*
X138620992Y-87437951D01*
X138637953Y-87467747D01*
X138644262Y-87481861D01*
X138644222Y-87482543D01*
X138637414Y-87493980D01*
X138620003Y-87521255D01*
X138593123Y-87562644D01*
X138557907Y-87616421D01*
X138515489Y-87680863D01*
X138467000Y-87754245D01*
X138413576Y-87834842D01*
X138356348Y-87920930D01*
X138342003Y-87942472D01*
X138273061Y-88046007D01*
X138214998Y-88133556D01*
X138167009Y-88206730D01*
X138128287Y-88267140D01*
X138098028Y-88316397D01*
X138075427Y-88356113D01*
X138059678Y-88387898D01*
X138049976Y-88413363D01*
X138045515Y-88434119D01*
X138045491Y-88451778D01*
X137689049Y-88451778D01*
X137690259Y-88437579D01*
X137691823Y-88408863D01*
X137693121Y-88371875D01*
X137694178Y-88325313D01*
X137695019Y-88267874D01*
X137695668Y-88198255D01*
X137696150Y-88115154D01*
X137696488Y-88017269D01*
X137696708Y-87903296D01*
X137696834Y-87771934D01*
X137696890Y-87621879D01*
X137696902Y-87475877D01*
X137696872Y-87306996D01*
X137696767Y-87157972D01*
X137696567Y-87027538D01*
X137696253Y-86914429D01*
X137695803Y-86817376D01*
X137695198Y-86735116D01*
X137694418Y-86666381D01*
X137693441Y-86609905D01*
X137692249Y-86564422D01*
X137690820Y-86528666D01*
X137689134Y-86501371D01*
X137687171Y-86481270D01*
X137684912Y-86467098D01*
X137682334Y-86457587D01*
X137680547Y-86453436D01*
X137650419Y-86415406D01*
X137609828Y-86391351D01*
X137563691Y-86381409D01*
X137516925Y-86385715D01*
X137474448Y-86404404D01*
X137441178Y-86437612D01*
X137435688Y-86446686D01*
X137431945Y-86454795D01*
X137428706Y-86465490D01*
X137425918Y-86480338D01*
X137423530Y-86500907D01*
X137421491Y-86528765D01*
X137419749Y-86565480D01*
X137418252Y-86612622D01*
X137416949Y-86671756D01*
X137415789Y-86744452D01*
X137414720Y-86832278D01*
X137413690Y-86936802D01*
X137412648Y-87059592D01*
X137411746Y-87175255D01*
X137406465Y-87869679D01*
X137004608Y-87143855D01*
X136928946Y-87007192D01*
X136862775Y-86887819D01*
X136805314Y-86784566D01*
X136755785Y-86696266D01*
X136713408Y-86621750D01*
X136677403Y-86559849D01*
X136646992Y-86509396D01*
X136621394Y-86469220D01*
X136599831Y-86438155D01*
X136581523Y-86415030D01*
X136565690Y-86398679D01*
X136551553Y-86387931D01*
X136538333Y-86381620D01*
X136525251Y-86378575D01*
X136511526Y-86377629D01*
X136496380Y-86377613D01*
X136493536Y-86377618D01*
X136443442Y-86387027D01*
X136399735Y-86412747D01*
X136372886Y-86444287D01*
X136369969Y-86450647D01*
X136367397Y-86460088D01*
X136365148Y-86473885D01*
X136363201Y-86493310D01*
X136361535Y-86519636D01*
X136360128Y-86554135D01*
X136358959Y-86598081D01*
X136358007Y-86652747D01*
X136357250Y-86719405D01*
X136356668Y-86799329D01*
X136356237Y-86893791D01*
X136355938Y-87004065D01*
X136355749Y-87131422D01*
X136355648Y-87277137D01*
X136355614Y-87442481D01*
X136355613Y-87473110D01*
X136355581Y-87645193D01*
X136355544Y-87797408D01*
X135362824Y-87797408D01*
X135362848Y-87516078D01*
X135680025Y-87040077D01*
X135761480Y-86917321D01*
X135830883Y-86811625D01*
X135888358Y-86722788D01*
X135934030Y-86650614D01*
X135968025Y-86594901D01*
X135990468Y-86555452D01*
X136001485Y-86532066D01*
X136002650Y-86527734D01*
X135999501Y-86482953D01*
X135979588Y-86440085D01*
X135947086Y-86403829D01*
X135906171Y-86378884D01*
X135862425Y-86369937D01*
X135844515Y-86370464D01*
X135828154Y-86373012D01*
X135812122Y-86379035D01*
X135795199Y-86389986D01*
X135776167Y-86407318D01*
X135753806Y-86432485D01*
X135726895Y-86466940D01*
X135694216Y-86512135D01*
X135654548Y-86569525D01*
X135606673Y-86640562D01*
X135549370Y-86726700D01*
X135498410Y-86803696D01*
X135443844Y-86885866D01*
X135392674Y-86962247D01*
X135346095Y-87031102D01*
X135305305Y-87090693D01*
X135271499Y-87139283D01*
X135245873Y-87175135D01*
X135229625Y-87196511D01*
X135224102Y-87202011D01*
X135216546Y-87192876D01*
X135198508Y-87167944D01*
X135171215Y-87129001D01*
X135135895Y-87077829D01*
X135093773Y-87016214D01*
X135046077Y-86945939D01*
X134994034Y-86868790D01*
X134953682Y-86808677D01*
X134898464Y-86726737D01*
X134845932Y-86649712D01*
X134797427Y-86579502D01*
X134754289Y-86518007D01*
X134717860Y-86467124D01*
X134689478Y-86428754D01*
X134670485Y-86404795D01*
X134663564Y-86397665D01*
X134625743Y-86381259D01*
X134589309Y-86376978D01*
X134535945Y-86386239D01*
X134493584Y-86412309D01*
X134464824Y-86452618D01*
X134452263Y-86504600D01*
X134451942Y-86512844D01*
X133242405Y-86512844D01*
X133242181Y-86510020D01*
X133239955Y-86492159D01*
X133237352Y-86478735D01*
X133234341Y-86468357D01*
X133230893Y-86459636D01*
X133230057Y-86457769D01*
X133199935Y-86414616D01*
X133157050Y-86387874D01*
X133103158Y-86378612D01*
X133100027Y-86378629D01*
X133049856Y-86388428D01*
X133009081Y-86416795D01*
X132986084Y-86447081D01*
X132982616Y-86453286D01*
X132979562Y-86460692D01*
X132976893Y-86470598D01*
X132974586Y-86484309D01*
X132972612Y-86503125D01*
X132970946Y-86528349D01*
X132969563Y-86561283D01*
X132968434Y-86603229D01*
X132967536Y-86655488D01*
X132966840Y-86719363D01*
X132966322Y-86796156D01*
X132965954Y-86887169D01*
X132965711Y-86993704D01*
X132965567Y-87117063D01*
X132965494Y-87258548D01*
X132965468Y-87419460D01*
X132965465Y-87472000D01*
X132965429Y-87643767D01*
X132965393Y-87795672D01*
X131930446Y-87795672D01*
X131930325Y-87693891D01*
X131930249Y-87534536D01*
G37*
%TO.C,C3*%
X148137221Y-97790000D02*
X148462779Y-97790000D01*
X148137221Y-98810000D02*
X148462779Y-98810000D01*
%TO.C,L1*%
X135060000Y-97191422D02*
X135060000Y-97708578D01*
X133640000Y-97191422D02*
X133640000Y-97708578D01*
%TO.C,C5*%
X153037221Y-90910000D02*
X153362779Y-90910000D01*
X153037221Y-89890000D02*
X153362779Y-89890000D01*
%TO.C,G\u002A\u002A\u002A*%
G36*
X157942242Y-102448962D02*
G01*
X157986402Y-102472712D01*
X158013401Y-102495344D01*
X158029991Y-102512322D01*
X158043210Y-102528586D01*
X158053439Y-102545961D01*
X158061057Y-102566273D01*
X158066444Y-102591345D01*
X158069980Y-102623003D01*
X158072044Y-102663072D01*
X158073018Y-102713378D01*
X158073279Y-102775744D01*
X158073281Y-102783041D01*
X158073281Y-102957761D01*
X157958883Y-102957205D01*
X157905541Y-102956372D01*
X157864869Y-102954387D01*
X157835497Y-102951149D01*
X157816063Y-102946558D01*
X157774227Y-102924329D01*
X157738666Y-102889935D01*
X157717529Y-102858185D01*
X157696646Y-102820483D01*
X157696646Y-102697284D01*
X157697046Y-102645732D01*
X157698749Y-102605782D01*
X157702505Y-102574968D01*
X157709066Y-102550821D01*
X157719184Y-102530876D01*
X157733611Y-102512664D01*
X157753097Y-102493721D01*
X157760739Y-102486912D01*
X157803744Y-102457378D01*
X157849363Y-102441244D01*
X157896046Y-102438455D01*
X157942242Y-102448962D01*
G37*
G36*
X159011745Y-102660673D02*
G01*
X159015239Y-102667207D01*
X159020570Y-102679939D01*
X159028004Y-102699642D01*
X159037808Y-102727091D01*
X159050248Y-102763059D01*
X159065590Y-102808319D01*
X159084102Y-102863645D01*
X159106051Y-102929810D01*
X159131701Y-103007589D01*
X159161321Y-103097754D01*
X159171395Y-103128479D01*
X159184664Y-103168958D01*
X159012648Y-103168958D01*
X158965112Y-103168752D01*
X158922613Y-103168172D01*
X158887055Y-103167277D01*
X158860346Y-103166126D01*
X158844392Y-103164777D01*
X158840631Y-103163680D01*
X158842803Y-103155263D01*
X158848911Y-103135400D01*
X158858348Y-103105902D01*
X158870506Y-103068581D01*
X158884777Y-103025249D01*
X158900553Y-102977716D01*
X158917227Y-102927794D01*
X158934189Y-102877295D01*
X158950833Y-102828030D01*
X158966550Y-102781811D01*
X158980732Y-102740449D01*
X158992772Y-102705755D01*
X159002061Y-102679542D01*
X159007991Y-102663620D01*
X159009821Y-102659564D01*
X159011745Y-102660673D01*
G37*
G36*
X156716338Y-102438287D02*
G01*
X156777550Y-102439676D01*
X156826801Y-102441936D01*
X156866209Y-102445654D01*
X156897892Y-102451420D01*
X156923965Y-102459820D01*
X156946547Y-102471443D01*
X156967753Y-102486876D01*
X156989702Y-102506709D01*
X157000311Y-102517150D01*
X157035704Y-102558238D01*
X157059152Y-102600222D01*
X157072196Y-102646828D01*
X157076375Y-102700804D01*
X157070839Y-102758504D01*
X157053095Y-102810449D01*
X157022614Y-102857687D01*
X156978867Y-102901266D01*
X156972681Y-102906315D01*
X156950640Y-102922166D01*
X156927456Y-102934512D01*
X156901057Y-102943757D01*
X156869369Y-102950300D01*
X156830316Y-102954543D01*
X156781827Y-102956888D01*
X156721826Y-102957736D01*
X156706797Y-102957761D01*
X156559700Y-102957761D01*
X156559700Y-102435637D01*
X156716338Y-102438287D01*
G37*
G36*
X154553746Y-102501411D02*
G01*
X154554343Y-102409157D01*
X154555052Y-102322772D01*
X154555872Y-102243255D01*
X154556802Y-102171603D01*
X154557843Y-102108814D01*
X154558996Y-102055883D01*
X154560259Y-102013811D01*
X154561634Y-101983592D01*
X154563119Y-101966226D01*
X154563477Y-101964152D01*
X154578570Y-101908950D01*
X154597986Y-101864218D01*
X154621048Y-101831410D01*
X154628378Y-101824284D01*
X154652374Y-101803216D01*
X161754665Y-101803216D01*
X161778661Y-101824284D01*
X161802661Y-101853333D01*
X161823212Y-101894732D01*
X161839638Y-101947025D01*
X161843562Y-101964152D01*
X161845073Y-101978416D01*
X161846473Y-102005761D01*
X161847762Y-102045191D01*
X161848940Y-102095708D01*
X161850007Y-102156315D01*
X161850963Y-102226014D01*
X161851808Y-102303807D01*
X161852542Y-102388698D01*
X161853165Y-102479688D01*
X161853677Y-102575780D01*
X161854079Y-102675977D01*
X161854369Y-102779282D01*
X161854548Y-102884696D01*
X161854616Y-102991223D01*
X161854574Y-103097864D01*
X161854420Y-103203623D01*
X161854155Y-103307502D01*
X161853780Y-103408504D01*
X161853293Y-103505630D01*
X161852696Y-103597884D01*
X161851987Y-103684268D01*
X161851168Y-103763785D01*
X161850237Y-103835437D01*
X161849196Y-103898227D01*
X161848043Y-103951157D01*
X161846780Y-103993230D01*
X161845405Y-104023448D01*
X161843920Y-104040815D01*
X161843562Y-104042889D01*
X161828469Y-104098090D01*
X161809053Y-104142823D01*
X161785991Y-104175631D01*
X161778661Y-104182757D01*
X161754665Y-104203825D01*
X154652374Y-104203825D01*
X154628378Y-104182757D01*
X154604378Y-104153707D01*
X154583827Y-104112309D01*
X154567401Y-104060016D01*
X154563477Y-104042889D01*
X154561966Y-104028625D01*
X154560566Y-104001280D01*
X154559277Y-103961849D01*
X154558099Y-103911332D01*
X154557032Y-103850726D01*
X154556076Y-103781027D01*
X154555231Y-103703234D01*
X154554497Y-103618343D01*
X154553874Y-103527353D01*
X154553362Y-103431261D01*
X154552961Y-103331063D01*
X154552671Y-103227759D01*
X154552492Y-103122345D01*
X154552424Y-103015818D01*
X154552466Y-102909177D01*
X154552620Y-102803418D01*
X154552885Y-102699539D01*
X154553195Y-102616010D01*
X155243476Y-102616010D01*
X155247494Y-102686439D01*
X155264462Y-102756553D01*
X155283369Y-102802883D01*
X155300465Y-102830996D01*
X155326365Y-102863868D01*
X155355314Y-102895014D01*
X155369413Y-102908987D01*
X155382253Y-102921021D01*
X155395308Y-102931994D01*
X155410054Y-102942783D01*
X155427967Y-102954268D01*
X155450521Y-102967324D01*
X155479192Y-102982831D01*
X155515455Y-103001666D01*
X155560786Y-103024707D01*
X155616659Y-103052832D01*
X155641500Y-103065305D01*
X155712270Y-103101178D01*
X155772418Y-103132396D01*
X155821504Y-103158718D01*
X155859085Y-103179901D01*
X155884720Y-103195705D01*
X155897583Y-103205492D01*
X155927580Y-103244573D01*
X155944899Y-103289329D01*
X155949909Y-103337916D01*
X155945670Y-103382754D01*
X155932629Y-103420216D01*
X155908918Y-103455183D01*
X155901946Y-103463179D01*
X155872292Y-103490488D01*
X155839756Y-103508346D01*
X155800966Y-103518064D01*
X155753410Y-103520954D01*
X155665508Y-103513999D01*
X155577748Y-103493385D01*
X155491399Y-103459486D01*
X155426275Y-103424327D01*
X155380520Y-103400786D01*
X155341022Y-103389719D01*
X155307479Y-103391138D01*
X155279593Y-103405056D01*
X155257062Y-103431486D01*
X155257032Y-103431537D01*
X155244353Y-103464627D01*
X155244460Y-103498462D01*
X155256582Y-103529996D01*
X155279943Y-103556181D01*
X155290499Y-103563438D01*
X155367845Y-103607542D01*
X155438673Y-103642505D01*
X155506073Y-103669482D01*
X155573133Y-103689624D01*
X155642943Y-103704085D01*
X155683231Y-103709983D01*
X155726371Y-103714792D01*
X155760555Y-103716573D01*
X155790594Y-103715256D01*
X155821297Y-103710771D01*
X155836319Y-103707763D01*
X155905663Y-103686331D01*
X155967924Y-103653630D01*
X156022056Y-103610936D01*
X156067017Y-103559524D01*
X156101759Y-103500672D01*
X156125240Y-103435656D01*
X156136413Y-103365752D01*
X156137222Y-103340195D01*
X156132638Y-103271684D01*
X156118316Y-103211273D01*
X156093105Y-103156194D01*
X156055852Y-103103675D01*
X156046907Y-103093906D01*
X156369631Y-103093906D01*
X156369656Y-103193727D01*
X156369747Y-103281189D01*
X156369947Y-103357153D01*
X156370294Y-103422480D01*
X156370830Y-103478031D01*
X156371595Y-103524667D01*
X156372630Y-103563247D01*
X156373975Y-103594633D01*
X156375670Y-103619685D01*
X156377757Y-103639265D01*
X156380275Y-103654232D01*
X156383265Y-103665448D01*
X156386768Y-103673774D01*
X156390823Y-103680069D01*
X156395473Y-103685194D01*
X156400756Y-103690011D01*
X156403094Y-103692078D01*
X156432091Y-103709082D01*
X156465411Y-103714691D01*
X156498700Y-103708599D01*
X156515669Y-103699987D01*
X156530785Y-103686376D01*
X156545086Y-103668005D01*
X156545930Y-103666650D01*
X156549578Y-103659964D01*
X156552517Y-103652120D01*
X156554823Y-103641616D01*
X156556574Y-103626954D01*
X156557844Y-103606633D01*
X156558712Y-103579153D01*
X156559252Y-103543015D01*
X156559541Y-103496719D01*
X156559657Y-103438765D01*
X156559674Y-103396708D01*
X156559700Y-103149263D01*
X156733938Y-103146202D01*
X156790069Y-103145090D01*
X156834211Y-103143850D01*
X156868456Y-103142315D01*
X156894896Y-103140318D01*
X156915622Y-103137690D01*
X156932725Y-103134266D01*
X156948297Y-103129878D01*
X156951642Y-103128794D01*
X157026055Y-103097243D01*
X157092459Y-103054647D01*
X157149812Y-103001789D01*
X157190607Y-102949465D01*
X157228422Y-102880750D01*
X157253338Y-102809132D01*
X157265749Y-102736064D01*
X157265764Y-102732326D01*
X157504116Y-102732326D01*
X157505616Y-102777975D01*
X157509032Y-102816569D01*
X157509096Y-102817058D01*
X157524834Y-102885851D01*
X157552500Y-102949764D01*
X157590740Y-103007270D01*
X157638204Y-103056841D01*
X157693539Y-103096950D01*
X157755392Y-103126069D01*
X157792340Y-103136999D01*
X157827997Y-103142736D01*
X157876840Y-103146326D01*
X157938131Y-103147719D01*
X157944423Y-103147735D01*
X158051403Y-103147839D01*
X158040845Y-103184798D01*
X158012075Y-103260225D01*
X157970774Y-103330024D01*
X157917621Y-103393442D01*
X157853293Y-103449724D01*
X157778471Y-103498116D01*
X157742217Y-103516801D01*
X157704584Y-103536250D01*
X157678538Y-103553799D01*
X157662178Y-103571583D01*
X157653602Y-103591734D01*
X157650906Y-103616384D01*
X157650886Y-103619188D01*
X157656403Y-103656331D01*
X157672526Y-103684357D01*
X157698619Y-103702623D01*
X157734044Y-103710486D01*
X157741622Y-103710750D01*
X157760005Y-103709033D01*
X157782202Y-103702938D01*
X157810929Y-103691524D01*
X157848902Y-103673851D01*
X157850741Y-103672957D01*
X157926193Y-103629730D01*
X158494077Y-103629730D01*
X158501356Y-103661914D01*
X158518949Y-103687554D01*
X158544141Y-103705440D01*
X158574215Y-103714361D01*
X158606456Y-103713110D01*
X158638148Y-103700476D01*
X158644088Y-103696543D01*
X158651105Y-103690977D01*
X158657487Y-103683996D01*
X158663878Y-103674045D01*
X158670921Y-103659568D01*
X158679263Y-103639012D01*
X158689547Y-103610821D01*
X158702417Y-103573442D01*
X158718519Y-103525318D01*
X158732193Y-103483994D01*
X158773451Y-103359036D01*
X159247776Y-103359036D01*
X159298771Y-103512154D01*
X159318065Y-103568952D01*
X159334377Y-103613731D01*
X159348614Y-103648006D01*
X159361681Y-103673291D01*
X159374482Y-103691100D01*
X159387922Y-103702947D01*
X159402908Y-103710346D01*
X159419859Y-103714722D01*
X159449684Y-103713877D01*
X159479926Y-103702377D01*
X159505350Y-103682468D01*
X159510913Y-103675667D01*
X159515692Y-103669137D01*
X159519769Y-103662874D01*
X159522925Y-103656075D01*
X159524941Y-103647934D01*
X159525596Y-103637646D01*
X159524672Y-103624406D01*
X159521947Y-103607410D01*
X159517204Y-103585852D01*
X159510221Y-103558928D01*
X159500780Y-103525833D01*
X159488661Y-103485762D01*
X159473644Y-103437910D01*
X159455509Y-103381472D01*
X159434038Y-103315644D01*
X159409010Y-103239620D01*
X159394932Y-103197088D01*
X159762838Y-103197088D01*
X159762875Y-103285945D01*
X159763032Y-103363242D01*
X159763371Y-103429820D01*
X159763950Y-103486518D01*
X159764830Y-103534178D01*
X159766070Y-103573638D01*
X159767732Y-103605740D01*
X159769874Y-103631322D01*
X159772558Y-103651226D01*
X159775842Y-103666292D01*
X159779788Y-103677358D01*
X159784454Y-103685267D01*
X159789901Y-103690857D01*
X159796190Y-103694969D01*
X159803380Y-103698442D01*
X159811530Y-103702118D01*
X159814491Y-103703543D01*
X159822177Y-103707100D01*
X159830425Y-103710023D01*
X159840619Y-103712375D01*
X159854146Y-103714218D01*
X159872390Y-103715614D01*
X159896737Y-103716624D01*
X159928571Y-103717311D01*
X159969277Y-103717737D01*
X160020241Y-103717963D01*
X160082847Y-103718052D01*
X160139032Y-103718066D01*
X160211439Y-103718041D01*
X160271154Y-103717924D01*
X160319562Y-103717652D01*
X160358053Y-103717165D01*
X160388011Y-103716400D01*
X160410825Y-103715298D01*
X160427882Y-103713795D01*
X160440568Y-103711830D01*
X160450271Y-103709343D01*
X160458378Y-103706272D01*
X160463974Y-103703680D01*
X160491499Y-103683493D01*
X160508840Y-103656524D01*
X160515847Y-103625872D01*
X160512371Y-103594632D01*
X160498262Y-103565901D01*
X160473371Y-103542774D01*
X160471789Y-103541789D01*
X160465109Y-103538139D01*
X160457284Y-103535198D01*
X160446816Y-103532889D01*
X160432209Y-103531135D01*
X160411965Y-103529861D01*
X160384586Y-103528991D01*
X160348574Y-103528448D01*
X160302432Y-103528156D01*
X160244662Y-103528038D01*
X160201094Y-103528020D01*
X159952937Y-103527994D01*
X159952827Y-103100325D01*
X160748480Y-103100325D01*
X160748501Y-103199530D01*
X160748591Y-103286385D01*
X160748792Y-103361758D01*
X160749144Y-103426514D01*
X160749688Y-103481517D01*
X160750466Y-103527634D01*
X160751518Y-103565731D01*
X160752886Y-103596672D01*
X160754611Y-103621324D01*
X160756734Y-103640553D01*
X160759296Y-103655223D01*
X160762338Y-103666200D01*
X160765901Y-103674350D01*
X160770027Y-103680539D01*
X160774756Y-103685632D01*
X160780129Y-103690494D01*
X160781919Y-103692078D01*
X160810916Y-103709082D01*
X160844236Y-103714691D01*
X160877525Y-103708599D01*
X160894494Y-103699987D01*
X160909610Y-103686376D01*
X160923911Y-103668005D01*
X160924755Y-103666650D01*
X160927065Y-103662517D01*
X160929099Y-103657585D01*
X160930877Y-103650988D01*
X160932414Y-103641857D01*
X160933729Y-103629327D01*
X160934839Y-103612530D01*
X160935761Y-103590598D01*
X160936512Y-103562664D01*
X160937110Y-103527862D01*
X160937573Y-103485324D01*
X160937917Y-103434183D01*
X160938160Y-103373572D01*
X160938320Y-103302624D01*
X160938414Y-103220471D01*
X160938458Y-103126247D01*
X160938472Y-103019084D01*
X160938472Y-102982401D01*
X160938465Y-102870970D01*
X160938432Y-102772752D01*
X160938356Y-102686879D01*
X160938219Y-102612485D01*
X160938004Y-102548702D01*
X160937693Y-102494663D01*
X160937270Y-102449501D01*
X160936717Y-102412348D01*
X160936016Y-102382339D01*
X160935149Y-102358604D01*
X160934101Y-102340279D01*
X160932853Y-102326494D01*
X160931388Y-102316383D01*
X160929688Y-102309079D01*
X160927736Y-102303715D01*
X160925515Y-102299424D01*
X160924755Y-102298152D01*
X160902026Y-102271037D01*
X160873507Y-102256298D01*
X160843500Y-102252597D01*
X160809200Y-102258716D01*
X160780788Y-102275733D01*
X160761069Y-102301633D01*
X160755820Y-102315503D01*
X160754391Y-102327936D01*
X160753112Y-102354304D01*
X160751986Y-102394464D01*
X160751013Y-102448271D01*
X160750196Y-102515583D01*
X160749537Y-102596254D01*
X160749035Y-102690142D01*
X160748695Y-102797102D01*
X160748516Y-102916991D01*
X160748487Y-102987907D01*
X160748480Y-103100325D01*
X159952827Y-103100325D01*
X159952783Y-102931361D01*
X159952745Y-102825748D01*
X159952675Y-102733288D01*
X159952555Y-102653055D01*
X159952362Y-102584120D01*
X159952079Y-102525558D01*
X159951684Y-102476442D01*
X159951158Y-102435844D01*
X159950480Y-102402839D01*
X159949631Y-102376498D01*
X159948590Y-102355896D01*
X159947338Y-102340106D01*
X159945854Y-102328200D01*
X159944119Y-102319251D01*
X159942112Y-102312334D01*
X159939813Y-102306521D01*
X159939256Y-102305276D01*
X159919178Y-102276512D01*
X159890591Y-102258686D01*
X159854669Y-102252512D01*
X159852582Y-102252523D01*
X159819139Y-102259056D01*
X159791959Y-102277964D01*
X159776630Y-102298152D01*
X159774319Y-102302288D01*
X159772282Y-102307224D01*
X159770504Y-102313828D01*
X159768965Y-102322967D01*
X159767650Y-102335510D01*
X159766540Y-102352323D01*
X159765617Y-102374276D01*
X159764865Y-102402236D01*
X159764266Y-102437071D01*
X159763803Y-102479648D01*
X159763457Y-102530837D01*
X159763212Y-102591503D01*
X159763050Y-102662517D01*
X159762954Y-102744745D01*
X159762905Y-102839055D01*
X159762888Y-102946315D01*
X159762886Y-102981337D01*
X159762862Y-103095832D01*
X159762838Y-103197088D01*
X159394932Y-103197088D01*
X159380205Y-103152596D01*
X159347405Y-103053767D01*
X159312700Y-102949284D01*
X159276102Y-102839066D01*
X159243667Y-102741420D01*
X159215084Y-102655571D01*
X159190038Y-102580741D01*
X159168220Y-102516154D01*
X159149315Y-102461033D01*
X159133012Y-102414600D01*
X159118999Y-102376080D01*
X159106964Y-102344696D01*
X159096593Y-102319670D01*
X159087576Y-102300227D01*
X159079600Y-102285588D01*
X159072352Y-102274978D01*
X159065521Y-102267620D01*
X159058794Y-102262737D01*
X159051860Y-102259552D01*
X159044404Y-102257288D01*
X159036117Y-102255169D01*
X159033414Y-102254443D01*
X158999994Y-102252053D01*
X158967565Y-102261774D01*
X158945339Y-102277782D01*
X158940358Y-102287198D01*
X158931438Y-102308899D01*
X158918952Y-102341766D01*
X158903274Y-102384681D01*
X158884776Y-102436524D01*
X158863833Y-102496179D01*
X158840817Y-102562526D01*
X158816102Y-102634446D01*
X158790061Y-102710822D01*
X158763067Y-102790534D01*
X158735495Y-102872465D01*
X158707716Y-102955496D01*
X158680105Y-103038508D01*
X158653035Y-103120383D01*
X158626879Y-103200002D01*
X158602011Y-103276247D01*
X158578803Y-103348000D01*
X158557629Y-103414141D01*
X158538863Y-103473553D01*
X158522878Y-103525117D01*
X158510047Y-103567714D01*
X158500744Y-103600226D01*
X158495341Y-103621535D01*
X158494077Y-103629730D01*
X157926193Y-103629730D01*
X157938370Y-103622754D01*
X158016626Y-103562196D01*
X158085177Y-103491718D01*
X158143695Y-103411756D01*
X158191850Y-103322746D01*
X158229314Y-103225122D01*
X158250675Y-103144319D01*
X158253325Y-103127177D01*
X158255477Y-103101888D01*
X158257160Y-103067438D01*
X158258405Y-103022812D01*
X158259241Y-102966998D01*
X158259697Y-102898980D01*
X158259808Y-102831043D01*
X158259779Y-102762035D01*
X158259656Y-102705570D01*
X158259358Y-102660108D01*
X158258806Y-102624114D01*
X158257921Y-102596047D01*
X158256621Y-102574372D01*
X158254828Y-102557550D01*
X158252461Y-102544044D01*
X158249440Y-102532315D01*
X158245686Y-102520826D01*
X158243349Y-102514247D01*
X158213404Y-102448559D01*
X158173819Y-102389664D01*
X158126355Y-102339766D01*
X158073281Y-102301361D01*
X158010515Y-102272772D01*
X157943264Y-102256248D01*
X157874006Y-102251792D01*
X157805223Y-102259405D01*
X157739393Y-102279090D01*
X157694696Y-102301044D01*
X157642874Y-102338646D01*
X157596014Y-102386582D01*
X157556815Y-102441442D01*
X157527970Y-102499816D01*
X157520564Y-102521286D01*
X157514535Y-102549482D01*
X157509739Y-102588199D01*
X157506313Y-102633922D01*
X157504393Y-102683136D01*
X157504116Y-102732326D01*
X157265764Y-102732326D01*
X157266046Y-102662998D01*
X157254622Y-102591386D01*
X157231871Y-102522683D01*
X157198183Y-102458340D01*
X157153952Y-102399811D01*
X157099571Y-102348548D01*
X157035431Y-102306004D01*
X157013775Y-102294884D01*
X156985625Y-102281925D01*
X156959343Y-102271469D01*
X156933011Y-102263272D01*
X156904706Y-102257094D01*
X156872508Y-102252692D01*
X156834498Y-102249823D01*
X156788754Y-102248245D01*
X156733357Y-102247716D01*
X156666385Y-102247993D01*
X156643731Y-102248198D01*
X156583677Y-102248829D01*
X156536066Y-102249495D01*
X156499263Y-102250313D01*
X156471632Y-102251403D01*
X156451537Y-102252883D01*
X156437342Y-102254871D01*
X156427412Y-102257485D01*
X156420110Y-102260845D01*
X156414124Y-102264830D01*
X156397073Y-102281510D01*
X156382664Y-102302192D01*
X156381953Y-102303550D01*
X156379861Y-102308361D01*
X156378019Y-102314656D01*
X156376411Y-102323306D01*
X156375022Y-102335183D01*
X156373836Y-102351156D01*
X156372836Y-102372098D01*
X156372008Y-102398878D01*
X156371334Y-102432369D01*
X156370801Y-102473440D01*
X156370390Y-102522962D01*
X156370088Y-102581807D01*
X156369877Y-102650846D01*
X156369742Y-102730949D01*
X156369667Y-102822988D01*
X156369637Y-102927833D01*
X156369634Y-102980867D01*
X156369631Y-103093906D01*
X156046907Y-103093906D01*
X156024823Y-103069788D01*
X156010857Y-103055833D01*
X155998168Y-103043834D01*
X155985286Y-103032916D01*
X155970738Y-103022200D01*
X155953055Y-103010812D01*
X155930765Y-102997873D01*
X155902398Y-102982508D01*
X155866481Y-102963841D01*
X155821545Y-102940994D01*
X155766117Y-102913091D01*
X155738955Y-102899452D01*
X155675847Y-102867635D01*
X155624144Y-102841218D01*
X155582573Y-102819484D01*
X155549859Y-102801713D01*
X155524727Y-102787188D01*
X155505903Y-102775190D01*
X155492112Y-102764999D01*
X155482080Y-102755898D01*
X155479554Y-102753208D01*
X155454081Y-102719935D01*
X155439189Y-102686227D01*
X155432944Y-102646956D01*
X155432434Y-102628259D01*
X155438966Y-102577436D01*
X155457824Y-102532277D01*
X155487903Y-102494224D01*
X155528101Y-102464714D01*
X155571675Y-102446750D01*
X155610694Y-102440213D01*
X155659801Y-102439665D01*
X155716490Y-102444803D01*
X155778255Y-102455319D01*
X155842590Y-102470910D01*
X155890631Y-102485618D01*
X155931486Y-102498248D01*
X155962554Y-102504950D01*
X155986738Y-102505895D01*
X156006943Y-102501256D01*
X156022565Y-102493412D01*
X156048656Y-102469984D01*
X156062941Y-102439281D01*
X156064869Y-102402485D01*
X156064864Y-102402443D01*
X156059106Y-102377756D01*
X156046835Y-102357188D01*
X156026365Y-102339441D01*
X155996012Y-102323217D01*
X155954091Y-102307217D01*
X155931887Y-102300021D01*
X155845626Y-102276308D01*
X155764534Y-102261145D01*
X155683317Y-102253655D01*
X155644512Y-102252546D01*
X155569918Y-102256216D01*
X155504370Y-102269414D01*
X155445910Y-102292885D01*
X155392580Y-102327375D01*
X155351810Y-102363887D01*
X155306577Y-102419205D01*
X155273273Y-102480756D01*
X155252154Y-102546904D01*
X155243476Y-102616010D01*
X154553195Y-102616010D01*
X154553260Y-102598537D01*
X154553746Y-102501411D01*
G37*
%TD*%
M02*
