%TF.GenerationSoftware,KiCad,Pcbnew,(5.99.0-7233-g6a28d6af27)*%
%TF.CreationDate,2021-08-16T18:37:05+02:00*%
%TF.ProjectId,lna,6c6e612e-6b69-4636-9164-5f7063625858,rev?*%
%TF.SameCoordinates,Original*%
%TF.FileFunction,Copper,L1,Top*%
%TF.FilePolarity,Positive*%
%FSLAX46Y46*%
G04 Gerber Fmt 4.6, Leading zero omitted, Abs format (unit mm)*
G04 Created by KiCad (PCBNEW (5.99.0-7233-g6a28d6af27)) date 2021-08-16 18:37:05*
%MOMM*%
%LPD*%
G01*
G04 APERTURE LIST*
G04 Aperture macros list*
%AMRoundRect*
0 Rectangle with rounded corners*
0 $1 Rounding radius*
0 $2 $3 $4 $5 $6 $7 $8 $9 X,Y pos of 4 corners*
0 Add a 4 corners polygon primitive as box body*
4,1,4,$2,$3,$4,$5,$6,$7,$8,$9,$2,$3,0*
0 Add four circle primitives for the rounded corners*
1,1,$1+$1,$2,$3,0*
1,1,$1+$1,$4,$5,0*
1,1,$1+$1,$6,$7,0*
1,1,$1+$1,$8,$9,0*
0 Add four rect primitives between the rounded corners*
20,1,$1+$1,$2,$3,$4,$5,0*
20,1,$1+$1,$4,$5,$6,$7,0*
20,1,$1+$1,$6,$7,$8,$9,0*
20,1,$1+$1,$8,$9,$2,$3,0*%
G04 Aperture macros list end*
%TA.AperFunction,SMDPad,CuDef*%
%ADD10R,5.140000X2.000000*%
%TD*%
%TA.AperFunction,SMDPad,CuDef*%
%ADD11R,5.140000X1.999996*%
%TD*%
%TA.AperFunction,SMDPad,CuDef*%
%ADD12R,5.080000X1.500000*%
%TD*%
%TA.AperFunction,SMDPad,CuDef*%
%ADD13RoundRect,0.218750X0.256250X-0.218750X0.256250X0.218750X-0.256250X0.218750X-0.256250X-0.218750X0*%
%TD*%
%TA.AperFunction,SMDPad,CuDef*%
%ADD14RoundRect,0.250000X-0.450000X-0.425000X0.450000X-0.425000X0.450000X0.425000X-0.450000X0.425000X0*%
%TD*%
%TA.AperFunction,SMDPad,CuDef*%
%ADD15R,0.900000X1.300000*%
%TD*%
%TA.AperFunction,SMDPad,CuDef*%
%ADD16RoundRect,0.243750X0.243750X0.456250X-0.243750X0.456250X-0.243750X-0.456250X0.243750X-0.456250X0*%
%TD*%
%TA.AperFunction,SMDPad,CuDef*%
%ADD17RoundRect,0.218750X-0.218750X-0.256250X0.218750X-0.256250X0.218750X0.256250X-0.218750X0.256250X0*%
%TD*%
%TA.AperFunction,SMDPad,CuDef*%
%ADD18RoundRect,0.243750X-0.243750X-0.456250X0.243750X-0.456250X0.243750X0.456250X-0.243750X0.456250X0*%
%TD*%
%TA.AperFunction,SMDPad,CuDef*%
%ADD19R,1.306056X1.058220*%
%TD*%
%TA.AperFunction,ComponentPad*%
%ADD20R,1.700000X1.700000*%
%TD*%
%TA.AperFunction,ComponentPad*%
%ADD21O,1.700000X1.700000*%
%TD*%
%TA.AperFunction,SMDPad,CuDef*%
%ADD22RoundRect,0.218750X0.218750X0.256250X-0.218750X0.256250X-0.218750X-0.256250X0.218750X-0.256250X0*%
%TD*%
%TA.AperFunction,SMDPad,CuDef*%
%ADD23RoundRect,0.243750X-0.456250X0.243750X-0.456250X-0.243750X0.456250X-0.243750X0.456250X0.243750X0*%
%TD*%
%TA.AperFunction,SMDPad,CuDef*%
%ADD24RoundRect,0.243750X0.456250X-0.243750X0.456250X0.243750X-0.456250X0.243750X-0.456250X-0.243750X0*%
%TD*%
%TA.AperFunction,ViaPad*%
%ADD25C,0.800000*%
%TD*%
%TA.AperFunction,Conductor*%
%ADD26C,1.000000*%
%TD*%
G04 APERTURE END LIST*
D10*
%TO.P,J1,2,Ext*%
%TO.N,GND*%
X130200000Y-92000000D03*
D11*
X130200000Y-97700001D03*
D12*
%TO.P,J1,1,In*%
%TO.N,Net-(C1-Pad1)*%
X130200000Y-94800000D03*
%TD*%
D10*
%TO.P,J3,2,Ext*%
%TO.N,GND*%
X159800000Y-97800000D03*
D11*
X159800000Y-92099999D03*
D12*
%TO.P,J3,1,In*%
%TO.N,Net-(C7-Pad2)*%
X159800000Y-95000000D03*
%TD*%
D13*
%TO.P,C1,1*%
%TO.N,Net-(C1-Pad1)*%
X134350000Y-93237500D03*
%TO.P,C1,2*%
%TO.N,GND*%
X134350000Y-91662500D03*
%TD*%
D14*
%TO.P,C6,1*%
%TO.N,Net-(C4-Pad2)*%
X153450000Y-87800000D03*
%TO.P,C6,2*%
%TO.N,GND*%
X156150000Y-87800000D03*
%TD*%
D15*
%TO.P,U1,1*%
%TO.N,Net-(L2-Pad1)*%
X142900000Y-94550000D03*
%TA.AperFunction,SMDPad,CuDef*%
%TO.P,U1,2,GND*%
%TO.N,GND*%
G36*
X145266500Y-90600000D02*
G01*
X145266500Y-93725000D01*
X144850000Y-93725000D01*
X144849999Y-95200000D01*
X143950000Y-95200000D01*
X143950001Y-93725000D01*
X143533500Y-93725000D01*
X143533501Y-90600000D01*
X145266500Y-90600000D01*
G37*
%TD.AperFunction*%
%TO.P,U1,3*%
%TO.N,Net-(C7-Pad1)*%
X145900000Y-94550000D03*
%TD*%
D16*
%TO.P,L2,1,1*%
%TO.N,Net-(L2-Pad1)*%
X139075000Y-94850000D03*
%TO.P,L2,2,2*%
%TO.N,Net-(C2-Pad2)*%
X137200000Y-94850000D03*
%TD*%
D17*
%TO.P,C2,1*%
%TO.N,Net-(C1-Pad1)*%
X134062500Y-94850000D03*
%TO.P,C2,2*%
%TO.N,Net-(C2-Pad2)*%
X135637500Y-94850000D03*
%TD*%
%TO.P,C7,1*%
%TO.N,Net-(C7-Pad1)*%
X152750000Y-95000000D03*
%TO.P,C7,2*%
%TO.N,Net-(C7-Pad2)*%
X154325000Y-95000000D03*
%TD*%
%TO.P,R1,1*%
%TO.N,Net-(L4-Pad2)*%
X144462500Y-98300000D03*
%TO.P,R1,2*%
%TO.N,Net-(C3-Pad1)*%
X146037500Y-98300000D03*
%TD*%
D18*
%TO.P,L4,1,1*%
%TO.N,Net-(L3-Pad2)*%
X141062500Y-98300000D03*
%TO.P,L4,2,2*%
%TO.N,Net-(L4-Pad2)*%
X142937500Y-98300000D03*
%TD*%
D19*
%TO.P,FB1,1*%
%TO.N,5V*%
X149223918Y-87800000D03*
%TO.P,FB1,2*%
%TO.N,Net-(C4-Pad2)*%
X150776082Y-87800000D03*
%TD*%
D20*
%TO.P,J2,1,GND*%
%TO.N,GND*%
X143500000Y-87000000D03*
D21*
%TO.P,J2,2,5V*%
%TO.N,5V*%
X146040000Y-87000000D03*
%TD*%
D22*
%TO.P,C4,1*%
%TO.N,GND*%
X153987500Y-92200000D03*
%TO.P,C4,2*%
%TO.N,Net-(C4-Pad2)*%
X152412500Y-92200000D03*
%TD*%
D23*
%TO.P,L3,1,1*%
%TO.N,Net-(L2-Pad1)*%
X140900000Y-94650000D03*
%TO.P,L3,2,2*%
%TO.N,Net-(L3-Pad2)*%
X140900000Y-96525000D03*
%TD*%
D24*
%TO.P,L5,1,1*%
%TO.N,Net-(C7-Pad1)*%
X150250000Y-95187500D03*
%TO.P,L5,2,2*%
%TO.N,Net-(C4-Pad2)*%
X150250000Y-93312500D03*
%TD*%
D17*
%TO.P,C3,1*%
%TO.N,Net-(C3-Pad1)*%
X147512500Y-98300000D03*
%TO.P,C3,2*%
%TO.N,GND*%
X149087500Y-98300000D03*
%TD*%
D23*
%TO.P,L1,1,1*%
%TO.N,Net-(C1-Pad1)*%
X134350000Y-96512500D03*
%TO.P,L1,2,2*%
%TO.N,GND*%
X134350000Y-98387500D03*
%TD*%
D17*
%TO.P,C5,1*%
%TO.N,Net-(C4-Pad2)*%
X152412500Y-90400000D03*
%TO.P,C5,2*%
%TO.N,GND*%
X153987500Y-90400000D03*
%TD*%
D25*
%TO.N,GND*%
X142900000Y-90000000D03*
X143100000Y-96500000D03*
X149000000Y-100000000D03*
X139750000Y-100000000D03*
X148750000Y-96750000D03*
X139500000Y-97250000D03*
X146000000Y-100000000D03*
X143000000Y-100000000D03*
X150500000Y-92000000D03*
X137000000Y-103000000D03*
X161500000Y-103000000D03*
X134000000Y-87000000D03*
X149000000Y-103000000D03*
X158000000Y-103000000D03*
X148000000Y-90000000D03*
X137000000Y-87000000D03*
X155750000Y-90400000D03*
X137000000Y-90000000D03*
X131000000Y-87000000D03*
X151000000Y-90000000D03*
X144400000Y-94800000D03*
X128200000Y-90000000D03*
X137000000Y-92000000D03*
X131000000Y-90000000D03*
X146000000Y-96750000D03*
X143000000Y-103000000D03*
X131000000Y-100000000D03*
X131000000Y-103000000D03*
X134000000Y-103000000D03*
X137000000Y-97300000D03*
X152000000Y-100000000D03*
X155000000Y-103000000D03*
X148000000Y-92000000D03*
X134000000Y-100000000D03*
X159000000Y-90000000D03*
X155750000Y-92200000D03*
X140000000Y-92000000D03*
X159000000Y-87000000D03*
X128200000Y-103000000D03*
X146000000Y-103000000D03*
X161500000Y-100000000D03*
X153700000Y-102900000D03*
X161500000Y-87000000D03*
X158000000Y-100000000D03*
X155000000Y-97300000D03*
X140000000Y-103000000D03*
X161500000Y-90000000D03*
X155000000Y-100000000D03*
X128200000Y-87000000D03*
X137000000Y-100000000D03*
X140000000Y-90000000D03*
X134000000Y-90000000D03*
X128200000Y-100000000D03*
X152000000Y-97300000D03*
X140000000Y-87000000D03*
%TD*%
D26*
%TO.N,GND*%
X144400000Y-94462500D02*
X144400000Y-90900000D01*
X144400000Y-90900000D02*
X143500000Y-90000000D01*
%TO.N,Net-(C7-Pad1)*%
X150250000Y-95187500D02*
X146737501Y-95187500D01*
X146737501Y-95187500D02*
X146100001Y-94550000D01*
%TO.N,Net-(L2-Pad1)*%
X140900000Y-94650000D02*
X142800000Y-94650000D01*
X142800000Y-94650000D02*
X142900000Y-94550000D01*
X139075000Y-94850000D02*
X140700000Y-94850000D01*
X140700000Y-94850000D02*
X140900000Y-94650000D01*
%TO.N,Net-(C1-Pad1)*%
X134062500Y-94850000D02*
X134062500Y-96225000D01*
X134062500Y-96225000D02*
X134350000Y-96512500D01*
X134062500Y-94850000D02*
X134062500Y-93525000D01*
X134062500Y-93525000D02*
X134350000Y-93237500D01*
X130200000Y-94800000D02*
X134012500Y-94800000D01*
X134012500Y-94800000D02*
X134062500Y-94850000D01*
%TO.N,Net-(C2-Pad2)*%
X135637500Y-94850000D02*
X137200000Y-94850000D01*
%TO.N,GND*%
X143500000Y-87000000D02*
X143500000Y-90000000D01*
%TO.N,Net-(L3-Pad2)*%
X141062500Y-98300000D02*
X141062500Y-96687500D01*
X141062500Y-96687500D02*
X140900000Y-96525000D01*
%TO.N,GND*%
X159800000Y-97800000D02*
X159800000Y-98200000D01*
X159800000Y-98200000D02*
X158000000Y-100000000D01*
X159800000Y-92099999D02*
X159800000Y-90800000D01*
X159800000Y-90800000D02*
X159000000Y-90000000D01*
X130200000Y-97700001D02*
X130200000Y-99200000D01*
X130200000Y-99200000D02*
X131000000Y-100000000D01*
X130200000Y-92000000D02*
X130200000Y-90800000D01*
X130200000Y-90800000D02*
X131000000Y-90000000D01*
%TO.N,Net-(C4-Pad2)*%
X153450000Y-87800000D02*
X150776082Y-87800000D01*
X152412500Y-90400000D02*
X152412500Y-88837500D01*
X152412500Y-88837500D02*
X153450000Y-87800000D01*
X152412500Y-92200000D02*
X152412500Y-90400000D01*
X150250000Y-93312500D02*
X151300000Y-93312500D01*
X151300000Y-93312500D02*
X152412500Y-92200000D01*
%TO.N,Net-(C7-Pad2)*%
X154325000Y-95000000D02*
X159800000Y-95000000D01*
%TO.N,Net-(C7-Pad1)*%
X150250000Y-95187500D02*
X152562500Y-95187500D01*
X152562500Y-95187500D02*
X152750000Y-95000000D01*
X150062500Y-95000000D02*
X150250000Y-95187500D01*
%TO.N,Net-(C3-Pad1)*%
X147512500Y-98300000D02*
X146037500Y-98300000D01*
%TO.N,Net-(L4-Pad2)*%
X142900000Y-98300000D02*
X144425000Y-98300000D01*
%TO.N,GND*%
X154550000Y-92200000D02*
X155800000Y-92200000D01*
X154550000Y-90400000D02*
X155800000Y-90400000D01*
%TO.N,5V*%
X146840000Y-87800000D02*
X146040000Y-87000000D01*
X149223918Y-87800000D02*
X146840000Y-87800000D01*
%TD*%
%TA.AperFunction,Conductor*%
%TO.N,GND*%
G36*
X145525658Y-85527832D02*
G01*
X145572151Y-85581488D01*
X145582255Y-85651762D01*
X145552761Y-85716342D01*
X145503818Y-85751022D01*
X145433740Y-85778697D01*
X145236631Y-85898306D01*
X145232601Y-85901803D01*
X145139426Y-85982656D01*
X145062492Y-86049415D01*
X145059109Y-86053541D01*
X145059105Y-86053545D01*
X144986768Y-86141767D01*
X144916304Y-86227705D01*
X144802245Y-86428077D01*
X144723578Y-86644802D01*
X144722629Y-86650051D01*
X144722628Y-86650054D01*
X144683501Y-86866429D01*
X144682551Y-86871683D01*
X144680338Y-87102233D01*
X144717002Y-87329861D01*
X144791494Y-87548056D01*
X144901685Y-87750580D01*
X145044424Y-87931644D01*
X145048389Y-87935220D01*
X145211659Y-88082489D01*
X145211665Y-88082494D01*
X145215629Y-88086069D01*
X145410406Y-88209439D01*
X145623184Y-88298228D01*
X145628387Y-88299425D01*
X145628392Y-88299426D01*
X145842678Y-88348701D01*
X145842683Y-88348702D01*
X145847881Y-88349897D01*
X145853208Y-88350199D01*
X145853212Y-88350200D01*
X145922659Y-88354143D01*
X145989536Y-88377974D01*
X146004612Y-88390845D01*
X146082371Y-88468605D01*
X146091471Y-88478748D01*
X146115882Y-88509109D01*
X146120606Y-88513073D01*
X146120607Y-88513074D01*
X146155547Y-88542392D01*
X146159206Y-88545584D01*
X146160754Y-88546988D01*
X146162941Y-88549175D01*
X146165321Y-88551130D01*
X146195167Y-88575647D01*
X146196180Y-88576488D01*
X146249133Y-88620920D01*
X146267406Y-88636253D01*
X146272076Y-88638820D01*
X146276194Y-88642203D01*
X146351078Y-88682355D01*
X146358066Y-88686102D01*
X146359125Y-88686676D01*
X146440740Y-88731544D01*
X146445824Y-88733157D01*
X146450517Y-88735673D01*
X146528063Y-88759382D01*
X146539358Y-88762835D01*
X146540616Y-88763227D01*
X146623408Y-88789490D01*
X146623411Y-88789491D01*
X146629282Y-88791353D01*
X146634582Y-88791947D01*
X146639673Y-88793504D01*
X146645808Y-88794127D01*
X146645812Y-88794128D01*
X146701151Y-88799749D01*
X146732153Y-88802898D01*
X146733359Y-88803026D01*
X146782155Y-88808500D01*
X146785679Y-88808500D01*
X146786430Y-88808542D01*
X146792130Y-88808991D01*
X146830333Y-88812872D01*
X146830339Y-88812872D01*
X146836462Y-88813494D01*
X146883378Y-88809059D01*
X146895237Y-88808500D01*
X148369665Y-88808500D01*
X148408932Y-88817042D01*
X148409376Y-88815528D01*
X148418026Y-88818068D01*
X148426220Y-88821810D01*
X148435135Y-88823092D01*
X148435136Y-88823092D01*
X148566442Y-88841971D01*
X148566449Y-88841972D01*
X148570890Y-88842610D01*
X149876946Y-88842610D01*
X149950025Y-88837383D01*
X149968652Y-88831914D01*
X150022077Y-88828092D01*
X150107668Y-88840398D01*
X150118609Y-88841971D01*
X150118610Y-88841971D01*
X150123054Y-88842610D01*
X151278001Y-88842610D01*
X151346122Y-88862612D01*
X151392615Y-88916268D01*
X151404001Y-88968610D01*
X151404000Y-90450973D01*
X151404001Y-90451013D01*
X151404000Y-91730074D01*
X151383998Y-91798195D01*
X151367096Y-91819169D01*
X150919171Y-92267095D01*
X150856858Y-92301120D01*
X150830075Y-92304000D01*
X150199006Y-92304000D01*
X150088301Y-92314855D01*
X150077650Y-92315899D01*
X150065355Y-92316500D01*
X149750864Y-92316500D01*
X149658124Y-92327312D01*
X149626818Y-92330962D01*
X149626817Y-92330962D01*
X149619546Y-92331810D01*
X149612669Y-92334306D01*
X149612666Y-92334307D01*
X149461563Y-92389155D01*
X149454684Y-92391652D01*
X149308012Y-92487814D01*
X149187396Y-92615139D01*
X149183721Y-92621466D01*
X149183718Y-92621470D01*
X149102983Y-92760466D01*
X149099306Y-92766797D01*
X149048468Y-92934653D01*
X149047894Y-92941089D01*
X149047893Y-92941092D01*
X149044463Y-92979529D01*
X149041500Y-93012727D01*
X149041500Y-93599136D01*
X149049973Y-93671807D01*
X149053179Y-93699306D01*
X149056810Y-93730454D01*
X149059306Y-93737331D01*
X149059307Y-93737334D01*
X149091243Y-93825314D01*
X149116652Y-93895315D01*
X149120665Y-93901435D01*
X149120667Y-93901440D01*
X149174740Y-93983916D01*
X149195363Y-94051851D01*
X149175983Y-94120151D01*
X149122753Y-94167132D01*
X149069368Y-94179000D01*
X147207424Y-94179000D01*
X147139303Y-94158998D01*
X147118329Y-94142095D01*
X146895750Y-93919516D01*
X146861724Y-93857204D01*
X146859166Y-93839407D01*
X146858755Y-93833660D01*
X146858273Y-93826921D01*
X146831968Y-93737334D01*
X146819635Y-93695330D01*
X146819634Y-93695328D01*
X146817096Y-93686684D01*
X146790752Y-93645693D01*
X146742949Y-93571309D01*
X146742947Y-93571306D01*
X146738077Y-93563729D01*
X146707391Y-93537139D01*
X146634431Y-93473918D01*
X146634428Y-93473916D01*
X146627619Y-93468016D01*
X146494670Y-93407300D01*
X146485755Y-93406018D01*
X146485754Y-93406018D01*
X146354448Y-93387139D01*
X146354441Y-93387138D01*
X146350000Y-93386500D01*
X145450000Y-93386500D01*
X145376921Y-93391727D01*
X145323884Y-93407300D01*
X145245330Y-93430365D01*
X145245328Y-93430366D01*
X145236684Y-93432904D01*
X145229105Y-93437775D01*
X145121309Y-93507051D01*
X145121306Y-93507053D01*
X145113729Y-93511923D01*
X145107828Y-93518733D01*
X145023918Y-93615569D01*
X145023916Y-93615572D01*
X145018016Y-93622381D01*
X145014272Y-93630579D01*
X144965519Y-93737334D01*
X144957300Y-93755330D01*
X144956018Y-93764245D01*
X144956018Y-93764246D01*
X144937139Y-93895552D01*
X144937138Y-93895559D01*
X144936500Y-93900000D01*
X144936500Y-95200000D01*
X144941727Y-95273079D01*
X144982904Y-95413316D01*
X144987775Y-95420895D01*
X145057051Y-95528691D01*
X145057053Y-95528694D01*
X145061923Y-95536271D01*
X145068733Y-95542172D01*
X145165569Y-95626082D01*
X145165572Y-95626084D01*
X145172381Y-95631984D01*
X145180579Y-95635728D01*
X145255377Y-95669887D01*
X145305330Y-95692700D01*
X145314245Y-95693982D01*
X145314246Y-95693982D01*
X145445552Y-95712861D01*
X145445559Y-95712862D01*
X145450000Y-95713500D01*
X145785077Y-95713500D01*
X145853198Y-95733502D01*
X145874172Y-95750405D01*
X145979867Y-95856100D01*
X145988968Y-95866243D01*
X146013383Y-95896609D01*
X146018107Y-95900573D01*
X146018108Y-95900574D01*
X146053048Y-95929892D01*
X146056708Y-95933084D01*
X146058246Y-95934479D01*
X146060442Y-95936675D01*
X146062827Y-95938634D01*
X146062838Y-95938644D01*
X146092669Y-95963147D01*
X146093686Y-95963991D01*
X146156974Y-96017096D01*
X146164907Y-96023753D01*
X146169580Y-96026322D01*
X146173695Y-96029702D01*
X146194193Y-96040693D01*
X146255539Y-96073586D01*
X146256699Y-96074216D01*
X146332834Y-96116072D01*
X146332839Y-96116074D01*
X146338241Y-96119044D01*
X146343323Y-96120656D01*
X146348017Y-96123173D01*
X146353915Y-96124976D01*
X146353917Y-96124977D01*
X146365506Y-96128520D01*
X146436848Y-96150331D01*
X146438052Y-96150706D01*
X146526783Y-96178853D01*
X146532083Y-96179447D01*
X146537174Y-96181004D01*
X146543311Y-96181627D01*
X146543314Y-96181628D01*
X146583682Y-96185728D01*
X146629610Y-96190393D01*
X146630797Y-96190519D01*
X146655750Y-96193318D01*
X146676158Y-96195608D01*
X146676165Y-96195608D01*
X146679656Y-96196000D01*
X146683180Y-96196000D01*
X146683950Y-96196043D01*
X146689650Y-96196492D01*
X146691158Y-96196645D01*
X146727835Y-96200371D01*
X146727840Y-96200371D01*
X146733963Y-96200993D01*
X146780871Y-96196559D01*
X146792728Y-96196000D01*
X150190924Y-96196000D01*
X150203657Y-96196645D01*
X150240334Y-96200371D01*
X150240339Y-96200371D01*
X150246462Y-96200993D01*
X150293370Y-96196559D01*
X150305227Y-96196000D01*
X152499553Y-96196000D01*
X152513161Y-96196737D01*
X152545763Y-96200279D01*
X152545767Y-96200279D01*
X152551888Y-96200944D01*
X152558027Y-96200407D01*
X152558031Y-96200407D01*
X152603442Y-96196434D01*
X152608279Y-96196104D01*
X152610411Y-96196000D01*
X152613494Y-96196000D01*
X152616547Y-96195701D01*
X152616560Y-96195700D01*
X152655029Y-96191928D01*
X152656341Y-96191806D01*
X152742800Y-96184242D01*
X152742803Y-96184241D01*
X152748935Y-96183705D01*
X152754053Y-96182218D01*
X152759357Y-96181698D01*
X152848445Y-96154801D01*
X152849532Y-96154479D01*
X152938881Y-96128520D01*
X152943612Y-96126068D01*
X152948715Y-96124527D01*
X153030884Y-96080837D01*
X153031932Y-96080287D01*
X153109025Y-96040326D01*
X153109026Y-96040325D01*
X153114492Y-96037492D01*
X153118655Y-96034169D01*
X153123362Y-96031666D01*
X153129915Y-96026322D01*
X153195417Y-95972900D01*
X153196442Y-95972073D01*
X153234714Y-95941520D01*
X153235127Y-95942037D01*
X153272246Y-95919842D01*
X153289739Y-95913493D01*
X153289744Y-95913491D01*
X153296622Y-95910994D01*
X153321591Y-95894624D01*
X153432327Y-95822022D01*
X153438451Y-95818007D01*
X153447913Y-95808018D01*
X153509283Y-95772321D01*
X153580210Y-95775469D01*
X153626037Y-95803199D01*
X153667615Y-95842586D01*
X153814266Y-95927767D01*
X153976580Y-95976927D01*
X153983020Y-95977502D01*
X153983021Y-95977502D01*
X154047434Y-95983251D01*
X154047440Y-95983251D01*
X154050227Y-95983500D01*
X154070021Y-95983500D01*
X154102321Y-95988500D01*
X154102383Y-95988209D01*
X154107594Y-95989317D01*
X154108119Y-95989398D01*
X154114282Y-95991353D01*
X154120399Y-95992039D01*
X154120403Y-95992040D01*
X154193322Y-96000219D01*
X154267155Y-96008500D01*
X156753141Y-96008500D01*
X156821262Y-96028502D01*
X156859138Y-96066379D01*
X156867047Y-96078686D01*
X156867052Y-96078692D01*
X156871923Y-96086271D01*
X156878733Y-96092172D01*
X156975569Y-96176082D01*
X156975572Y-96176084D01*
X156982381Y-96181984D01*
X156990579Y-96185728D01*
X157105836Y-96238364D01*
X157115330Y-96242700D01*
X157124245Y-96243982D01*
X157124246Y-96243982D01*
X157255552Y-96262861D01*
X157255559Y-96262862D01*
X157260000Y-96263500D01*
X161866000Y-96263500D01*
X161934121Y-96283502D01*
X161980614Y-96337158D01*
X161992000Y-96389500D01*
X161992000Y-104365790D01*
X161971998Y-104433911D01*
X161918342Y-104480404D01*
X161866000Y-104491790D01*
X128134000Y-104491790D01*
X128065879Y-104471788D01*
X128019386Y-104418132D01*
X128008000Y-104365790D01*
X128008000Y-96189500D01*
X128028002Y-96121379D01*
X128081658Y-96074886D01*
X128134000Y-96063500D01*
X132740000Y-96063500D01*
X132813079Y-96058273D01*
X132892504Y-96034952D01*
X132963499Y-96034952D01*
X133023225Y-96073336D01*
X133052718Y-96137916D01*
X133054001Y-96155848D01*
X133054001Y-96162044D01*
X133053264Y-96175652D01*
X133050579Y-96200371D01*
X133049056Y-96214388D01*
X133050835Y-96234723D01*
X133053569Y-96265970D01*
X133053898Y-96270803D01*
X133054001Y-96272913D01*
X133054001Y-96275994D01*
X133054301Y-96279049D01*
X133054301Y-96279058D01*
X133058065Y-96317441D01*
X133058187Y-96318756D01*
X133066295Y-96411435D01*
X133067783Y-96416558D01*
X133068303Y-96421857D01*
X133070084Y-96427757D01*
X133070085Y-96427760D01*
X133095147Y-96510769D01*
X133095522Y-96512034D01*
X133121480Y-96601381D01*
X133123935Y-96606117D01*
X133125474Y-96611215D01*
X133128368Y-96616657D01*
X133130717Y-96622358D01*
X133129099Y-96623025D01*
X133141500Y-96672772D01*
X133141500Y-96799136D01*
X133156810Y-96930454D01*
X133159306Y-96937331D01*
X133159307Y-96937334D01*
X133190156Y-97022321D01*
X133216652Y-97095315D01*
X133312814Y-97241987D01*
X133440139Y-97362603D01*
X133446466Y-97366278D01*
X133446470Y-97366281D01*
X133585466Y-97447016D01*
X133585468Y-97447017D01*
X133591797Y-97450693D01*
X133759653Y-97501531D01*
X133766089Y-97502105D01*
X133766092Y-97502106D01*
X133834934Y-97508250D01*
X133834940Y-97508250D01*
X133837727Y-97508499D01*
X134167856Y-97508499D01*
X134180589Y-97509144D01*
X134340334Y-97525371D01*
X134340339Y-97525371D01*
X134346462Y-97525993D01*
X134525614Y-97509059D01*
X134537471Y-97508500D01*
X134849136Y-97508500D01*
X134949490Y-97496800D01*
X134973182Y-97494038D01*
X134973183Y-97494038D01*
X134980454Y-97493190D01*
X134987331Y-97490694D01*
X134987334Y-97490693D01*
X135138436Y-97435845D01*
X135145315Y-97433348D01*
X135247899Y-97366091D01*
X135285868Y-97341198D01*
X135285869Y-97341197D01*
X135291987Y-97337186D01*
X135412603Y-97209861D01*
X135500694Y-97058203D01*
X135551532Y-96890347D01*
X135557385Y-96824773D01*
X135558251Y-96815066D01*
X135558251Y-96815060D01*
X135558500Y-96812273D01*
X135558500Y-96225864D01*
X135543190Y-96094546D01*
X135518850Y-96027491D01*
X135514409Y-95956634D01*
X135548981Y-95894624D01*
X135611591Y-95861148D01*
X135637289Y-95858500D01*
X136395321Y-95858500D01*
X136463442Y-95878502D01*
X136481969Y-95893023D01*
X136502639Y-95912604D01*
X136508968Y-95916280D01*
X136508969Y-95916281D01*
X136647966Y-95997017D01*
X136647968Y-95997018D01*
X136654297Y-96000694D01*
X136822153Y-96051532D01*
X136828589Y-96052106D01*
X136828592Y-96052107D01*
X136897434Y-96058251D01*
X136897440Y-96058251D01*
X136900227Y-96058500D01*
X137486636Y-96058500D01*
X137579376Y-96047688D01*
X137610682Y-96044038D01*
X137610683Y-96044038D01*
X137617954Y-96043190D01*
X137624831Y-96040694D01*
X137624834Y-96040693D01*
X137775936Y-95985845D01*
X137782815Y-95983348D01*
X137898398Y-95907569D01*
X137923368Y-95891198D01*
X137923369Y-95891197D01*
X137929487Y-95887186D01*
X137934519Y-95881874D01*
X137934524Y-95881870D01*
X138046453Y-95763716D01*
X138107822Y-95728018D01*
X138178749Y-95731166D01*
X138236714Y-95772160D01*
X138243292Y-95781277D01*
X138250314Y-95791987D01*
X138255631Y-95797024D01*
X138255632Y-95797025D01*
X138315337Y-95853584D01*
X138377639Y-95912604D01*
X138383968Y-95916280D01*
X138383969Y-95916281D01*
X138522966Y-95997017D01*
X138522968Y-95997018D01*
X138529297Y-96000694D01*
X138697153Y-96051532D01*
X138703589Y-96052106D01*
X138703592Y-96052107D01*
X138772434Y-96058251D01*
X138772440Y-96058251D01*
X138775227Y-96058500D01*
X139361636Y-96058500D01*
X139454376Y-96047688D01*
X139485682Y-96044038D01*
X139485683Y-96044038D01*
X139492954Y-96043190D01*
X139528845Y-96030162D01*
X139599703Y-96025720D01*
X139661714Y-96060292D01*
X139695189Y-96122901D01*
X139697339Y-96159800D01*
X139691920Y-96220522D01*
X139691500Y-96225227D01*
X139691500Y-96811636D01*
X139706810Y-96942954D01*
X139709306Y-96949831D01*
X139709307Y-96949834D01*
X139750939Y-97064528D01*
X139766652Y-97107815D01*
X139803590Y-97164155D01*
X139854619Y-97241987D01*
X139862814Y-97254487D01*
X139990139Y-97375103D01*
X139996470Y-97378780D01*
X140002330Y-97383164D01*
X140000551Y-97385542D01*
X140040136Y-97427263D01*
X140054001Y-97484723D01*
X140054000Y-98350993D01*
X140054301Y-98354058D01*
X140065899Y-98472349D01*
X140066500Y-98484644D01*
X140066500Y-98799137D01*
X140081810Y-98930455D01*
X140084306Y-98937332D01*
X140084307Y-98937335D01*
X140133305Y-99072321D01*
X140141652Y-99095316D01*
X140175054Y-99146263D01*
X140229882Y-99229889D01*
X140237814Y-99241988D01*
X140365139Y-99362604D01*
X140371466Y-99366279D01*
X140371470Y-99366282D01*
X140510466Y-99447017D01*
X140510468Y-99447018D01*
X140516797Y-99450694D01*
X140684653Y-99501532D01*
X140691089Y-99502106D01*
X140691092Y-99502107D01*
X140759934Y-99508251D01*
X140759940Y-99508251D01*
X140762727Y-99508500D01*
X141349137Y-99508500D01*
X141441877Y-99497688D01*
X141473183Y-99494038D01*
X141473184Y-99494038D01*
X141480455Y-99493190D01*
X141487332Y-99490694D01*
X141487335Y-99490693D01*
X141638437Y-99435845D01*
X141645316Y-99433348D01*
X141791988Y-99337186D01*
X141797020Y-99331874D01*
X141797025Y-99331870D01*
X141908953Y-99213717D01*
X141970322Y-99178019D01*
X142041249Y-99181167D01*
X142099214Y-99222161D01*
X142105792Y-99231278D01*
X142112814Y-99241988D01*
X142240139Y-99362604D01*
X142246466Y-99366279D01*
X142246470Y-99366282D01*
X142385466Y-99447017D01*
X142385468Y-99447018D01*
X142391797Y-99450694D01*
X142559653Y-99501532D01*
X142566089Y-99502106D01*
X142566092Y-99502107D01*
X142634934Y-99508251D01*
X142634940Y-99508251D01*
X142637727Y-99508500D01*
X143224137Y-99508500D01*
X143316877Y-99497688D01*
X143348183Y-99494038D01*
X143348184Y-99494038D01*
X143355455Y-99493190D01*
X143362332Y-99490694D01*
X143362335Y-99490693D01*
X143513437Y-99435845D01*
X143520316Y-99433348D01*
X143666988Y-99337186D01*
X143667413Y-99336737D01*
X143729976Y-99309486D01*
X143745710Y-99308500D01*
X144475994Y-99308500D01*
X144621857Y-99294198D01*
X144639479Y-99288878D01*
X144675895Y-99283500D01*
X144724135Y-99283500D01*
X144814213Y-99272998D01*
X144842432Y-99269708D01*
X144842433Y-99269708D01*
X144849704Y-99268860D01*
X144856581Y-99266364D01*
X144856584Y-99266363D01*
X145002243Y-99213491D01*
X145009122Y-99210994D01*
X145150951Y-99118007D01*
X145160413Y-99108018D01*
X145221783Y-99072321D01*
X145292710Y-99075469D01*
X145338537Y-99103199D01*
X145380115Y-99142586D01*
X145526766Y-99227767D01*
X145689080Y-99276927D01*
X145695520Y-99277502D01*
X145695521Y-99277502D01*
X145759934Y-99283251D01*
X145759940Y-99283251D01*
X145762727Y-99283500D01*
X145782521Y-99283500D01*
X145814821Y-99288500D01*
X145814883Y-99288209D01*
X145820094Y-99289317D01*
X145820619Y-99289398D01*
X145826782Y-99291353D01*
X145832899Y-99292039D01*
X145832903Y-99292040D01*
X145905822Y-99300219D01*
X145979655Y-99308500D01*
X147563494Y-99308500D01*
X147709357Y-99294198D01*
X147726979Y-99288878D01*
X147763395Y-99283500D01*
X147774135Y-99283500D01*
X147864213Y-99272998D01*
X147892432Y-99269708D01*
X147892433Y-99269708D01*
X147899704Y-99268860D01*
X147906581Y-99266364D01*
X147906584Y-99266363D01*
X148052243Y-99213491D01*
X148059122Y-99210994D01*
X148200951Y-99118007D01*
X148317586Y-98994885D01*
X148402767Y-98848234D01*
X148451927Y-98685920D01*
X148452502Y-98679477D01*
X148453733Y-98673132D01*
X148454381Y-98673258D01*
X148457094Y-98659521D01*
X148503478Y-98509677D01*
X148505300Y-98503792D01*
X148507313Y-98484644D01*
X148525331Y-98313205D01*
X148525331Y-98313203D01*
X148525975Y-98307076D01*
X148508048Y-98110089D01*
X148452201Y-97920336D01*
X148452600Y-97920218D01*
X148446154Y-97894974D01*
X148444708Y-97882567D01*
X148444707Y-97882564D01*
X148443860Y-97875296D01*
X148385994Y-97715878D01*
X148293007Y-97574049D01*
X148169885Y-97457414D01*
X148023234Y-97372233D01*
X147860920Y-97323073D01*
X147854480Y-97322498D01*
X147854479Y-97322498D01*
X147790066Y-97316749D01*
X147790060Y-97316749D01*
X147787273Y-97316500D01*
X147767479Y-97316500D01*
X147735179Y-97311500D01*
X147735117Y-97311791D01*
X147729906Y-97310683D01*
X147729381Y-97310602D01*
X147729091Y-97310510D01*
X147723218Y-97308647D01*
X147717101Y-97307961D01*
X147717097Y-97307960D01*
X147644178Y-97299781D01*
X147570345Y-97291500D01*
X145986506Y-97291500D01*
X145840643Y-97305802D01*
X145823021Y-97311122D01*
X145786605Y-97316500D01*
X145775865Y-97316500D01*
X145703406Y-97324948D01*
X145657568Y-97330292D01*
X145657567Y-97330292D01*
X145650296Y-97331140D01*
X145643419Y-97333636D01*
X145643416Y-97333637D01*
X145529180Y-97375103D01*
X145490878Y-97389006D01*
X145349049Y-97481993D01*
X145344011Y-97487311D01*
X145344010Y-97487312D01*
X145339586Y-97491982D01*
X145278217Y-97527679D01*
X145207290Y-97524531D01*
X145161463Y-97496801D01*
X145119885Y-97457414D01*
X144973234Y-97372233D01*
X144810920Y-97323073D01*
X144804480Y-97322498D01*
X144804479Y-97322498D01*
X144740066Y-97316749D01*
X144740060Y-97316749D01*
X144737273Y-97316500D01*
X144679979Y-97316500D01*
X144647679Y-97311500D01*
X144647617Y-97311791D01*
X144642406Y-97310683D01*
X144641881Y-97310602D01*
X144641591Y-97310510D01*
X144635718Y-97308647D01*
X144629601Y-97307961D01*
X144629597Y-97307960D01*
X144556678Y-97299781D01*
X144482845Y-97291500D01*
X143742179Y-97291500D01*
X143674058Y-97271498D01*
X143655531Y-97256977D01*
X143634861Y-97237396D01*
X143628531Y-97233719D01*
X143489534Y-97152983D01*
X143489532Y-97152982D01*
X143483203Y-97149306D01*
X143315347Y-97098468D01*
X143308911Y-97097894D01*
X143308908Y-97097893D01*
X143240066Y-97091749D01*
X143240060Y-97091749D01*
X143237273Y-97091500D01*
X142650863Y-97091500D01*
X142569928Y-97100936D01*
X142526817Y-97105962D01*
X142526816Y-97105962D01*
X142519545Y-97106810D01*
X142512668Y-97109306D01*
X142512665Y-97109307D01*
X142484948Y-97119368D01*
X142354684Y-97166652D01*
X142288779Y-97209861D01*
X142266085Y-97224740D01*
X142198149Y-97245363D01*
X142129849Y-97225983D01*
X142082869Y-97172754D01*
X142071000Y-97119368D01*
X142071000Y-97022321D01*
X142076409Y-96985798D01*
X142099659Y-96909031D01*
X142101532Y-96902847D01*
X142103223Y-96883908D01*
X142108251Y-96827566D01*
X142108251Y-96827560D01*
X142108500Y-96824773D01*
X142108500Y-96238364D01*
X142095175Y-96124069D01*
X142094038Y-96114318D01*
X142094038Y-96114317D01*
X142093190Y-96107046D01*
X142086157Y-96087669D01*
X142035845Y-95949064D01*
X142033348Y-95942185D01*
X142029335Y-95936065D01*
X142029333Y-95936060D01*
X141975260Y-95853584D01*
X141954637Y-95785649D01*
X141974017Y-95717349D01*
X142027247Y-95670368D01*
X142080632Y-95658500D01*
X142203034Y-95658500D01*
X142255377Y-95669887D01*
X142297133Y-95688957D01*
X142297136Y-95688958D01*
X142305330Y-95692700D01*
X142314247Y-95693982D01*
X142445552Y-95712861D01*
X142445559Y-95712862D01*
X142450000Y-95713500D01*
X143350000Y-95713500D01*
X143423079Y-95708273D01*
X143501165Y-95685345D01*
X143554670Y-95669635D01*
X143554672Y-95669634D01*
X143563316Y-95667096D01*
X143654955Y-95608203D01*
X143678691Y-95592949D01*
X143678694Y-95592947D01*
X143686271Y-95588077D01*
X143726048Y-95542172D01*
X143776082Y-95484431D01*
X143776084Y-95484428D01*
X143781984Y-95477619D01*
X143842700Y-95344670D01*
X143853962Y-95266340D01*
X143862861Y-95204448D01*
X143862862Y-95204441D01*
X143863500Y-95200000D01*
X143863500Y-94867295D01*
X143869006Y-94830456D01*
X143891701Y-94756225D01*
X143891702Y-94756220D01*
X143893504Y-94750326D01*
X143913493Y-94553538D01*
X143894879Y-94356616D01*
X143893122Y-94350723D01*
X143893121Y-94350717D01*
X143868751Y-94268972D01*
X143863500Y-94232975D01*
X143863500Y-93900000D01*
X143858273Y-93826921D01*
X143831968Y-93737334D01*
X143819635Y-93695330D01*
X143819634Y-93695328D01*
X143817096Y-93686684D01*
X143790752Y-93645693D01*
X143742949Y-93571309D01*
X143742947Y-93571306D01*
X143738077Y-93563729D01*
X143707391Y-93537139D01*
X143634431Y-93473918D01*
X143634428Y-93473916D01*
X143627619Y-93468016D01*
X143494670Y-93407300D01*
X143485755Y-93406018D01*
X143485754Y-93406018D01*
X143354448Y-93387139D01*
X143354441Y-93387138D01*
X143350000Y-93386500D01*
X142450000Y-93386500D01*
X142376921Y-93391727D01*
X142323884Y-93407300D01*
X142245330Y-93430365D01*
X142245328Y-93430366D01*
X142236684Y-93432904D01*
X142229105Y-93437775D01*
X142121309Y-93507051D01*
X142121306Y-93507053D01*
X142113729Y-93511923D01*
X142107828Y-93518733D01*
X142039131Y-93598013D01*
X141979405Y-93636396D01*
X141943907Y-93641500D01*
X140962948Y-93641500D01*
X140949340Y-93640763D01*
X140916738Y-93637221D01*
X140916734Y-93637221D01*
X140910613Y-93636556D01*
X140904474Y-93637093D01*
X140904469Y-93637093D01*
X140859057Y-93641066D01*
X140854221Y-93641396D01*
X140852091Y-93641500D01*
X140849006Y-93641500D01*
X140807435Y-93645576D01*
X140806191Y-93645691D01*
X140762189Y-93649541D01*
X140716696Y-93653521D01*
X140705715Y-93654000D01*
X140400864Y-93654000D01*
X140308124Y-93664812D01*
X140276818Y-93668462D01*
X140276817Y-93668462D01*
X140269546Y-93669310D01*
X140262669Y-93671806D01*
X140262666Y-93671807D01*
X140128066Y-93720665D01*
X140104685Y-93729152D01*
X140021456Y-93783719D01*
X139964788Y-93820872D01*
X139895703Y-93841500D01*
X139879679Y-93841500D01*
X139811558Y-93821498D01*
X139793031Y-93806977D01*
X139772361Y-93787396D01*
X139766031Y-93783719D01*
X139627034Y-93702983D01*
X139627032Y-93702982D01*
X139620703Y-93699306D01*
X139452847Y-93648468D01*
X139446411Y-93647894D01*
X139446408Y-93647893D01*
X139377566Y-93641749D01*
X139377560Y-93641749D01*
X139374773Y-93641500D01*
X138788364Y-93641500D01*
X138695624Y-93652312D01*
X138664318Y-93655962D01*
X138664317Y-93655962D01*
X138657046Y-93656810D01*
X138650169Y-93659306D01*
X138650166Y-93659307D01*
X138547069Y-93696730D01*
X138492185Y-93716652D01*
X138345513Y-93812814D01*
X138340481Y-93818126D01*
X138340476Y-93818130D01*
X138228547Y-93936284D01*
X138167178Y-93971982D01*
X138096251Y-93968834D01*
X138038286Y-93927840D01*
X138031708Y-93918723D01*
X138024686Y-93908013D01*
X138017748Y-93901440D01*
X137902676Y-93792431D01*
X137897361Y-93787396D01*
X137891031Y-93783719D01*
X137752034Y-93702983D01*
X137752032Y-93702982D01*
X137745703Y-93699306D01*
X137577847Y-93648468D01*
X137571411Y-93647894D01*
X137571408Y-93647893D01*
X137502566Y-93641749D01*
X137502560Y-93641749D01*
X137499773Y-93641500D01*
X136913364Y-93641500D01*
X136820624Y-93652312D01*
X136789318Y-93655962D01*
X136789317Y-93655962D01*
X136782046Y-93656810D01*
X136775169Y-93659306D01*
X136775166Y-93659307D01*
X136672069Y-93696730D01*
X136617185Y-93716652D01*
X136470513Y-93812814D01*
X136470088Y-93813263D01*
X136407525Y-93840514D01*
X136391791Y-93841500D01*
X135586506Y-93841500D01*
X135440643Y-93855802D01*
X135437454Y-93856765D01*
X135367723Y-93850465D01*
X135311693Y-93806862D01*
X135288131Y-93739890D01*
X135293366Y-93696730D01*
X135325052Y-93592111D01*
X135325052Y-93592110D01*
X135326927Y-93585920D01*
X135329100Y-93561576D01*
X135333251Y-93515066D01*
X135333251Y-93515060D01*
X135333500Y-93512273D01*
X135333500Y-93489378D01*
X135339006Y-93452538D01*
X135343504Y-93437827D01*
X135348718Y-93386500D01*
X135362871Y-93247166D01*
X135362871Y-93247161D01*
X135363493Y-93241038D01*
X135344879Y-93044116D01*
X135343122Y-93038223D01*
X135343121Y-93038217D01*
X135338751Y-93023560D01*
X135333500Y-92987563D01*
X135333500Y-92975866D01*
X135318860Y-92850297D01*
X135300924Y-92800882D01*
X135263491Y-92697757D01*
X135260994Y-92690878D01*
X135168007Y-92549049D01*
X135044885Y-92432414D01*
X134898234Y-92347233D01*
X134735920Y-92298073D01*
X134729471Y-92297498D01*
X134723131Y-92296268D01*
X134723241Y-92295700D01*
X134708082Y-92292685D01*
X134626424Y-92267095D01*
X134557256Y-92245419D01*
X134551131Y-92244754D01*
X134551128Y-92244753D01*
X134366737Y-92224721D01*
X134366733Y-92224721D01*
X134360612Y-92224056D01*
X134163564Y-92241296D01*
X133973619Y-92296480D01*
X133973183Y-92296706D01*
X133945051Y-92303837D01*
X133932568Y-92305292D01*
X133932565Y-92305293D01*
X133925297Y-92306140D01*
X133765878Y-92364006D01*
X133624049Y-92456993D01*
X133507414Y-92580115D01*
X133422233Y-92726766D01*
X133421860Y-92727996D01*
X133397514Y-92763753D01*
X133393905Y-92767362D01*
X133383763Y-92776464D01*
X133353392Y-92800882D01*
X133349433Y-92805600D01*
X133349427Y-92805606D01*
X133320108Y-92840547D01*
X133316927Y-92844194D01*
X133315506Y-92845761D01*
X133313325Y-92847942D01*
X133286756Y-92880287D01*
X133286135Y-92881036D01*
X133226248Y-92952406D01*
X133223681Y-92957075D01*
X133220297Y-92961195D01*
X133187685Y-93022019D01*
X133176385Y-93043093D01*
X133175754Y-93044255D01*
X133134483Y-93119327D01*
X133130957Y-93125740D01*
X133129345Y-93130822D01*
X133126827Y-93135518D01*
X133125025Y-93141413D01*
X133125023Y-93141417D01*
X133099655Y-93224392D01*
X133099263Y-93225651D01*
X133071148Y-93314282D01*
X133070554Y-93319578D01*
X133068996Y-93324674D01*
X133060223Y-93411042D01*
X133059596Y-93417212D01*
X133059469Y-93418401D01*
X133056629Y-93443722D01*
X133055395Y-93454726D01*
X133027923Y-93520193D01*
X132969419Y-93560414D01*
X132894681Y-93561576D01*
X132892867Y-93561043D01*
X132884670Y-93557300D01*
X132824036Y-93548582D01*
X132744448Y-93537139D01*
X132744441Y-93537138D01*
X132740000Y-93536500D01*
X128134000Y-93536500D01*
X128065879Y-93516498D01*
X128019386Y-93462842D01*
X128008000Y-93410500D01*
X128008000Y-85633830D01*
X128028002Y-85565709D01*
X128081658Y-85519216D01*
X128134000Y-85507830D01*
X145457537Y-85507830D01*
X145525658Y-85527832D01*
G37*
%TD.AperFunction*%
%TA.AperFunction,Conductor*%
G36*
X161934121Y-85527832D02*
G01*
X161980614Y-85581488D01*
X161992000Y-85633830D01*
X161992000Y-93610500D01*
X161971998Y-93678621D01*
X161918342Y-93725114D01*
X161866000Y-93736500D01*
X157260000Y-93736500D01*
X157186921Y-93741727D01*
X157110228Y-93764246D01*
X157055330Y-93780365D01*
X157055328Y-93780366D01*
X157046684Y-93782904D01*
X157031860Y-93792431D01*
X156931309Y-93857051D01*
X156931306Y-93857053D01*
X156923729Y-93861923D01*
X156917828Y-93868733D01*
X156849131Y-93948013D01*
X156789405Y-93986396D01*
X156753907Y-93991500D01*
X154274006Y-93991500D01*
X154128143Y-94005802D01*
X154110521Y-94011122D01*
X154074105Y-94016500D01*
X154063365Y-94016500D01*
X153990906Y-94024948D01*
X153945068Y-94030292D01*
X153945067Y-94030292D01*
X153937796Y-94031140D01*
X153930919Y-94033636D01*
X153930916Y-94033637D01*
X153814457Y-94075910D01*
X153778378Y-94089006D01*
X153636549Y-94181993D01*
X153631511Y-94187311D01*
X153631510Y-94187312D01*
X153627086Y-94191982D01*
X153565717Y-94227679D01*
X153494790Y-94224531D01*
X153448963Y-94196801D01*
X153407385Y-94157414D01*
X153260734Y-94072233D01*
X153098420Y-94023073D01*
X153091980Y-94022498D01*
X153091979Y-94022498D01*
X153027566Y-94016749D01*
X153027560Y-94016749D01*
X153024773Y-94016500D01*
X153003922Y-94016500D01*
X152966243Y-94010734D01*
X152965795Y-94010594D01*
X152957257Y-94007918D01*
X152951134Y-94007253D01*
X152951130Y-94007252D01*
X152766737Y-93987221D01*
X152766733Y-93987221D01*
X152760612Y-93986556D01*
X152563564Y-94003795D01*
X152557645Y-94005515D01*
X152557643Y-94005515D01*
X152537053Y-94011497D01*
X152501900Y-94016500D01*
X152488365Y-94016500D01*
X152415906Y-94024948D01*
X152370068Y-94030292D01*
X152370067Y-94030292D01*
X152362796Y-94031140D01*
X152338335Y-94040019D01*
X152267478Y-94044460D01*
X152205468Y-94009888D01*
X152171993Y-93947278D01*
X152177681Y-93876510D01*
X152206249Y-93832484D01*
X152480906Y-93557828D01*
X152890065Y-93148669D01*
X152936167Y-93119327D01*
X152952239Y-93113493D01*
X152952246Y-93113490D01*
X152959121Y-93110994D01*
X153100950Y-93018007D01*
X153217585Y-92894885D01*
X153272186Y-92800882D01*
X153299088Y-92754567D01*
X153299089Y-92754564D01*
X153302766Y-92748234D01*
X153351927Y-92585920D01*
X153352502Y-92579478D01*
X153353445Y-92574617D01*
X153356644Y-92561778D01*
X153375337Y-92500635D01*
X153375728Y-92499381D01*
X153401989Y-92416594D01*
X153403853Y-92410718D01*
X153404447Y-92405422D01*
X153406005Y-92400326D01*
X153406628Y-92394193D01*
X153406629Y-92394188D01*
X153414476Y-92316925D01*
X153415403Y-92307802D01*
X153415538Y-92306535D01*
X153421000Y-92257845D01*
X153421000Y-92254321D01*
X153421042Y-92253570D01*
X153421491Y-92247871D01*
X153425372Y-92209666D01*
X153425372Y-92209661D01*
X153425994Y-92203538D01*
X153421559Y-92156621D01*
X153421000Y-92144763D01*
X153421000Y-89307424D01*
X153441002Y-89239303D01*
X153457905Y-89218328D01*
X153655830Y-89020404D01*
X153718142Y-88986379D01*
X153744925Y-88983500D01*
X153942886Y-88983500D01*
X154038106Y-88972398D01*
X154068371Y-88968870D01*
X154068372Y-88968870D01*
X154075643Y-88968022D01*
X154082521Y-88965526D01*
X154082523Y-88965525D01*
X154234985Y-88910184D01*
X154241864Y-88907687D01*
X154351998Y-88835480D01*
X154383628Y-88814743D01*
X154383629Y-88814742D01*
X154389747Y-88810731D01*
X154511358Y-88682355D01*
X154600175Y-88529445D01*
X154651433Y-88360204D01*
X154652460Y-88348701D01*
X154658251Y-88283815D01*
X154658251Y-88283809D01*
X154658500Y-88281022D01*
X154658500Y-87332114D01*
X154643022Y-87199357D01*
X154582687Y-87033136D01*
X154485731Y-86885253D01*
X154357355Y-86763642D01*
X154204445Y-86674825D01*
X154035204Y-86623567D01*
X154028764Y-86622992D01*
X154028763Y-86622992D01*
X153958815Y-86616749D01*
X153958809Y-86616749D01*
X153956022Y-86616500D01*
X152957114Y-86616500D01*
X152861894Y-86627602D01*
X152831629Y-86631130D01*
X152831628Y-86631130D01*
X152824357Y-86631978D01*
X152817479Y-86634474D01*
X152817477Y-86634475D01*
X152789027Y-86644802D01*
X152658136Y-86692313D01*
X152619198Y-86717842D01*
X152538313Y-86770872D01*
X152469228Y-86791500D01*
X151630335Y-86791500D01*
X151591068Y-86782958D01*
X151590624Y-86784472D01*
X151581974Y-86781932D01*
X151573780Y-86778190D01*
X151564865Y-86776908D01*
X151564864Y-86776908D01*
X151433558Y-86758029D01*
X151433551Y-86758028D01*
X151429110Y-86757390D01*
X150123054Y-86757390D01*
X150049975Y-86762617D01*
X150031348Y-86768086D01*
X149977923Y-86771908D01*
X149892332Y-86759602D01*
X149881391Y-86758029D01*
X149881390Y-86758029D01*
X149876946Y-86757390D01*
X148570890Y-86757390D01*
X148497811Y-86762617D01*
X148416827Y-86786396D01*
X148381329Y-86791500D01*
X147486990Y-86791500D01*
X147418869Y-86771498D01*
X147372376Y-86717842D01*
X147365031Y-86697154D01*
X147360190Y-86678502D01*
X147326084Y-86547098D01*
X147274731Y-86433098D01*
X147233578Y-86341743D01*
X147233577Y-86341741D01*
X147231388Y-86336882D01*
X147102627Y-86145626D01*
X146943482Y-85978799D01*
X146758504Y-85841171D01*
X146753753Y-85838755D01*
X146753749Y-85838753D01*
X146571606Y-85746147D01*
X146519948Y-85697444D01*
X146502822Y-85628544D01*
X146525664Y-85561322D01*
X146581223Y-85517121D01*
X146628711Y-85507830D01*
X161866000Y-85507830D01*
X161934121Y-85527832D01*
G37*
%TD.AperFunction*%
%TD*%
M02*
